<svg xmlns="http://www.w3.org/2000/svg" viewBox="0 0 44.89 127.98"><defs><style>.cls-1{fill:#040000;}</style></defs><title>자산 2</title><g id="레이어_2" data-name="레이어 2"><g id="레이어_1-2" data-name="레이어 1"><path class="cls-1" d="M0,119.21a47,47,0,0,0,15.15-17.83Q20,91.11,20,76.52V72.45H41.6q-.87,18.76-8.84,32.21T8.79,128ZM19.92,25A14.09,14.09,0,0,0,30.29,29.2,14.09,14.09,0,0,0,40.66,25,14.09,14.09,0,0,0,44.89,14.6,14.17,14.17,0,0,0,40.66,4.28,14,14,0,0,0,30.29,0,14.09,14.09,0,0,0,19.92,4.23,14.13,14.13,0,0,0,15.69,14.6,14.13,14.13,0,0,0,19.92,25Z"/></g></g></svg>