<?xml version="1.0" encoding="utf-8"?>
<!-- Generator: Adobe Illustrator 23.0.2, SVG Export Plug-In . SVG Version: 6.00 Build 0)  -->
<svg version="1.1" id="레이어_1" xmlns="http://www.w3.org/2000/svg" xmlns:xlink="http://www.w3.org/1999/xlink" x="0px"
	 y="0px" viewBox="0 0 44.9 128" style="enable-background:new 0 0 44.9 128;" xml:space="preserve">
<style type="text/css">
	.st0{fill:#FFFFFF;}
</style>
<title>자산 2</title>
<g>
	<g id="레이어_1-2">
		<path class="st0" d="M0,119.2c6.5-4.6,11.7-10.7,15.1-17.8c3.2-6.8,4.9-15.1,4.9-24.9v-4.1h21.6C41,85,38.1,95.7,32.8,104.7
			s-13.3,16.7-24,23.3L0,119.2z M19.9,25c2.7,2.8,6.5,4.3,10.4,4.2c3.9,0.1,7.6-1.4,10.4-4.2c2.8-2.7,4.3-6.5,4.2-10.4
			C45,10.7,43.4,7,40.7,4.3C38,1.5,34.2-0.1,30.3,0c-3.9-0.1-7.6,1.4-10.4,4.2c-2.8,2.7-4.3,6.5-4.2,10.4
			C15.6,18.5,17.1,22.3,19.9,25z"/>
	</g>
</g>
</svg>
