<?xml version="1.0" encoding="utf-8"?>
<!-- Generator: Adobe Illustrator 23.0.2, SVG Export Plug-In . SVG Version: 6.00 Build 0)  -->
<svg version="1.1" id="레이어_1" xmlns="http://www.w3.org/2000/svg" xmlns:xlink="http://www.w3.org/1999/xlink" x="0px"
	 y="0px" viewBox="0 0 144.8 147.2" style="enable-background:new 0 0 144.8 147.2;" xml:space="preserve">
<style type="text/css">
	.st0{fill:#FFFFFF;}
</style>
<title>자산 1</title>
<g>
	<g id="레이어_1-2">
		<path class="st0" d="M18.4,140V7.1H0V0h74.6c21.6,0,38.7,6.8,51.3,20.5s18.9,30.9,18.9,51.8c0.1,10.5-1.9,20.8-5.8,30.5
			c-4,9.8-10.1,18.6-17.7,25.9c-8,7.8-16.2,12.8-24.5,15s-18.7,3.3-30.9,3.4H0V140H18.4z M54.4,7.1V140h11.6
			c17.8,0,28.5-5.2,32.2-15.7s5.5-28.3,5.6-53.5c0-19.8-1.1-34-3.4-42.6c-2.3-8.6-5.7-14.3-10.3-17c-4.6-2.7-10.5-4-17.6-4.1
			L54.4,7.1z"/>
	</g>
</g>
</svg>
