<svg id="레이어_1" data-name="레이어 1" xmlns="http://www.w3.org/2000/svg" viewBox="0 0 200 200"><defs><style>.cls-1{fill:#707070;}</style></defs><title>alpha</title><path class="cls-1" d="M73.3,3.63h85.64V10.2H133.53V132q0,22.58-4.71,35.28t-19.28,22.5a54.93,54.93,0,0,1-31.21,9.8q-16.12,0-27.86-8.57T38.74,171.8a14.85,14.85,0,0,1,14.83-15.09,13.4,13.4,0,0,1,9.8,3.81A12.77,12.77,0,0,1,67.24,170a14.71,14.71,0,0,1-2.06,7.61q-3.48,3.48-3.48,6.06c0,2.4,1.82,4.56,5.48,6.45A25.56,25.56,0,0,0,79.11,193q11.08,0,17.47-7.22T103,150.4V10.2H73.3Z"/></svg>