<svg id="레이어_1" data-name="레이어 1" xmlns="http://www.w3.org/2000/svg" viewBox="0 0 200 200"><defs><style>.cls-1{fill:#707070;}</style></defs><title>alpha</title><path class="cls-1" d="M172.68,24.2H144.43V17.63h61.78V24.2H179V128.8q0,22.69-3.42,33.53a37.71,37.71,0,0,1-12.45,18.19,56.9,56.9,0,0,1-21.6,10.7,100.24,100.24,0,0,1-26,3.35q-28.37,0-41.53-8.9T57.83,163.75q-3-13-3-34.95V24.2h-25V17.63h82.67V24.2H85.23V125.83q0,21,1.94,33a34.11,34.11,0,0,0,10.44,20q8.52,8,27,8a57.72,57.72,0,0,0,26.83-6.13q11.85-6.12,16.57-16.44t4.71-38.44Z"/></svg>