<svg id="레이어_1" data-name="레이어 1" xmlns="http://www.w3.org/2000/svg" viewBox="0 0 200 200"><defs><style>.cls-1{fill:#707070;}</style></defs><title>alpha</title><path class="cls-1" d="M128.5,134.67H99.23v-6.58h89.5v6.58h-25q0,33.15-21.28,47.52T97.94,196.57q-33.93,0-56.49-27.08T18.88,106.17q0-36.76,23.08-63.65T99.48,15.63q17.8,0,34.05,10.32Q138.44,29,140.37,29q4.13,0,8.25-7.35h5.81l1.8,47h-6.58Q139,22.2,99,22.21q-20.77,0-30.31,9.35A40.4,40.4,0,0,0,57,55.16q-2.13,14.25-2.13,40.69,0,47.58,3.16,63.06t13,23.28Q80.78,190,95,190a42.69,42.69,0,0,0,20.18-4.65,20.71,20.71,0,0,0,11.1-13.86q2.25-9.23,2.25-27.54Z"/></svg>