<?xml version="1.0" encoding="utf-8"?>
<!-- Generator: Adobe Illustrator 23.0.6, SVG Export Plug-In . SVG Version: 6.00 Build 0)  -->
<svg version="1.1" id="레이어_1" xmlns="http://www.w3.org/2000/svg" xmlns:xlink="http://www.w3.org/1999/xlink" x="0px"
	 y="0px" viewBox="0 0 30.6 21.4" style="enable-background:new 0 0 30.6 21.4;" xml:space="preserve">
<style type="text/css">
	.st0{fill:#040000;}
	.st1{fill:none;}
</style>
<g id="bg">
</g>
<g>
	<g>
		<path class="st0" d="M24.1,20.1c1-0.7,1.7-1.6,2.2-2.6s0.7-2.2,0.7-3.6v-0.6h3.1c-0.1,1.8-0.5,3.4-1.3,4.7
			c-0.7,1.3-1.8,2.4-3.4,3.3L24.1,20.1z"/>
		<path class="st0" d="M26.4,4.9c0-0.6,0.2-1.1,0.6-1.5s0.9-0.6,1.5-0.6S29.6,3,30,3.4s0.6,0.9,0.6,1.5S30.4,6,30,6.4
			C29.6,6.8,29.1,7,28.5,7S27.4,6.8,27,6.4S26.4,5.5,26.4,4.9z"/>
		<g>
			<path class="st0" d="M2.7,20.3V1H0V0h10.8c3.1,0,5.6,1,7.4,3c1.8,2,2.7,4.5,2.7,7.5c0,1.6-0.3,3-0.8,4.4
				c-0.6,1.4-1.4,2.6-2.6,3.8c-1.2,1.1-2.3,1.9-3.6,2.2c-1.2,0.3-2.7,0.5-4.5,0.5H0v-1h2.7V20.3z M7.9,1v19.3h1.7
				c2.6,0,4.1-0.8,4.7-2.3c0.5-1.5,0.8-4.1,0.8-7.8c0-2.9-0.2-4.9-0.5-6.2c-0.3-1.3-0.8-2.1-1.5-2.5s-1.5-0.6-2.5-0.6H7.9
				C7.9,0.9,7.9,1,7.9,1z"/>
		</g>
	</g>
</g>
<rect x="-13" y="-17.7" class="st1" width="56.7" height="56.7"/>
</svg>
