<svg id="레이어_1" data-name="레이어 1" xmlns="http://www.w3.org/2000/svg" viewBox="0 0 200 200"><defs><style>.cls-1{fill:#707070;}</style></defs><title>alpha</title><path class="cls-1" d="M44.28,186V26.2H17.07V19.63h94.79q18.58,0,30.51,3.22A40.62,40.62,0,0,1,162.94,36.2a34.82,34.82,0,0,1,8.64,23.28q0,16.38-12.64,26.57t-42.82,15.34V102q21.67,4.26,35.53,16.51t13.87,41.52q0,16.77,3.93,21.48t10.9,4.71a40.19,40.19,0,0,0,10.83-1.81v6.32a66.3,66.3,0,0,1-21.66,3.87q-21.28,0-30.06-11.87T131,159.56l.52-21.93q0-11.48-7.29-22.63T91.1,103.84H75V186h27.21v6.58H17.07V186ZM75,26.2V97.78H98.19q15,0,22.83-2T133.6,85.34q4.69-8.45,4.7-26.89,0-15.09-4.77-22.06T122,27.82a78.72,78.72,0,0,0-17.73-1.62Z"/></svg>