<?xml version="1.0" encoding="utf-8"?>
<!-- Generator: Adobe Illustrator 22.0.1, SVG Export Plug-In . SVG Version: 6.00 Build 0)  -->
<svg version="1.1" id="레이어_1" xmlns="http://www.w3.org/2000/svg" xmlns:xlink="http://www.w3.org/1999/xlink" x="0px"
	 y="0px" viewBox="0 0 35 50" style="enable-background:new 0 0 35 50;" xml:space="preserve">
<style type="text/css">
	.st0{fill:#040000;}
</style>
<title>logo-01</title>
<path class="st0" d="M4.8,40.7V9.1H0.4V7.5h17.6c5.1,0,9.1,1.6,12.1,4.9c3,3.4,4.6,7.8,4.4,12.3c0,2.5-0.5,4.9-1.3,7.2
	c-1,2.3-2.4,4.4-4.3,6.2c-1.6,1.7-3.6,2.9-5.9,3.6c-2.4,0.6-4.9,0.8-7.4,0.8H0.4v-1.6h4.4V40.7z M13.3,9.1v31.5h2.8
	c4.3,0,6.7-1.3,7.7-3.8s1.3-6.7,1.3-12.7c0.1-3.4-0.2-6.8-0.8-10.1c-0.5-2.1-1.3-3.4-2.4-4.1c-1.2-0.7-2.7-1-4.1-1h-4.4L13.3,9.1z"
	/>
</svg>
