<svg id="레이어_1" data-name="레이어 1" xmlns="http://www.w3.org/2000/svg" viewBox="0 0 1250.56 1503.29"><defs><style>.cls-1{fill:#edd4ad;}.cls-2{fill:#cfae86;}.cls-3{fill:#865941;}.cls-4{fill:#794d34;}</style></defs><title>bear</title><rect class="cls-1" x="364.65" y="681.06" width="21" height="703" rx="10.5" ry="10.5" transform="translate(319.49 -64.63) rotate(17.06)"/><path class="cls-2" d="M485.25,709.65l-200.12,652a10.49,10.49,0,0,1-19.44,1.56,9.61,9.61,0,0,0,1.52.6,10.52,10.52,0,0,0,13.11-7l200.12-652a10.47,10.47,0,0,0-.64-7.74,10.55,10.55,0,0,1,5.45,12.53Z"/><path class="cls-3" d="M332.85,1218.15a24.82,24.82,0,0,1-1.36,7.18,29.26,29.26,0,0,1-3,6.16c-2.77,4.48-7.07,9.14-13.38,13.92C286.69,1267,159.34,1253.25,124.4,1192c0,0-11.57-20.91,5.4-36.6,0,0,21.7-13.48,38.85-6.4s69.3,30.44,80,33.53,65.77-.4,74.2,11c.83,1.11,1.69,2.3,2.56,3.56l0,.06a58.35,58.35,0,0,1,3.17,5.15l.1.17a35.2,35.2,0,0,1,3.67,9.77A25.63,25.63,0,0,1,332.85,1218.15Z"/><path class="cls-4" d="M325.37,1197l-1.41.22c-4.07.65-15.9,2.57-21.37,3.7-6.66,1.37-3,5,6.34,4.37a163.94,163.94,0,0,0,19.75-2.92Z"/><path class="cls-4" d="M332.85,1218.15c-4.49.24-12.51.56-19.89.23-11-.49-14.91-4.59-7-5.14,6.53-.44,20.59-.89,25.42-1l.93,0A25.63,25.63,0,0,1,332.85,1218.15Z"/><path class="cls-4" d="M331.49,1225.33a29.26,29.26,0,0,1-3,6.16c-4.44.22-10.16.38-15.53.19-11-.38-15-4.44-7-5.06,6.52-.51,20.57-1.09,25.4-1.29Z"/></svg>