<svg id="레이어_1" data-name="레이어 1" xmlns="http://www.w3.org/2000/svg" viewBox="0 0 1250.56 1503.29"><defs><style>.cls-1{fill:#319747;}.cls-2{fill:#8a502e;}</style></defs><title>bear</title><path class="cls-1" d="M986.82,300.84a196,196,0,0,0-42.26,4.64,481.21,481.21,0,0,0,2.58-53.19c0-123.2-118.27-223.07-264.17-223.07S424,172.87,424,296.08c0,26.4,5.21,49.63,14.81,69.87a275.91,275.91,0,0,0-38.45-2.69c-128.3,0-227.69,126.32-227.69,234.66S272.11,754,400.4,755.59c205.45,2.54,232.3-87.83,232.3-196.17,0-32.62-9.44-63.38-26.13-90.44a510.35,510.35,0,0,0,76.4,6.39c32.94.41,61.85-1.28,87.2-4.84-7.17,21.62-11,43.65-11,65,0,108.34,99.41,156.08,227.69,157.67,205.46,2.55,232.3-87.83,232.3-196.17S1115.12,300.84,986.82,300.84Z"/><path class="cls-2" d="M863.11,452.63a21.43,21.43,0,0,0-21.26,19,198.45,198.45,0,0,1-10.21,44.19,140.34,140.34,0,0,1-13.4,27.56,126.19,126.19,0,0,1-18.6,23.45,146.92,146.92,0,0,1-50.27,32.33,186.26,186.26,0,0,1-29.45,8.79c-4.13.86-8.28,1.57-12.42,2.15l-2.93-288.58a20.94,20.94,0,0,0-22.85-20.56c-10.87,1-18.88,10.72-19,21.63l-1,93.95a45,45,0,0,1-27.11-11.17C621.8,394,614.15,374,612.11,347a16.52,16.52,0,1,0-33,2.54c2.7,36,13.9,63,33.39,80.41a77.9,77.9,0,0,0,48.74,19.53l-2.75,250.07a.22.22,0,0,1-.3.2c-8.23-3.42-16.36-7.07-24.28-11.1-19.26-9.88-37.67-21.34-53.5-35a181.52,181.52,0,0,1-21.83-21.93,150.58,150.58,0,0,1-16.73-25A127.33,127.33,0,0,1,531.71,579a105.72,105.72,0,0,1-2.08-12.18,21.57,21.57,0,0,0-43,3.24A147.56,147.56,0,0,0,488,586.66a172.11,172.11,0,0,0,10.68,39.68A198.53,198.53,0,0,0,518.18,662a233.86,233.86,0,0,0,25.47,30.63c18.39,18.88,39.16,34.39,60.77,48q16.27,10.14,33.36,18.69c5.68,2.9,11.47,5.58,17.33,8.23l2.48,1.06L650.89,1460A21.16,21.16,0,0,0,672,1481.41h23.19A21.15,21.15,0,0,0,716.38,1460l-8-788.48c2.17-.37,4.36-.72,6.5-1.15,6.69-1.33,13.24-3,19.72-4.84a243.93,243.93,0,0,0,37.86-14.42c24.44-11.73,47.2-28.39,65.28-49.37a177.12,177.12,0,0,0,23.18-34.1,181.51,181.51,0,0,0,8.11-17.4c.93-2.19,1.74-4.43,2.51-6.68,1.55-4.51,3.28-9,4.39-13.56a243.53,243.53,0,0,0,8.63-55.21A21.36,21.36,0,0,0,863.11,452.63Z"/></svg>