<svg id="레이어_1" data-name="레이어 1" xmlns="http://www.w3.org/2000/svg" viewBox="0 0 1250.56 1503.29"><defs><style>.cls-1{fill:#865941;}.cls-2{fill:#794d34;}.cls-3{fill:#6d3d1f;}.cls-4{fill:#8a502e;}.cls-5{fill:#edd4ad;}.cls-6{fill:#2a160f;}.cls-7{fill:none;stroke:#2a160f;stroke-miterlimit:10;}</style></defs><title>bear</title><path class="cls-1" d="M402.69,1113.44c-.09,5.26-1.4,11.47-4.38,18.8-8,19.74-52.67,46.68-100.43,57.82-4.25-7.57-8.24-14.79-11.35-21.79-12-27.07-9.44-41.51-4.66-51.69,12.54-1.71,23.07-3.3,27.1-4.35,10.75-2.8,56.31-34,69.36-28.54,1.28.53,2.63,1.11,4,1.75l.07,0a60.08,60.08,0,0,1,5.36,2.81l.17.09a35.1,35.1,0,0,1,8.15,6.52,25.78,25.78,0,0,1,3.48,4.88,24.82,24.82,0,0,1,2.51,6.86A29.33,29.33,0,0,1,402.69,1113.44Z"/><path class="cls-2" d="M382.35,1085.44l-1.09.92c-3.17,2.64-12.35,10.33-16.47,14.1-5,4.59,0,5.87,7.68.52A164.29,164.29,0,0,0,388,1088.37Z"/><path class="cls-2" d="M399.58,1099.76c-3.73,2.51-10.46,6.88-17,10.37-9.7,5.21-15.16,3.68-8.61-.85,5.39-3.72,17.24-11.3,21.32-13.89l.78-.5A26,26,0,0,1,399.58,1099.76Z"/><path class="cls-2" d="M402.09,1106.63a29.27,29.27,0,0,1,.6,6.81c-3.7,2.46-8.53,5.52-13.24,8.1-9.66,5.31-15.13,3.84-8.62-.76,5.35-3.77,17.12-11.46,21.17-14.1Z"/><path class="cls-3" d="M290.12,1440.6c3.66,3.67-.67,9-3,9s0,6.67-14,4.67c0,0-7.34,10-18,4.66s-36.34-21-38.67-24.66c-1.42-2.24-2.71-9.28-3.36-16,9.46-14.42,38.36-26.31,38.36-26.31s27.84-11.17,51.68-43.65c0,0-19,64.32-18.68,70.65S286.45,1436.93,290.12,1440.6Z"/><path class="cls-4" d="M303.8,1190.06c-4.25-7.57-8.24-14.79-11.35-21.79-12-27.07-9.44-41.51-4.66-51.69,1.57-3.36,3.39-6.25,5-9,5.2-8.85,14-26.67,15-49.33s-9-34.67-29.66-57c-1.54-1.67-5.13-3.75-6.17-5.67-.73-1.34.5-5,.5-5s8.33-17.67-16-28.33-29.67,15.66-29.67,15.66c-62.33-8.66-84.33,26-84.33,26-19.67-21-42,.34-42,.34-16.33,31.33,9.67,49,9.67,49-4,8,1.33,36.66,4,52.33s-1.67,24.67-10,40-27,63-35,102.67,15.33,92.66,15.33,92.66-3.67,10.67,2,20.34,18,10.66,18,10.66,17,25,18.67,27.67,10.33,30.33,14.66,42,51.67,29,58,30.67,12.73-4.67,12.73-4.67c8.72-1,10.27-3.67,10.27-3.67,3.67.34,8.34-5.33,8.34-10s-17-9-17-27a15.91,15.91,0,0,1,3-8.69c9.46-14.42,38.36-26.31,38.36-26.31s27.84-11.17,51.68-43.65a161.49,161.49,0,0,0,21-39C343.18,1258.52,321.36,1221.39,303.8,1190.06Zm-40.65-187.43a5.74,5.74,0,1,1-5.74,5.73A5.73,5.73,0,0,1,263.15,1002.63Zm-23.84-12.39c.69-1.82,18-3.38,19.68-.48s-19,7-20.8,7.26S239.31,990.24,239.31,990.24Zm-17.14,52.36c9-25.07,45-21.37,51.87-20.42a26.4,26.4,0,0,1,6.25-.75c11,0,17.54,3.12,19.2,11.38a15.57,15.57,0,0,1-4.87,14.74c2.48,14.64-4.22,38.76-35.45,43.55C224.92,1096.35,212.17,1070.35,222.17,1042.6Zm-12.37-15.78a5.74,5.74,0,1,1-5.73-5.73A5.73,5.73,0,0,1,209.8,1026.82Zm-27.69-16.42c0-3.33,15.83-10.58,17.33-9.33,0,0,6,4.66,4.34,5.33S182.11,1013.73,182.11,1010.4Z"/><path class="cls-2" d="M203.78,1006.4c-1.67.67-21.67,7.33-21.67,4s15.83-10.58,17.33-9.33C199.44,1001.07,205.44,1005.73,203.78,1006.4Z"/><path class="cls-2" d="M209.8,1026.82a5.74,5.74,0,1,1-5.73-5.73A5.73,5.73,0,0,1,209.8,1026.82Z"/><path class="cls-2" d="M239.31,990.24c.69-1.82,18-3.38,19.68-.48s-19,7-20.8,7.26S239.31,990.24,239.31,990.24Z"/><path class="cls-2" d="M257.41,1008.36a5.74,5.74,0,1,1,5.74,5.74A5.74,5.74,0,0,1,257.41,1008.36Z"/><path class="cls-2" d="M294.62,1047.55c2.48,14.64-4.22,38.76-35.45,43.55-34.25,5.25-47-20.75-37-48.5,9-25.07,45-21.37,51.87-20.42a26.4,26.4,0,0,1,6.25-.75c11,0,17.54,3.12,19.2,11.38A15.57,15.57,0,0,1,294.62,1047.55Z"/><path class="cls-5" d="M259.17,1091.1c-34.25,5.25-47-20.75-37-48.5,9-25.07,45-21.37,51.87-20.42l1.13.17s14,7.5,18.5,21.25a25.68,25.68,0,0,1,.95,4C297.1,1062.19,290.4,1086.31,259.17,1091.1Z"/><path class="cls-6" d="M294.62,1047.55c-3.14,2.77-7.82,4.63-14.33,4.63-11,0-21.12-6.89-21.12-15.38,0-6.83,6.58-12.63,14.87-14.62a26.4,26.4,0,0,1,6.25-.75c11,0,17.54,3.12,19.2,11.38A15.57,15.57,0,0,1,294.62,1047.55Z"/><path class="cls-6" d="M203.78,1006.4c-1.67.67-21.67,7.33-21.67,4s15.83-10.58,17.33-9.33C199.44,1001.07,205.44,1005.73,203.78,1006.4Z"/><path class="cls-6" d="M238.19,997c-1.78.25,1.12-6.78,1.12-6.78.69-1.82,18-3.38,19.68-.48S240,996.78,238.19,997Z"/><path class="cls-6" d="M268.88,1008.36a5.74,5.74,0,1,1-5.73-5.73A5.73,5.73,0,0,1,268.88,1008.36Z"/><path class="cls-6" d="M209.8,1026.82a5.74,5.74,0,1,1-5.73-5.73A5.73,5.73,0,0,1,209.8,1026.82Z"/><path class="cls-7" d="M266.11,1072.26s-9.33,8.34-20.66,0"/></svg>