<svg id="레이어_1" data-name="레이어 1" xmlns="http://www.w3.org/2000/svg" viewBox="0 0 1250.56 1503.29"><defs><style>.cls-1{fill:#d73e2a;}.cls-2{fill:#2b0a09;}</style></defs><title>bear</title><path class="cls-1" d="M497.49,711.64c9.33,2.63,17.61.89,24.71-5.87,1.42-1.35,3.58-1.86,4.5-3.81.35-1.64,1.66-2.46,2.87-3.36,8.78-9.52,12.54-21.19,14.49-33.65a5.37,5.37,0,0,1-.19-3.2.88.88,0,0,0,.37,1.1c1.79-10.38,2.08-20.79-1.87-30.7-3.44-8.62-10.17-13.6-19.6-14.54-.48.17.2.06-.27.26s-1.16.08-1.73.23c.47-.23,1.13,0,1.45-.56a6.23,6.23,0,0,0-4-.64c-6,.06-12,0-18,0a41.79,41.79,0,0,0-5.92.19c-2.71,2.06-2.86,5.24-3.23,8.15-.29,2.26,1.7,2.55,3.44,2.33,3.86-.5,7.78-.79,11.21-2.07-6.06,2-12.66,2.86-19.22,3.92a1.15,1.15,0,0,0-.52.94c.44.88,1.18.65,1.82.53-1.39.69-2.33-.66-3.54-1a27.07,27.07,0,0,0-5.32-.32h-1.13c-1.59,0-3.19.12-4.76,0-.44-.17-.68-.4-.22-.84,3.11-.21,6.19-.44,9.24.41,6.1.24,8-2,8.14-9.62-.25-2-1.5-2.66-3.37-2.63s-4,0-5.94,0c-6.12-.1-12.24.15-18.35,0a8.73,8.73,0,0,0-4.73.69c.75.83,1.76.22,3,.59-1.44-.29-2.59.21-3.59-.49-11.79,1.32-20.65,10.92-21.35,23.66-.1,6.61,0,13.21,0,19.82-.07,1.38-.2,2.77.63,4,.51-.23.29-.81.59-1.19-.29.84.19,1.78-.46,2.52,1.67,12.1,5.44,23.24,13.64,32.74A47.46,47.46,0,0,0,464,710.62c6,3.15,12.26,2.49,18.54,1-1-.87-2.21-.38-3.33-.39,1.31,0,2.65-.48,3.9.32l14.41,0c.73-.69,1.66-.38,2.68-.53C499.15,711.35,498.2,710.92,497.49,711.64Z"/><path class="cls-2" d="M477.75,630.66l.36.08.36-.08c2.55-1.14,5.32.24,7.88-.69,7.46-.06,14.52-2.23,21.64-4.07.73-.19,2.07-.48,1.65-1.63s-1.34-.55-2.24-.24c-4.39,1.5-9,1.81-13.56,2.69-1.82.35-2.72,0-2-2.14.8-2.27,1.43-4.6,2.13-6.9.17-.41.64-.53.85-.9a.59.59,0,0,0-.31-.68l3.82-15.21a3.19,3.19,0,0,0-3.7-.7l-4.34,16c-.21.41-.7.62-.81,1.1,0,.92.37,1.89-.3,2.75a16.81,16.81,0,0,1-.22,2.25c-1.31,5.78-1.32,5.78-7.49,5.93a1.57,1.57,0,0,0-1.09,0,51.09,51.09,0,0,1-8.48,0,1.09,1.09,0,0,0-1.06.11c-.23.94-.46,1.88.74,2.36A9.39,9.39,0,0,1,477.75,630.66Z"/></svg>