<svg id="레이어_1" data-name="레이어 1" xmlns="http://www.w3.org/2000/svg" viewBox="0 0 200 200"><defs><style>.cls-1{fill:#707070;}</style></defs><title>alpha</title><path class="cls-1" d="M146.43,17.69V69h-5.55q-9-46.81-46.68-46.81Q74,22.21,64.66,38.07t-9.28,66.81q0,41.91,4,57t13.87,21.6A38.57,38.57,0,0,0,95,190q15.48,0,29.08-11.67t21.09-37.47h6.06l-2.06,52.75h-5.29a33.79,33.79,0,0,0-9.29-13.93q-20.37,16.89-41.91,16.89-27.34,0-49.91-25.92T20.17,107.2q0-38.31,22.18-64.94T93.68,15.63q22.44,0,39.59,16.12a102.19,102.19,0,0,0,7.61-14.06Z"/></svg>