<svg xmlns="http://www.w3.org/2000/svg" viewBox="0 0 784.58 784.58"><defs><style>.cls-1{fill:#b3b3b3;}.cls-2{fill:#a779cd;}.cls-3{fill-rule:evenodd;}.cls-4{fill:none;}</style></defs><title>자산 6</title><g id="레이어_2" data-name="레이어 2"><g id="레이어_1-2" data-name="레이어 1"><path class="cls-1" d="M154.31,627.61c43.84,27,85.7,26.3,125.61-6.7,4.15-3.44,10.06-5.19,15.17-7.73,19.53,7.63,40.88,9.79,61,7.94,57.2-5.27,114.05-.39,171,.85,16.67,6.85,33.19,14,50,20.5,31.9,12.31,64.92,13.85,98.61,7.1-2.18,34.62-8.87,39.17-47.7,39.42-121.51.78-242.48-12.51-364.12-10.28a227.84,227.84,0,0,1-97.62-20.53C151.15,651.3,144,642.27,154.31,627.61Z"/><path class="cls-2" d="M605.82,251.94c13.15,15.32,26,22.09,35.58,25.41,18.81,6.54,29,1.19,45.74,10.17,15.21,8.13,22.92,21.09,25.41,25.41,17.07,29.53,5.11,61.61,3.22,66.43.79,11.93-7.09,20.55-12.71,29.66-26,42.19-24.63,63,10.84,98.29,25.24,25.12,36.16,54.18,34,89.15-1.44,22.78-11.79,34.75-34.11,43.64C662,660.72,614.81,653,568.62,626.25c-31.21-18.1-63.8-34.35-98.62-43.39-72.35-18.78-139.71-3.28-201.2,37-25.09,16.43-48.26,30.76-80.5,15.34-39.65-18.95-50-33.11-47.79-76.23.65-12.55,1.25-25.34-.44-37.72-3.74-27.43-14.75-51.44-46.14-55.72-22.9-3.12-39.59-21.4-63-21.52-5.4-55.77,33.05-88.09,70-118.87,28.34-23.62,35.71-42.29,57.75-52.47,45.34-21,70.84-3.92,129.85-9.7,79.27-7.76,74.21-46.62,162-59.7,7.4-1.1,122.92-17.18,150.17,33.44A48.11,48.11,0,0,1,605.82,251.94Z"/><path class="cls-3" d="M766.67,576.3c-.15-.25-.35,1-.51,2.36s-.37,2.83-.33,3.06c.14,1.06,1.71,1.67,1.91,3.25a12.31,12.31,0,0,1-.09,2.95,22.64,22.64,0,0,0-.16,4.6,17,17,0,0,0,.37,2.5q.14.65.3,1.29c.1.46.21.93.31,1.4a33.16,33.16,0,0,1,.94,6.41,22.64,22.64,0,0,1-.4,4c-.25,1.52-.51,3.1-.75,5,0,0-.12,1-.33,2.1s-.43,2.27-.47,2.67.51,1.5.41,1.88a25.38,25.38,0,0,1-1.43,3.88,39.18,39.18,0,0,0-1.68,3.75c-.56,1.46-.94,2.76-1.34,4.06a24.09,24.09,0,0,1-1.65,3.88c-.36.68-1.93,3.38-1.64,3-.8,1.08-1.54,1-2.56,2.25L756.49,642c-.39.48-.83,1-1.29,1.49l-1.43,1.64c-.51.56-1.08,1.1-1.65,1.67s-1.18,1.15-1.81,1.72-1.32,1.11-2,1.66a36.62,36.62,0,0,1-4.51,3.1l-.6.37c-.1.07-.22.09-.29.2l-.3.17-1.22.67c-.81.43-1.62.85-2.44,1.24l-1.24.59-.62.29-.39.2-1.36.72c-1.86,1-3.79,2-6,3.18a18.61,18.61,0,0,0-2.5,2c-1.55.73-3.51.71-5,1.39-3.7,1.79-10,6-15.64,6.57-1.35.13-2.26-1.47-3.82-1.3-.2,0-2,.7-2.07.65-.63-.72,5.86-7.63,7.18-8.9,1.67-1.45,4.71-3.17,7-5,.6-.48.85-.56,1.74-1.16-.06,0,1.64-1.08,1.73-1.16.87-.81.37-1.83,1.2-2.51,1.49-1.22,3.86-1.89,5.25-3.07,1.2-1,1.88-2.23,3-3.25.6-.57,1.9-.93,2.57-1.54.26-.24-.58-.65-.36-.89a2.46,2.46,0,0,1,.89-.37l.55-.18a2.27,2.27,0,0,0,.49-.23,44.09,44.09,0,0,0,4.37-3.64c.63-.62,1.22-1.2,1.73-1.81a21,21,0,0,0,1.29-1.87c-1.21.41-2.27.92-3.33,1.37s-2,1.06-2.93,1.6-1.86,1.16-2.75,1.75c-.71.52-1.4,1-2.12,1.51-4.55,3-8.59,5.61-14.49,9.25-1.72,1-3.15,2.09-6.17,3.75-1.48.8-2.85,1.62-4.3,2.47s-3,1.68-4.85,2.57c-.53.27-1.06.92-1.85,1.06-1.71.29-.95.14-3.88,1.64-3.18,1.54-6.16.92-5.82-1.43.19-1.38,3.21-2.93,5.92-4.47,1.36-.76,2.67-1.47,3.56-2.08s1.35-1.13,1-1.45c-1-1.07-3.83,0-6.66,1.56s-5.72,3.31-6.69,3.69a36.16,36.16,0,0,1-4.87,1.51,25.15,25.15,0,0,0-3.1.73c-.78.31-1.14.94-1.87,1.35a23.41,23.41,0,0,1-3.37,1.46c-1.35.49-2.86,1.05-4.47,1.5l-4.94,1.41c-1.65.44-3.27.84-4.73,1.26a53.22,53.22,0,0,1-6.19,1.35c-2.37.47-5,.71-7.72,1-1.35.16-2.76.2-4.15.25l-4.16.12c-2.73,0-5.35-.17-7.7-.29-1.23-.94.31-2.2-.62-3.48-1-1.52.32-2.1,2.29-2.8s4.54-1.28,5.91-2.5c-.24-.54-2.59-.88-4.11-1-2.1-.12-2.19.59-3.24.56-1.29,0-2.65-.16-4.06-.27l-2.16-.15c-.73,0-1.47-.13-2.23-.15-1,0-2,.33-3.3.24-1.91-.11-2.79-.44-4.21-.57-2.27-.22-4.54,0-6.5-.36a33.73,33.73,0,0,1-4.12-1.06,39.06,39.06,0,0,0-4-1.16c-2.31-.44-5.73-1.09-8.32-1.63-2.88-.62-6.6-1.06-8.19-1.9-3.44-1.89.51-1-1.28-2.15-3.32-1.44-.29,1.34-4.51.07a33,33,0,0,1-5.39-3,44,44,0,0,1-4.85-3.51,11.69,11.69,0,0,1-2-2.58c-1-2.09,1.91-3.23.55-5.61-.55-1-2-2.06-3.74-3.43-1.51-1.23-3.8-3.73-7.42-4.66-1.9-.5-.66.48-2.81-.81a27.26,27.26,0,0,0-4.2-1.36c-2-.54-4.07-1.1-5.21-1.45-2-.64-3.52-1.47-5.52-2.07-.5-.15-1.82.14-2.18,0-.86-.27-1.78-1-2.64-1.26-3.81-1.18-10.13-3.56-15.74-5.32-.49-.16-1.8.16-2.15,0-1.71-.51-3.69-1.75-5.43-2s-3-1.33-6.28-2.32c-.92-.29-2.42-.12-3-.28-4.49-1.27-8.92-3.42-15.09-5.29-1.17-.34-2.53-.16-3.8-.45-7.27-1.79-14.88-4.65-14.69-8.15.05-.68,1-1.8,2.78-2.66,1.35-.66,6-.25,2.82-2.61a17,17,0,0,0-3.47-1.83,41,41,0,0,0-4.79-1.66c-.87-.25-1.76-.5-2.67-.74l-2.73-.61c-1.82-.4-3.62-.69-5.28-.94s-2.47.16-4.78,0c.36,0-.37-.83-.82-.65-1.18.44-4.12.28-7.38,0-1.64-.09-3.36-.26-5-.35s-3.16-.12-4.42-.11c-.19,0-.12.46-.95.41-.46,0-1.25-.52-.88-.55-2.47.22-3.5,1-5.54,1.13-1,.06-2.19,0-3.49-.07s-2.64-.07-3.76,0c-7.12.33-13.36,2.26-19.75,2.18-1.58,0-2.53-.35-3.75-.44a11.44,11.44,0,0,0-2.17,0,18.24,18.24,0,0,0-3.35.68c-1.27.36-2.28,1.22-3.66,1.29l-3.39-.34a27.62,27.62,0,0,1-3.71-.53c-3.77-2,.79-9.09-8-4.52-1.09.57-1.36,1.47-2.48,2.08s-3.53,1.1-4.57,1.65a11.35,11.35,0,0,0-2.44,2.12c-2.22,1.16-5.92,2.09-8.08,3.23-.42.22-.33,1-.66,1.19-1.28.7-3.3,1-5.35,2.11-1.11.57-2.06,1.36-3.34,2a11.81,11.81,0,0,1-2.7.9c-3.07,1.69-3.06,3.07-5.77,3.52a1.88,1.88,0,0,1-1.54-1.49c-4.94.48,2.64.06-1.78.64-1.2.15-1.72-.19-3,.11-.94-.39.69-1.38,1.09-2.48.29-.75-.35-1.83.07-2.58,1-1.69,4.21-3.36,3.75-3.9-1.36-1.58-4.2-.62-6.95,1a72.2,72.2,0,0,0-6.51,4.67c-2.31,1.64-4.51,3-6.72,4.54L303.46,606l-3.58,2.62c-.63.46-1.24,1-1.86,1.49s-1.23,1.13-1.88,1.72c-1.29,1.22-2.73,2.46-4.37,3.84-1.12.93-1.63,1.3-2.21,1.85-1.18,1-5.52,4.57-8,6.68-1.05.93-2.42,2-3.59,3,.14-.11.11.9-.49.93-2.21.11-1.55,1.09-2.84,2.61-1.46,1.7-2.9,2.08-5.32,4.39-.34.34-.85,1.72-1.1,1.94-1.61,1.45-3.58,2.8-5.73,4.44-1.8,1.38-4.09,2.84-6.23,4.29l-2.35,1.57c-.76.51-1.58,1-2.35,1.47-1.55,1-3.21,1.87-4.91,2.78-.85.46-1.78.84-2.72,1.26a30.93,30.93,0,0,1-3,1.2c-1,.36-2.13.73-3.28,1.08s-2.39.6-3.69.89a45.89,45.89,0,0,0-4.89.21,39.63,39.63,0,0,1-4.87.44c-.9,0-1.82.1-2.75,0s-1.87-.1-2.8-.17l-2.7-.22c-.87-.11-1.71-.27-2.48-.41-1.55-.28-2.87-.56-3.79-.83a37.27,37.27,0,0,1-3.94-1.52,12.34,12.34,0,0,1-2.37-1.51,3.46,3.46,0,0,1,1.28-6.11,21.76,21.76,0,0,0,3.18-.39c.75-.5-.08-1.76.4-2.37.25-.31,2.43-.69,2.13-1.11a4.12,4.12,0,0,0-2.11-1.36,13.9,13.9,0,0,0-1.59-.44c-.57-.17-1.17-.31-1.8-.44s-1.28-.25-1.93-.35-1.32-.19-2-.33c-1.27-.24-2.51-.43-3.55-.6-4.42-.88-8.64-2.9-12.36-3-1.11.07-7.77-3-11-4.36-1.12-.44-2.5-.76-3.87-1.26-.79-.31-1.72-1.3-2.49-1.6-.33-.12-1.13.36-1.35.26-1.38-.64-3.28-2.41-4.91-3.32s-2.6-.73-3.78-1.47c-1.59-1-2-2-3.72-3.23-1.25-.93-2.76-1.68-4.5-2.78-.85-.52-1.73-1-2.59-1.61s-1.64-1.27-2.4-1.94c-.35-.32-.7-.64-1.05-1a14.61,14.61,0,0,1-1-1.09c-.65-.74-1.28-1.52-1.91-2.29s-1.14-1.65-1.72-2.46-1.14-1.61-1.63-2.45l-1.43-2.23c-.51-.75-.92-1.59-1.4-2.41a47.66,47.66,0,0,1-2.52-5.06c-.4-.84-.64-1.71-.94-2.53s-.54-1.61-.72-2.38a19.14,19.14,0,0,1-.5-4c.11-1.47,1.18-.44,1.68-1.42s.46-3.53,1.78-3.37c.81.1,2.81,1.55,3.67,1.26.13,0,.23-1.23.77-1.08a16.29,16.29,0,0,1,1.78,1.24l1.21.88c.41.26.77.47,1,.6.89.44,1.38.56,2.29,1.09s1.42.8,1.95.61,1-.87,1.55-2.38l.63-1.63a8.11,8.11,0,0,0,.58-1.66,5.61,5.61,0,0,0-.06-1.31c0-.54-.09-1.17-.17-1.81a17.64,17.64,0,0,1-.15-3.62,10.32,10.32,0,0,1,.46-2.27,7.71,7.71,0,0,0,.35-1.64l.26-3.4c.12-1.27.26-2.62.4-4s.38-3,.56-4.51c.25-2,.38-3.94.47-5.66.13-2.68-.38-4.74-.35-6.73.05-4.64-.1-9.16-.17-13.32l-.1-6.64c0-1.22-.08-2.45-.14-3.68s-.12-2.45-.23-3.7a96.47,96.47,0,0,0-2.2-14.68,62.3,62.3,0,0,0-4.79-13.5c-1.25-2.46-1.89-5.54-4.58-10-2.91-4.78-6.9-8.71-10.82-12.25-3.09-2.84-6-5.73-9.43-7.6-.74-.44-1.35-.3-2.21-.93-.32-.23-1.26-1.31-.72-1-3.19-1.49-4.4-1.19-6.63-2.14-2.89-1.25-8.1-3.33-12.74-4.81s-8.7-2.63-9.31-3c.07,0-.12-.26-.32-.57l-.43-.63c.18.14-.85-1.06-.87-.73,0-.78,2.69-.46,2.39-.84-.73-1-2.37-1.82-4.55-2.62-1.08-.39-2.29-.74-3.57-1.07l-1-.24-1.25-.26c-.84-.17-1.67-.3-2.48-.41a72.93,72.93,0,0,0-8-.54l-2.55-.05h-.5a3.91,3.91,0,0,1-.55,0l-1.22-.12a28,28,0,0,1-4.32-.73l-2.63-.65L51.65,438c-3.83-1.2-7.9-2.76-11.43-4.22-3.23-1.35-6.2-2.59-8.69-3.89a24.53,24.53,0,0,1-3.24-2c-.45-.35-.89-.7-1.27-1.05a12.73,12.73,0,0,1-.93-1.11,6.33,6.33,0,0,1-.92-3.5,8.7,8.7,0,0,0-.25-3,7.8,7.8,0,0,0-.56-1.21c-.11-.19-.22-.38-.35-.57s-.21-.4-.32-.6c-.23-.39-.49-.77-.77-1.16s-.48-.83-.75-1.24a18.09,18.09,0,0,1-2.56-6,5.07,5.07,0,0,1,0-1.79,12.7,12.7,0,0,0,.08-1.83c0-.65,0-1.56-.11-2.64v-1.77a16.14,16.14,0,0,1,.06-1.94l.14-2c.08-.69.2-1.39.3-2.05a23.1,23.1,0,0,1,.83-3.64c1.24-3.8,3.79-6.95,5.52-10.81.62-1.54,1.41-3.26,2.12-5.11s1.56-3.83,2.43-5.88l1.34-3.13c.11-.25.24-.57.34-.76l.3-.6.59-1.22a21.22,21.22,0,0,1,1.37-2.44l.73-1.22.87-1.2.84-1.15.42-.58.49-.57,1.94-2.29,2.16-2.27c.36-.38.71-.76,1.09-1.13l1.17-1.12L46.94,347l2.46-2.21c1.58-1.49,3.35-2.94,4.94-4.41S57.48,337.45,59,336s3.2-3,5-4.47c8-6.5,17.42-12,24-17.55,1.41-1.17,2.51-2.95,4.19-4.16,3.73-2.68,7.61-3.89,13.26-8.24l3-2.36,3.19-2.52,6.88-5.45c4.75-3.74,9.72-7.59,14.36-11,2.09-1.54,3.79-2.38,5.62-3.76,2.66-2,4.89-4.31,7.52-6.12,1.21-.82,3-1.27,4.33-2.18,3.89-2.79,7.05-6,10.61-8.46,2.38-1.65,5-3.06,7.33-4.67,2.68-1.82,5.31-3.85,7.77-5.59a77.76,77.76,0,0,1,7-4.36,20.38,20.38,0,0,1,2.48-1.23,5,5,0,0,1,1.24.46c.68-.33,2-2,3.73-2.87,2-1.06,4.63-2.26,7.17-3.28l6.6-2.38,5-1.94c1.05-.39,2.15-.8,3.25-1.16s2.23-.61,3.27-.82c1.71-.33,3.32-.59,4.79-.73a19.24,19.24,0,0,1,3.92.06c2.23.32,3.6,1.24,3.66,3.05,0-.32-.55,1.68-.51,1.64-.38.42-2.14.77-2.54,1.2-1.11,1.26-1.13,2.38-2,3.06-.52.42-2.95,1-4.19,1.8-.33.22-.29,1-.58,1.18s-1.37.27-1.72.53c-1,.75-.89,1.66-1.92,2.69-.64.65-2.34,1.36-3,2.06a22.92,22.92,0,0,0-3.58,4.2c-.62,1.15-.21,1.72,2.59.74a15.45,15.45,0,0,1,3.1-1.6c2.48-.63,4.31-.49,6.06-1s3-1.69,4.74-2.48c2.58-1.12,4.81-1.28,7.54-2.63a13.65,13.65,0,0,1,5.08-1.8c2.67-.6,4.3-1.76,7.67-2.79,3.71-1.09,7.64-1.78,11.45-2.81,4.06-1.13,8-2.49,12.31-3.51,1.19-.27,2.42-.54,3.67-.77l4-.71c3.07-.54,6.16-1.11,9.05-1.89,1.69-.43,3.29-1.39,5.1-1.9,2.51-.66,4.8-.8,7.3-1.51a80.32,80.32,0,0,0,11-4.18c1.09-.5,2.55-1.06,4.22-1.71s3.59-1.32,5.57-2.13c6.61-2.59,17.21-6.39,23.88-10.09,1.76-.95,2.84-2.07,4.36-2.85,1.87-.94,4.44-1.81,6.56-2.83,3.84-1.9,7.64-4.57,10.64-6,2.61-1.2,11.09-3.52,15.51-7.27,2.41-2,9.5-5.29,15.57-9,1.71-1,2.1-1.69,3.23-2.37,1.85-1.12,4.57-2,6.25-3,1.35-.87,1.68-2,2.93-2.82,1.77-1.11,3.75-1.58,5.35-2.59,5-3.19,9.43-6.66,13.81-9.38,2.89-1.8,6.46-3.43,10.24-5.6,5.44-3.12,11.85-7.71,16.54-9.75,2.84-1.26,7.55-2.31,8.58-2.09,1.32.28,1.86,2.83,2.67,2.91,1.24.13,3.56-.46,5.75-.93a38.67,38.67,0,0,0,5.37-1.33c.9-.32,1.87-.73,3-1.26s2.5-1.21,4.14-2a11.46,11.46,0,0,1,2.14-1.49,7.77,7.77,0,0,1,2.51-.57c1.23-.64,1.61-1.64,2.69-2.14a21.79,21.79,0,0,1,2.35-.9,15.77,15.77,0,0,0,2.17-.78c1.15-.54,2.17-1.51,3.38-2.1.86-.4,2-.48,2.88-.79a12.24,12.24,0,0,0,1.67-.89,16.59,16.59,0,0,1,1.61-.84c2.64-1,4.94-.85,7-1.77.36-.14,1-.92,1.22-1a15.75,15.75,0,0,1,2.93.19c.8-.07,1.61-.49,2.39-.62.52-.1,1.14.47,1.63.38.2,0,.67-.8.8-.78a20.66,20.66,0,0,1,4.48,1.25,31.16,31.16,0,0,1,6.12,2.08c2.23,1.15,4.36,2.72,5.36,4.81-.3,2.09-2.16-1.69-2.71-.58.86,1.52,1.74,1.55,2.5,3.07.8,1.68-.18,2.33.82,3.66s3.38,2.53,4.52,3.73c1.92,2,3.62,4.87,5.74,7.5,1.49,1.87,3.34,3.3,4.77,5.28a127.8,127.8,0,0,1,7.42,11.46,99.81,99.81,0,0,1,6.28,12.82c.57,1.43.22,2.13.68,3.68.72,2.47,2.09,4.66,2.5,6.76a17.6,17.6,0,0,1,.26,4.42,23.35,23.35,0,0,0,.09,4.08c.77,5.13,3.34,11.38,4.08,16.78a15.47,15.47,0,0,1,.06,2.17,10,10,0,0,0,0,2.06c.15.81.3,1.59.47,2.35l.6,2.55c.47,2,1,4.32,1.57,6.74.58,2.79,1.23,6,2,9.31a72.85,72.85,0,0,0,3.29,10.29c2.53,6.25,7,12.83,10.7,18.14,2.87,4.3,5.1,9.3,10,13.92a57.69,57.69,0,0,0,13.15,8.64,89.37,89.37,0,0,0,17.13,6.18c-.12,0,.43-.47,1.46-.15a62.91,62.91,0,0,0,9.08,2c1.62.26,3.25.45,4.88.61l3.18.31a73.86,73.86,0,0,1,9.81,1.48c1.18.28,1.19.93,2.41,1.19a26.32,26.32,0,0,1,4.83,1.72c1.09.54,2.26.39,3.09.85,2.59,1.4,4.3,2.4,7.31,4.18,1,.62,1.35,1.55,2.53,2.38l2.19,1.39,1.69,1.16a7.35,7.35,0,0,1,.76.54c-.07-.06.65-.45.58-.11-.21.87.56,1.06,1.65,1.32.53.13,1.11.33,1.67.51a3.75,3.75,0,0,1,1.3.91,4.6,4.6,0,0,1,.65,2.1c0,.42.06.86.1,1.32s.11.91.18,1.46c.48,2.49,1.33,5.85,2.05,10a100.38,100.38,0,0,1,1.46,14.16c.05,1.68,1,5.69-.77,6.29.06-1.85,0-3.73,0-5.62s-.34-3.66-.58-5.45c-.59-3.49-1.27-6.92-2.07-9.9a7.37,7.37,0,0,1-.11-1.62,6.48,6.48,0,0,0-.23-1.55c-.41-1.33-1.5-2-2-3a3.48,3.48,0,0,1-.27-1.22,3.94,3.94,0,0,0-.3-1.42c-.23-.42-.93-.72-1.28-1.51a4,4,0,0,1-.45-1.28,3.33,3.33,0,0,0-.48-1.13,8.18,8.18,0,0,0-3-2.47l-.4-.18a1.57,1.57,0,0,1-.24-.13l-.45-.29c-.61-.38-1.22-.8-1.78-1.13-1.14-.73-2.19-1.38-3.16-2a14,14,0,0,1-2.12-1.42c-.36-.42.18-1-.55-1.48s-1.2.31-1.55.19c-.77-.27-.69-.94-.83-1-2.63-1.1-5.39-2.39-8.61-3.52A43.3,43.3,0,0,0,653,306.65a20.67,20.67,0,0,0-3.51.09l-.87.06h-.65l-.82,0a31.88,31.88,0,0,1-3.23-.23,78.09,78.09,0,0,1-9.56-1.79,92.7,92.7,0,0,1-9.28-2.93,134.85,134.85,0,0,1-16.48-7.7c-.55-.3-1.35-.69-2.28-1.14l-3-1.59c-1-.59-2.08-1.2-3-1.78a22.13,22.13,0,0,1-2.12-1.57c-.63-.55-.26-1.4-.65-1.83-1.28-1.47-2.42-2.49-3.48-3.57a19.11,19.11,0,0,1-2.85-3.89c-.63-1.1-1-2.28-1.63-3.62a22.41,22.41,0,0,0-1.15-2.18,30.36,30.36,0,0,0-1.61-2.63,85.1,85.1,0,0,1-6.92-11.23,76.6,76.6,0,0,1-3.15-9.21c-1.39-4.1-2.73-8-3.88-11.82a88.24,88.24,0,0,1-2.66-10.85,14.82,14.82,0,0,1-.12-2.62,19.3,19.3,0,0,0-.18-2.9c-.51-2.88-1.82-6-2.78-9.44-.36-1.34-.35-3.64-.74-5.1a30.73,30.73,0,0,0-1.63-4.56,4.43,4.43,0,0,1-.24-3c0-.14.58-1,.56-1.17-.18-1.17-1.61-2.91-1.7-4,0-.44,1-.89,1-1.38,0-.26-.59-4.45-.88-5.43-.38-1.41-1.73-3.32-2.7-5.6-1.54-3.51-1.46-5.38-4.15-9.88-.33-.56-1-.55-1.28-1.31-.2-.48-.89-2-1.76-3.69a43.44,43.44,0,0,0-2.84-4.86c-1-1.42-2.61-2.52-3.66-3.84a37.84,37.84,0,0,1-2.29-3.28,42.7,42.7,0,0,0-2.68-3.65,47.45,47.45,0,0,0-7.82-7.1c-2.25-1.77-4-3.31-4.91-5.61-.33-.81-.69-.51-.71-1.27s.34-.43.1-1.15a4,4,0,0,0-1.18-1.82,6.52,6.52,0,0,0-.9-.65,10.77,10.77,0,0,0-1.12-.48c-.33-.13-.87.11-1.17-.15-.1-.09.33-.54-.21-.67a4,4,0,0,0-1.65,0l-.82.06a2.91,2.91,0,0,1-.78,0c-1.93-.31-3.8-1.2-5.6-.86a3.92,3.92,0,0,0-1.36.63,4.68,4.68,0,0,1-1.26.64c-1.44.32-3.34.29-5.06.82-.45.15-.92.34-1.37.53l-.67.29-.69.35-1.37.68c-.46.25-.93.5-1.39.72-.88.42-2,.78-3.27,1.41-.91.5-1.8,1.5-2.52,1.84-2.58,1.17-5.55,1.87-8.06,3.15-1.14-1.13,1.7-1.71.57-2.84-3.32,1.65,0,2.91-.94,4-4.73,1.83-9.83,4.58-14.1,6.33-2.87,1.17-3.94,1-7.51,1.33-3.35.33-3.72.34-6.73-.64a23.72,23.72,0,0,0-2.82-1.15c-1.53.26-4.24,2.32-7.63,3.88-1.61.74-3.52,1-4.61,1.61-5.93,3.14-12.57,8.33-19.47,12.81-3.59,2.32-7.29,4.17-10.14,6-2,1.31-3.88,3.4-5.48,4.34-2,1.18-4.32,1.53-6.51,2.67a47.92,47.92,0,0,0-8.45,5.34c-.89.75-1,1.62-2.18,2.29-1.65,1-4.46,1.24-5.75,2.05-3.15,2-5.77,5-9,6.89-4.2,2.51-9.9,4.8-15.56,7.06s-11.21,4.56-15.15,7.25c-1.06.75-4.85,2.13-8.76,3.61s-8,3-9.41,4.35c-1.75,1.55-.1.71-4.85,2.13a42,42,0,0,0-6.16,2.28c-1.87.83-3.64,1.76-5.61,2.8-3.28,1.64-2.15.23-5.29.91-.57.12-5.86,2.12-8.14,2.93-1.51.57-2.61,1.45-4,1.86-2.84.77-6.79,1.05-9.63,1.76-3,.82-5.6,2.08-8.45,2.71-1.68.35-2.88-.23-5.51.24-1.39.26-1.46.91-3.41,1.47-1.24.36-4.09.44-5.32.86a41.22,41.22,0,0,0-4.26,1.72c-4.31,1.92-11.77,3.46-19.66,6.19-1.63.57-2.15,1.28-4,2-1.44.58-3.54,1.23-5.91,1.92s-4.88,1.56-7.28,2.44c-1.22.43-2.43,1.07-3.85,1.68a51.19,51.19,0,0,1-4.82,1.81c-1.09.38-3,1.19-3.09,1.2-.93.23-1.32-.37-1.91-.29-2.4.33-2.28.71-4.36.26-.25-.06-1.83-.18-1.9-.22-1.8-1.14-2-4.61-1.53-5.62.2-.39,2.73-1,3.14-1.37.7-.63.63-2.13,1.56-3.17.44-.5,1.79-.93,2.29-1.41s.73-1,1.31-1.53c2.2-2,4.77-3.61,6.72-5.4s3.64-3.59,5.14-5.13a16.08,16.08,0,0,0-5.28,1.07c-1.78.63-3.56,1.44-5.43,1.92a18.15,18.15,0,0,1-2.78.41,12.85,12.85,0,0,0-2.74.59c-2.18.82-3.54,2.18-5.63,3.24a40.56,40.56,0,0,1-5.4,2.19l-1.43.49-1.38.57c-.92.38-1.82.78-2.69,1.22a93.85,93.85,0,0,0-10,6c-1.92,1.39-3.46,3.26-5.17,4.43s-3.51,1.48-5.12,2.69c-1.14.86-2.6,1.91-3.81,3a29.86,29.86,0,0,1-2.73,2.88c-2,1.46-4.61,2.29-6.74,3.72-1.75,1.17-2.41,2.41-4.34,3.9-4.37,3.41-10.21,6-13.37,9.43-.8.85-.87,1.57-1.86,2.41-2.32,1.95-5.27,3.4-8,5.41-1.86,1.4-2.5,2.62-4.21,4.06-1.19,1-1.63.54-2.64,1.25-.8.55-2.77,3-4.16,4.08-1.18.87-1.77.55-2.61,1.26-1.42,1.19-2.11,2.59-3.39,3.58s-2.59,1.25-4.25,2.43c-1.11.79-2.57,2.41-3.7,3.22-2.66,1.9-5.55,3.34-8.19,5.23-1.66,1.19-2.78,2.64-4.46,3.77s-3.47,1.87-5,3c-5.4,4-10.69,9.2-15.84,12.22-.7.42-3.52,2.12-3.24,1.89-1.37,1.09-1.83,2.37-3,3.6a64.76,64.76,0,0,1-5.12,4.49l-2.56,2c-.84.67-1.66,1.36-2.52,2.09a44.59,44.59,0,0,0-4.44,4.47c-.68.77-1.26,1.55-1.9,2.3l-.95,1.1L43,357.75l-1.56,1.86c-.44.61-.9,1.22-1.38,1.82a19.5,19.5,0,0,0-1.28,1.81l-.62.9-.31.45-.25.45c-.34.61-.69,1.21-1,1.81-.42.81-.87,1.77-1.29,2.65-.9,1.8-1.66,3.61-2.43,5.43C30.46,380.82,30,385.25,28,389.79a15.65,15.65,0,0,1-1.91,2.88,8.8,8.8,0,0,0-1.73,3.43,26.31,26.31,0,0,0-.06,6A40,40,0,0,0,25.39,408,21.52,21.52,0,0,0,27,413.16c1.39,2.89,4.94,5.39,5.58,6.78a4,4,0,0,1-.72,2.34c-.45.88-.91,1.74-.69,2.19.23.61,2.63,2.48,5.4,4.08l2.1,1.12c.7.34,1.39.64,2,.9a11.37,11.37,0,0,0,2.53.89c1.49.16,3.15,1.35,6.35,2.24,1.17.31,2.52.07,3.55.31s1.89.53,2.87.83l3,.91c1,.32,2,.58,3,.84l1.5.35a2.56,2.56,0,0,0,.54.09,3,3,0,0,0,.44,0c1.62.08,3.68-.5,6.34-.44,1.6.05,3.66.61,5.78.92l1.29.17c.43.06.87.11,1.14.12.61.05,1.19.07,1.72.09a14.61,14.61,0,0,1,2.71.21c.51.12,2,.57,3.55,1.07a31.24,31.24,0,0,1,3.62,1.37l.72.57c.42.33,1,.8,1.53,1.27a22.11,22.11,0,0,1,2.26,2.07c.73,1.85-3,1.34-.91,2.73,1.25.89,5.35,2.56,10,4.35a9.17,9.17,0,0,0,2.68.53,10,10,0,0,1,3.08.62c1.28.47,3.94,2.33,7.18,4.19.49.28,1,.5,1.43.71s.92.44,1.37.64a14.92,14.92,0,0,1,2.77,1.51c3.57,2.51,7.07,6.46,11.13,10.83.42.44,2.08,1.26,2.32,1.6a21.17,21.17,0,0,1,1.8,2.76c.53,1,1.05,2,1.61,2.89a25.68,25.68,0,0,0,1.94,2.85,18.51,18.51,0,0,1,1.66,2.61,72.23,72.23,0,0,1,4.55,11.89c1.07,3.8,1.93,7.47,2.77,11.15.38,1.64.78,3.31,1.14,4.84a34.52,34.52,0,0,1,.68,4c.18,2.65-.3,4.47-.17,6.54a31.62,31.62,0,0,0,.62,4.37,18,18,0,0,1,.47,3c.06,1.67-.45,3.46-.39,5.33s.53,3.7.65,5.85c.08,1.62-.4,4.09-.39,6.41,0,2,.53,2.38.4,4.59a30.53,30.53,0,0,1-.73,4.62l-.54,2.46-.24,1.12c-.06.29-.12.58-.17.89a39.36,39.36,0,0,0,.13,4.08c-.22,2.33-1.08,5.65-1.07,8.45a8.45,8.45,0,0,0,.41,1.9c.09.3.18.59.24.87a3.26,3.26,0,0,1,.15.77,12.27,12.27,0,0,1-.16,2.07c-.06.69-.11,1.39-.12,2.16,0,2.09.46,4.39.56,3.94a8.05,8.05,0,0,1-4.59,5.45c-1.1.4-2.43-.43-4-.92-.92-.27-1.34.11-2.08-.15-1.81-.65-2.06-.72-5.15-.21-1,.16-1.59,0-1.9.18s-.38.82-.2,2.55c.27,2.9,1,1.36,2.69,5.36.57,1.1,1,2.26,1.56,3.48a29.47,29.47,0,0,0,2.09,3.64c.72.91,1.62,1.81,2.45,2.69s1.76,1.61,2.37,2.37a8.48,8.48,0,0,1,.84,1.2c.25.38.47.74.68,1.1a7.39,7.39,0,0,0,1.42,1.87,13.26,13.26,0,0,0,1.94,1.4c.77.5,1.63,1,2.51,1.54,1.76,1,3.62,1.86,5.06,2.49a15.64,15.64,0,0,1,2.66,1.29c2.32,1.42,3.16,2.85,5.33,4.29a48.4,48.4,0,0,0,5.42,2.4,58.44,58.44,0,0,0,5.45,2.22c1.18.26,2.53-.37,4.27.26a28.26,28.26,0,0,1,3.68,1.57c1.12.54,2.17,1.07,3.22,1.61a23.42,23.42,0,0,0,3.27,1.43,15.84,15.84,0,0,0,3.82.91,16.12,16.12,0,0,0,2.76.5c.25,0,1-.62,1.17-.61,1.37.09,1.41,1.06,2.46,1.24.65.1.89-.64,2-.42,2.2.33,4.39.88,6.45,1.25,1,.2,2,.52,2.91.73a17,17,0,0,1,2.52.78,6.92,6.92,0,0,1,3.26,2.19c.57.91.55,2-.39,3.45a12.76,12.76,0,0,1-1,1.42l-.13.2-.32.46a3.36,3.36,0,0,1-.63.74c-.6.31-4.6.4-5.23,1-.08.09,1,1.42.82,2,0,.15-.57.41-1,.73s-.73.66-.31,1.07c.83.74,1.74.24,3.2.78.28.1.84,1,1,1.05a45,45,0,0,0,6.81.56c1.38.06,2.78-.06,4.08-.1s2.48-.07,3.5-.2a34.44,34.44,0,0,0,4.12-.8c1.48-.45,3.11-.85,4.87-1.32a47,47,0,0,0,14.45-6.05c1.28-.88,3.23-2,4.46-3,1.09-.84,2.1-2.19,3.09-3l9.41-7.4c2.72-2.16,4.89-3.89,6.1-5.11,2.32-2.33,3.36-4.87,4.92-6.29a47.6,47.6,0,0,0,4.84-3.06c.67-.54,1.62-2.06,2-2.3,1.17-.81,2-.41,2.73-1,1.06-.87.28-1.12,1.79-2.69,1.09-1.13,2.87-1.58,4-2.71,1-1,1.91-2,2.79-3a31.22,31.22,0,0,1,2-2.6c.83-.71,2.59-1.06,3.54-1.68.46-.3,1.05-1.47,1.39-1.69a23.56,23.56,0,0,1,2.59-1.42,19.28,19.28,0,0,0,2.62-1.4c3.4-2.36,6-4.8,9.05-6.73,2.25-1.33,4.37-2.56,6.24-3.45a12.6,12.6,0,0,1,4.71-1.4c1.37,0,.56,1.09,1.54,1.51.59.25,1.73-.27,2.17.31,1.76,2.31-1.33,6.6-1.32,8.52a19.05,19.05,0,0,0,5.2-2.64,41.53,41.53,0,0,1,4.21-2.84c2.43-1.24,5.14-2,7.22-3,3-1.58,5.41-3.6,7.76-5,.89-.54,1.91-.69,2.73-1.18.61-.38,1.13-1.06,1.67-1.4s2.05-.68,2.75-1.15c1.65-1.08.6-.93,5.41-2.74,4.27-1.61,4.08-1.63,6-.34,1.59,1.1,1.43,7.39,4.69,7.81a8,8,0,0,0,4.14-.9,24.57,24.57,0,0,1,5.08-1.86,3.47,3.47,0,0,0,2,.19c.88-.3,1.55-1.06,3.77-.53,2.68.61.28,1.64,3.19,3,5.41-.75,10.15-.51,14.85-.77,1.41-.08,2.33-.8,3.75-.92a37.35,37.35,0,0,1,4.43-.09c1.59.08,3.26.15,5,.13,6.14,0,12.52-.2,20.92,1.28a3.32,3.32,0,0,1,2,0c.35.15-.22.52.83.68,1.52.22,2.46-.22,4,0,.48.06,1.72.27,3.36.59s3.64.81,5.68,1.33a57.44,57.44,0,0,1,9.58,3.15c.3.17,1.06,1.21,1.5,1.56,2.91,2.25,3,6.08-1,8.32-1.79,1-2.06,1.55,2.68,3.54.69.3,1.59,0,2.79.54a33.76,33.76,0,0,0,6.11,2.43c3.32.88,5.63.82,6.66,1.22,5.54,2.19,2.18,2.8,7,3,3.67.21,11.84,3.88,18.48,5.88,3.54,1.05,7.17,1.93,11.36,3.26,1.74.56,3.93,1.66,5.5,2.08,1.37.37.57-1,1.5-.89a46.65,46.65,0,0,0,5.51,2.06A74,74,0,0,1,552.18,625c2,.88,2.83,1.89,4.16,2.54,4.44,2.16,8.22,3.15,10.75,6.85a11.48,11.48,0,0,0,.46,1.29c2.05,1.61.78.87,1.82,3,.2.41,1.3,1.5,1.36,1.72.6,2.3-1.48,3.37.85,5.17a15,15,0,0,0,3.49,1.64c1.64.59,3.66,1.21,5.74,1.82s4.3,1.13,6.26,1.64l5,1.19c2.67.7,4.39,1.2,5.82,1.6a12.54,12.54,0,0,0,4.34.52,8.13,8.13,0,0,1,2.85.33,24.58,24.58,0,0,0,4.34.85,31.42,31.42,0,0,1,3.22-.11,19.83,19.83,0,0,0,3.22-.2c1.55.1,3.46,1,5,1.11,1,0,2-.41,3.2-.42,1.56,0,2.47.26,4.09.18,2.39-.16,5.21-.76,6.19-.72,1.65,0,1.67.62,3,.67s2.58-.17,3.87-.1a3.5,3.5,0,0,1,3.17,1.32c.72,1.08,2,1.57,2,2,.29,1.81-1.82,2.52-6.36,4.68-.14.06-2.39.65-4.49,1.34s-4,1.39-3.39,2c1.33,1.21,3.42,1.06,5.9.64s5.33-1.39,8.37-1.91c5.3-1,14.09-1.42,16.78-3.95a6.23,6.23,0,0,1,3.33-1.12,15.4,15.4,0,0,0,4.7-1.5c.3-.14,1.8-1.27,1.86-1.31,1.38-.49,3.78-.41,5-1s.27-1.29,1.67-1.86c1.08-.44,3.66-1.31,3.83-1.39,2.73-1,6.41-1.45,7.76-2.12s-.3-1.08.56-1.66,4.92-1.71,6.5-2.53c.63-.3,1.53-2.28,5.31-2.8,3.06,1.3,2.23,3.14-.31,5.18-.59.47-.61,1.18-1.59,1.56-.37.15-1.68-.15-2.07.17s-.16,1.26-.52,1.68c-.82,1-4.13,2.82-4,4.27a16.22,16.22,0,0,0,5.58-2.75c.37-.23,1.68-.38,1.94-.64.69-.68.48-1.36,1.45-2s3.44-1.25,4.59-2.11c2.67-1.93,4-4.68,8.16-6.62,1.73-.84,4-.84,4.76-1.35,1.7-1.09,1.83-2.48,3.67-4,.3-.26,1.35-1,2.8-2,1.63-1,3.77-2.3,5.83-3.72a38.89,38.89,0,0,0,5.55-4.85c1.6-1.63,2.82-3.16,3.81-4l.6-.19c.36-.1.8-.25,1.27-.41a5.76,5.76,0,0,1,2.27-.48c1,.47-.1,1.84,0,2.78,0,1.12-.26.3.38.29,2.23-.05-1,3.3-2.37,6-.48.94.35,2.2-.21,3.48a23.7,23.7,0,0,1-1.73,2,17,17,0,0,1-1.06,1.48c-.44.49-.94,1-1.49,1.57a32.45,32.45,0,0,1-3.92,3.27C735.62,644,734,645,732.48,646c-1,.81-2,1.59-2.81,2.34-1.48,1.33-2.38,2.82-3.73,4.07-.75.69-3.74,2.15-4.16,3.17-.08.2.56.71.35.9-1.93,1.55-5.44,2.79-7.17,4.22-2.12,1.79-1.26,2.55-3,4.12,1.39,1.42,3.45-1.21,5.25-.87,0,.73-2.88,1.22-2.63,2,1.45.38,3.46-1.34,2.63-2-1.79-1.36,5.11-2.67,6.42-3.44,1-.57.4-1,1.54-1.64,1.41-.75,3.34-1.08,4.7-1.85s2.57-1.59,4-2.55l1.07-.74.55-.37,1-.52c1.31-.71,2.63-1.45,4-2.2.87-.55,2.56-1.43,4.57-2.6,1-.64,2-1.35,3.1-2.1s2.12-1.68,3.17-2.55,2-1.9,2.88-2.83,1.65-1.95,2.35-2.85a19.27,19.27,0,0,0,2.56-4.36c.27-.89-.85-1.07-.32-2.15.37-.75,1.17-1.85,2-3.28.4-.71.86-1.47,1.26-2.31s.76-1.72,1.1-2.63c1.26-3.59,1-7.64,1.45-10.75.27-1.73,1.66-4.68,1.69-6.08a28.74,28.74,0,0,0-.46-3.67c-.09-.71.06-2.4-.11-3.48-.08-.47-.82-.8-.87-1.19-.06-.6.29-1.67.17-2.2a50.83,50.83,0,0,1-1.08-7.47c-.11-1-.54-3.05-1-5.6s-1.16-5.63-1.75-8.67c-1.22-6.1-2.43-12.07-1.22-14.19,1.68-2.82,2.36-2.23,4.75,2.62.55,1.11.14,1.29.72,2.11s.6,3.36,1.84,4.23a18.37,18.37,0,0,0-.21-3.8,17.5,17.5,0,0,0-.91-3.59c-.81-2.31-1.78-4.47-2.57-6.53s-1.91-4.1-2.7-6.15c-1.91-4.5-3.48-8.66-6.07-12.93-.45-.76-1-1.54-1.56-2.32a19.16,19.16,0,0,1-1.57-2.24c-.81-1.41-1.12-3.55-1.93-5-.43-.69-1.62-1.3-1.76-1.55a43.5,43.5,0,0,1-1.93-4.22,37.38,37.38,0,0,0-2.19-4.33c1.3-1,1.65-2.8,3.75-3.2a19.3,19.3,0,0,0-3.49-4.27c-1-.94-1.8-.95-2.89-2s-2.18-3.18-3.28-4.22c-.93-.89-2.13-1.08-3-1.83-1-1-2.12-1.88-3.18-2.81s-2.14-1.86-3.3-2.76c-2.43-1.84-5.16-3-6.4-4a22.74,22.74,0,0,1-1.82-2.14,22.66,22.66,0,0,0-2.22-2.41,3.94,3.94,0,0,1-3.44-2.32c-1.23-2.43-.16-3.23,1.13-3.7a2.73,2.73,0,0,1,2,.38,26.44,26.44,0,0,1,2.65,1.71c1.82,1.27,3.58,2.52,4.39,2,.18-.58-.62-1-1.42-1.55-.42-.32-1.61-1.36-2.47-2a31.21,31.21,0,0,0-5.37-3c-.86-.43-.9-.76-1.64-1a25.54,25.54,0,0,1-2.89-1.42c-1.24-.69-2.77-1.55-4.2-2.53a39.05,39.05,0,0,1-4.14-3.08,14,14,0,0,1-2.76-3,5.34,5.34,0,0,1-1.27-3.5,7.79,7.79,0,0,1,0-1.14,3.22,3.22,0,0,0-.59-1.53,10.85,10.85,0,0,0-1.57-2,12.52,12.52,0,0,0-1.58-1.25c-.53-.38-1.09-.73-1.65-1.16a8.38,8.38,0,0,1-1.56-1.66,25.11,25.11,0,0,1-1.67-4.06,14.62,14.62,0,0,1-1.11-4.09,5.12,5.12,0,0,1,.43-2.23c.16-.44,1.08-1,1.05-1.69s-.12-1.51-.24-2.37-.22-1.77-.37-2.77a28.4,28.4,0,0,1,0-6.4c.11-1.06.24-2.09.42-3.1s.36-2,.6-3c.49-2.05,1.41-4.29,1.7-5.82.63-3.13.39-6.53,1.15-10.52.18-1,.92-1.87,1-2.72.18-2.26,1.41-6.75,1.52-9.89,2-3.41,0,1.54,2.57-2.9,1-1.68,1.41-1.53.8-3.79-.85-.6-1.65,2.88-2.51,4-.79-1.89.87-5.05,1.13-7.74.21-1.92-.75-6.15,0-8.11.87-2.13.7-.11.66-2.71,0-1-.2-1.66-.24-3.08-.08-2.88.85-8.29.76-12.34,0-1-.49-2.14-.42-3,0-.73.83-1.78.9-2.52a6.82,6.82,0,0,1,.81-5.37c1-.64,1.45,1.42,1.54,1.45.3.1,1.28-1.09,1.65-.4.67,1.23-.18,6.43-.25,9.49,0,.75.33,1.09.27,2-.11,1.7-.3,4.44-.52,6.68l-1.78-.71c-1.66,2.49,1.49,1.23,2,2.78-.27-.89,0,4.76,0,5-.12.83-1.8,5.43-1.29,6.55,1,2.15-.33.42-.69,3.8-.11.88.14,1.78.09,3.16s-.65,3.79-.78,5.94c0,.21-.46,1.79-.42,1.9.8,2.11-.06.24-.91,3.82-.11.47.5.9.41,1.29-.33,1.38-1.26,3.47-1.44,4.67-.3,1.84.39,3.6.15,5.61-.16,1.16-1.24,3-1.61,4.68-.23,1.05,0,2.16-.24,3.25s-1.05,1.92-1,1.68c-.25.89.47.65.33,1.32-.66,3.29-2.35,7.91-2.4,11.48,0,2,.8,3.62,1.13,5.41.11.82-.22,2.3-.09,3a12,12,0,0,0,.74,2c.37.67.74,1.33,1.14,2h0l0,.08.07.16.12.32c.09.21.18.46.26.64s.31.63.46.95c.65,1.34,1,3,2,4.18.16.21,1,.14,1.1.31s.33.46.49.7.38.47.57.71a4.21,4.21,0,0,0,1.58,1.18,20.43,20.43,0,0,1,1.86,1.13l1.34.86c.46.3.89.56,1.26.76,1.39.75,3.34,2.43,5.73,3.67,2.23,1.16,3.13,1,4.16,2s2.13,3.81,3.31,5.2a16,16,0,0,0,2.75,2.38c.51.36,1,.71,1.59,1,.28.18.53.31.85.52l1,.63c2.61,1.7,5.39,3.2,7.68,4.82.63.46,1.78,1.81,2.53,2.29s2.43,1.43,4,2.59,4.06,3.33,6.4,5.32c1,.87,1.49,1.84,2.39,2.63.57.51,1.7,1.32,2.9,2.34a22.85,22.85,0,0,1,1.79,1.65,11.88,11.88,0,0,1,1.45,1.93,18.16,18.16,0,0,1,1.68,3.92c.42,1.32.8,2.64,1.28,4.05-2,0-4.85-4.67-6.68-3a8.81,8.81,0,0,1,2.08,1.7l1.27,1.24c.41.42.82.83,1.22,1.18a46.44,46.44,0,0,1,3.69,4.73c1.59,2.22,3.14,4.72,4.22,6,.44.53,1.59,1.43,1.87,1.82.77,1.19,2.09,5.31,3.51,7.75.9,1.63,2,.43,3.27,5.34,0,.15-.89.13-.91.29a24.22,24.22,0,0,0,.51,2.76,30,30,0,0,0,.73,3.2,7.31,7.31,0,0,1-2.36-1.79,32,32,0,0,1-2.35-2.8c-.77-1-1.55-2.13-2.32-3.2l-1.17-1.56c-.41-.49-.83-1-1.24-1.4-.36,1.3.31,3.08,1.3,5,.51,1,1.1,2,1.68,2.95l.84,1.47c.25.49.48,1,.69,1.43.83,1.88,1.95,3.08,2.88,5.34.8,2,1.09,4.79,1.93,6.84.52,1.3.9,1.22,1.4,2.15.89,1.76,2.29,6.45,3.27,9.12,1.32,4,3.44,8.17,3.34,11.62,0,.12-.42,1.93-.83,3.69-.22.88-.4,1.75-.58,2.38-.09.32-.16.59-.21.77a1,1,0,0,0-.06.28c-.74.44-.85-1.71-2-3.45-2.35-3.56-1.15-.68-2.23-6.82-.16-.75-1-1.65-1.17-2.23-.59-2-1-4-1.49-5.63a53.09,53.09,0,0,0-2.26-5.19c-.77-1.59-1.45-3.08-2.14-4.58-1.3-3-2.12-7.13-3.61-9.7-.53-1-1.49-1.75-2.24-2.91-.57-1-1.79-4.14-2.33-2.82a11,11,0,0,0,1.15,4.45c.64,1.34,1.47,2.59,2.13,3.92.56,1.08,1.18,2.7,1.88,4.18.14.31.65,1.59.91,2.12s1.08.72,1.17.93c.52,1.18.31,3.27.73,4.46.23.64,1,.75,1.12,1,.54,2,.75,3.58,1.21,5.56s1,3.42,1.48,5.56a51.43,51.43,0,0,1,.86,5.11,34.26,34.26,0,0,0,1.08,5c.36,1.35,1.2,2.22,1.43,3.38a33.44,33.44,0,0,1,.51,5.24,40,40,0,0,0,.18,5A92,92,0,0,1,778,605.27c0,1.08.43,3.43.33,4.18-.22,2.62-.87,3.22-1.17,5.75-.17,1.59-.5,3.53-.82,5.53s-.81,4.13-1.34,6.28a32.34,32.34,0,0,1-10.43,17.63c-1.1,1-2.16,1.88-2.94,2.53l-1,.71-.39.27c-.86.13,0-1.45,1.25-4.1.34-.65.7-1.36,1.09-2.13l1.15-2.45c.82-1.68,1.56-3.57,2.31-5.42a81.35,81.35,0,0,0,4.77-18.8l.14-1.21c0-.4.08-.8.1-1.12.05-.68.12-1.38.14-2,0-1.32.1-2.67.09-4,0-2.58-.13-5.08-.37-7.47-.12-1.1-.3-2.12-.49-3.06s-.43-1.78-.56-2.67c-.4-2.52-.31-5-.67-6.56-.26-1.09-.92-2.43-1.48-4.17A22,22,0,0,1,766.67,576.3Z"/><path class="cls-3" d="M314.52,346a1.57,1.57,0,0,0,.43,1c.12-.12.37-1.67.56-1.86s.28.5.76.1.9-2,1.41-2.7c.24-.34.47,0,.8-.38a2.82,2.82,0,0,0,.38-.44c0-.09.18-.91.21-.94.19-.23.35.28.54,0s.47-1.12.69-1.39a2,2,0,0,0,.27-.46c.08,0,.05.59.16.5.31-.25.85-1.25,1.37-1.82s.94-.76,1.52-1.31a5.11,5.11,0,0,0,.41-.93c.19-.09.31.63.49.52.45-.29,1.34-2,1.77-.81.11.29,0,2.09.11,2.41,0,.05.22,0,.22,0a52,52,0,0,1-1.51,6.14c-.29.83-.7,1.39-1.08,2.31a2.32,2.32,0,0,1-.27.46l-.26.46c-.16.44-.26,1.57-.4,1.9-.26.59-.51.32-.75.9s-.42,1.34-.63,1.87c-.12.3-.26.14-.38.45,0,.12,0,.81-.1,1s-.16-.16-.22,0a31,31,0,0,0-1.24,3.26c.34,1.23.89-.19,1.34-.85.73-1,1.34-1.91,2.23-3.18.25-.37.49-.83.91-1.37s.8-1.27,1.27-1.82c.07-.08.19-.56.26-.46s.09.14.49-.44.59.74.31,2.92c-.31,2.51-1.69,3.09-1.74,4.67-.08,2.71,1.45-1,1.7-1.3.46-.56.77-.18.93-.41a8.83,8.83,0,0,0,.3-.94,28.21,28.21,0,0,1,2.14-3.19,9.49,9.49,0,0,1,3.19-3.1c.09.79-.13,2.23-.09,3.37.1,2.61-.72,3.45-1.16,6.16,0,.52.25.6.42.52s.27-.8.39-.93c.3-.33.61-.38,1-.9.13-.18.25-.75.4-.95s.31-.23.47-.47.53-1.14.75-1.41.62-.09.92-.45.67-1,1-1.41.77-1.56.95-1.41c.41.33-.06,1.11.16,1.44.4,0,0-1.33.53-1.9.24-.27,1.08.88,1.27,1.49a10.58,10.58,0,0,1,.28,1.45c.16,1.43-.18,3.74,0,5.28a4.08,4.08,0,0,0,.52,1.46c.2.44.54,1.7,1,1,.24-.37.07-.72.36-.47.14.13.9-1.09,1.18-1.39s.45-.16.69-.46c.07-.08.21-.9.25-.95s.24.13.34,0c.47-.55,1.27-1.09,2-1.85.06-.07.2-.9.24-1,.21-.26.48.06.68-.45s.39-.05.79-.46c.11-.11.28-.86.35-.95.54-.62,1.13-.42,1.9-1,.15-.11.29-.8.45-1,.9-1,1.9-.59,2,2.85a25.54,25.54,0,0,1-.22,3.36c-.13,1-.68,2.16-.23,3.37s1.6,1,2.41.44c.2-.13.28-.71.56-1,0,0,.07.74.12.47.25-1.37,1.42-1.37,2-1.94,0,0,0-.48.11-.48a.82.82,0,0,1,.12.48c.29-.39.4-1.27.65-1.45s.63.06.91,0c.88-.24,1.65-1.57,2.48-.51.4.52.49,1.8,1.17,1.43.16-.09.27-.71.44-.49l.42,1.06a12.8,12.8,0,0,1,.46,1.33c.48,2.77,0,8.65,1,6.21.13-.31.16-1.14.29-1.46s.44-.23.56-.52a10.64,10.64,0,0,0,.29-1.45c.27-.57.73-.53,1-1,.06-.1,0-.89.08-1,.15-.33.41-.09.66-.52.14-.23.26-.71.41-1s.38-.08.35,0c.38-.67.37-2,.72-1.49a9.68,9.68,0,0,1,.21,1.91c.64,1.19-.34-.93.23,0,.16.25.23.77.39.94a7.44,7.44,0,0,1-.13,1.93c0,.61.06,1.84,0,2.4-.12,1.28-.53,1.77-.46,2.43.37,3.9,1.43,0,1.72-.58a31.64,31.64,0,0,1,1.81-3c.34-.57.65-1.72,1.12-2.46a4.38,4.38,0,0,0,.31-.5,10,10,0,0,1,1.17-1.51,3.68,3.68,0,0,1,.54-.51s0-.81.08-.49c.3,1.17.22,0,.42-.5s.42,0,.76-.53c.05-.07.13-.93.16-1,.22-.27.48-.29.76-.52a8,8,0,0,0,.75-.53c.73-.71,1.26-1.82,2.22-2.12,0,0,.31.57.49.44.51-.41,1.56.13,2,.76a5.36,5.36,0,0,1,.85,1.85,22.89,22.89,0,0,1,.57,6.21c0,.26-.25.72-.26,1,0,.62.19,1.72.21,2.39a10.24,10.24,0,0,0-.1,1.46c.4,2,1.22.93,1.67.32s1.08-.43,1.33-2.06c.07-.47.89-1,1.25-1.57.12-.19.23-.7.37-1s.27.16.34,0,0-.92,0-1c.15-.24.49.14.69-.07s.21-.89.36-1,.37.42.63.42.73-1,1.16-1.08.89.32,1.31.36c.74.05,1.63-.86,2.24.25a17.11,17.11,0,0,1,.34,1.89,8.64,8.64,0,0,1,.63,2.34c.07.77,0,2.47.16,3.37a3.09,3.09,0,0,1,.23.93c0,.38-.06,2.55-.07,3.4s0,1.19,0,1.93a8.11,8.11,0,0,0,.57,3.81,18.65,18.65,0,0,0,.7,1.84c.26.39.8.06,1.13.33s.56.82.72.87a6.29,6.29,0,0,0,2.34.17c.27,0,.43-.57.66-.58,2.09,0,4.62-.16,6-3.24.21-.46.57-.13,1-.62s.82-1.62,1.26-2.11.79-.17,1.12-.63c.07-.11.05-.55.16-.51s.24.38.19.46c.3-.47.27-1.3.5-1.52.59-.58,2.28-1.27,2.5-.91,0,0,.27.93.27.93s.25.78.19.45c.14.74-.09,1.19,0,1.47.87,2.73,2.61.77,3.18-.55.44-1,1.75-1.17,2.7-1.92s1.46-2.32,2.1-1.82c.43.34,1.2,2.89,1.53,3.15.75.62,1.2-1,1.95-1.3.18-.08.48.37.67.37.43,0,1.43-.69,2.12-.37s1.45,1.81,2.09,2c1,.35,2.18-.42,3.4-.68a15.81,15.81,0,0,0,3.52-.71c.52-.25.9-1,1.45-1.27,1.2-.6,2.73.14,3.63-.73.19-.19.26-1,.51-1.08.54-.15,1.28,1,2.07.55,1.08-.63,2.49-2,3.76-2.83.29-.18.56,0,.81-.18s.58-1,.95-1.2c.16-.08.51.46.68.33.52-.38.82-1.48,1.3-1.77.32-.19.72-.06,1-.23.73-.41,1.33-1.33,2-1.44.08,0,.24-.2.34-.08s.34.91.34.91.15-.86.35-1.07c.49-.48,1.42-.38,1.85-.42s.88-.66,1.5-.35c1,.53,2,1.8,2.73,5.26-.07-.31.22,1.46.22,1.43,0,.3-.25.23-.23.55,0,.93.25,2,.21,2.42,0,.26-.38.15-.46.61,0,.12.13.88.1,1s-.21-.09-.23.06c0,.44.12,1.28.1,1.95,0,.42-.23.59-.25,1-.06,1.69-.23,4.26.65,4.28.11,0,.12-.64.36-.57s.81.84,1.05.74.27-.82.48-1.11.68-.09.94-.73.11-.64.59-.64.43-.84.82-1.2,1-.39,1.4-.85.82-1.29,1.29-1.8,1.23-.74,1.75-1.43c.15-.2.18-.88.35-1.08s.56,0,.81-.2a4.74,4.74,0,0,0,.92-1.72,3.88,3.88,0,0,1,.92-1.22c.65-.73,1.91-1,2.54-2.12.16-.28.18-.9.33-1.08s.57-.05.81-.21c.44-.29.74-1.22,1.13-1.3s1.74,1.32,2.07-.06c.17-.74,1.19-.53,1.93-1,.21-.14.19-.52.34-.59s.72.41.92.25.05-1,.21-1.05.61.39.81.28c.65-.36,1.11-1.22,1.7-1.46.38-.15,1,.15,1.49.1.78-.09,1.53-1,2.29-.62a5.73,5.73,0,0,1,1.67,2c.37.82.94,3.24,1.15,3.67a8,8,0,0,0,1.2,1.66c.85,1,1.2,1.46,2.11.9,0,0,.06-.52.21-.56s.5.33.47.36c.16-.17.06-.92.2-1.05s.52,0,.69-.2.17-.81.31-1.09.34,0,.45-.13.19-.84.31-1.08c.31-.62.83-.36,1-1.29,0-.16-.05-.94,0-1,.11-.26.43,0,.57-.17a6,6,0,0,0,.19-1c.05-.19.3.11.34-.1s-.16-.92-.15-.95c.19-.42.58-.4.78-.73.49-.81.73-3.3,1.76-2,.65,1.59-.3.39.06,1.48.4.45.32-.15.7.3s.72,1.65,1,1.71.34-1,.53-1.15.87,0,1.25-.35.37-1,.65-1.19a4.58,4.58,0,0,1,3.51-1c.22.06.45.61.72.79.43.28.65-.15,1,.19.61.53,1.29,2,1.84,2.46,1,.9,1.74.25,2.67.7.23.11.64.72.84.75.52.1.84-.43,1.36-.4s1.51.73,2.23.84,1.18-.44,1.84-.05,1.47,2.05,2.08,2.38,1.67-.15,2.64-.28c0,0-.14-.54,0-.5,1.17.48,2.41-.64,3.27-1,.2-.08.4.45.59.32a1.65,1.65,0,0,1,.9-.28c.24,0,.25-.61.43-.63a2.48,2.48,0,0,0,1.46-.45c.18-.12.49.4.71.29s.5-.59.87-.77c0,0-.17-.77,0-.49.75,1.39.41-2,.79-2.25s.88.71,1.44,1.06c1.37.86,2.92.33,4.48.14.26,0,.57-1.06,1.19.64-1.21-.12-2.07,1.05-3.13,1.46-.16.06-.55-.38-.71-.29s-.21.91-.39,1.13-.48-.4-.71-.29-.1.54-.31.6-.61-.35-.82-.25c-.82.39-1.41,1.81-2.17,2.17-.11.05-.29.27-.45.13s-.33-.84-.51-.84.1.89.06,1-.35-.41-.37-.39c-.87.9-2.36.61-3.58,1.6-.34.28-.49,1.13-.85,1.27-1.06.42-2.49-.7-3.12-.07-.14.15-.32,1.22-.52,1.16s-.33-.83-.39-.89c-.41-.4-.42.13-1-.71-.36-.56-.84-1.59-1.23-1.63s-.62.35-1,.3-.75-.59-1.07-.68c-.87-.26-1.37.67-2.16.64-.27,0-.73-.61-1.07-.68s-.82.44-1.36.41c-.21,0-.72-.65-1-.72-.74-.23-.59.74-1.29-.62,0-.07-.36-.86-.39-.88-.22-.21-.32.47-.56.17-.1-.12-.41-1.18-.52-1.35a12.67,12.67,0,0,0-1.09-1.18c-.25-.18-.44.28-.79.24-.55-.07-1-.87-1.63-.52-.08,0,0,.61-.09.53s-1-.36-1.39-.1c-.2.14-.24.91-.42,1.12s-.78.06-1.14.33c-1,.76-1,3.59-2.36,1.67-.24-.34-.11.13-.36-.4a6.21,6.21,0,0,0-.38-.89c-.47-.76-.69-.7-.93-.23-.05.09,0,.6-.1.53s-.17-.61-.24-.43c-.15.34-.11,1.3-.29,1.58-.37.55-1,.24-1.24.85-.12.31-.06,1.33-.18,1.55-.22.43-.65.36-.89.76a13.09,13.09,0,0,0-.64,1.68c-.11.25-.29.3-.44.62s-.1.95-.2,1.06c-.36.38-.92.05-1.26.36-.49-1.4.06-1-.42-2.38-.45.38.56,2.63.56,3.34-.76,0-1.48.39-2.19.13-.48-.19-.78-.82-1.57-2.07a15.29,15.29,0,0,1-1.72-3.51c-.23-.55-.8-2.14-.87-2.25-.32-.46-.62.06-1.16-.18-.27-.12-.67-.75-.83-.77-.89-.1-1.62,1.13-2.51,1.67-.46.28-1,.11-1.37.37s-.34,1.09-.56,1.15-.74-.69-1.05-.71a.93.93,0,0,0-1,.77c-.07.25,0,.93-.09,1s-.79-.88-.94-.74c-.36.35-.41,1.86-.77,2.2-.95.9-3.27-1.17-3.81,1-.15.59-1.95-.12-2,1.48,0,.95.12.63-.47.62s-.79.74-1,1.74c-.21.82-.31-.26-.7-.32a5.09,5.09,0,0,0-.7,1.17c-.11.26-.1.9-.23,1s-.8-.08-1,.26-.33,1.35-.58,1.63-.5-.47-.82-.29,0,.74-.24,1.05-.58,0-.7.18a5.13,5.13,0,0,0-.36,1.07c-.33,1.25-1.31,1.55-2.24,2.55-.19.2-.15.78-.36,1.08-.33.46-1.15.46-1.77.94-.32.23-.62.8-1.2.76a2.14,2.14,0,0,0-.48.11c-.16-.09-.34-.77-.46-.88-.45-.45-.39-.11-.92-1.26l-.46-.88a35.06,35.06,0,0,1-1.21-5.64c0-.28.45.12.47-.1s-.21-1.76-.2-2.42c0-.31.22-.27.24-.55s0-.67,0-1c.1-1.16.31-2,.38-3s0-2.41,0-3.46c-.66-.94-.94,0-1.5-.14-.24-.07-.69-.8-.91-.77s-.33.89-.59,1.12c-.42.35-1.13-.27-1.62-.13a4.82,4.82,0,0,0-1.4.81c-.25.21-.36,1-.6,1.12s-.59-.51-.8-.3a1.61,1.61,0,0,0-.47.6c-.1.22-.1.92-.25,1s-.74-.38-1-.26-.24.81-.49,1.1c-.56.65-1.55-.23-1.87.92-.08.28,0,.84-.14,1-.3.4-.79,0-1.17.27s-.27.82-.49,1.09-.31-.42-.46-.39-.29,1-.49,1.1-.34-.5-.45-.39-.21,1-.39,1.07-.44-.39-.68-.33-.32.54-.49.59c-.4.09-.89-.32-1.28-.24s-.35.62-.61.62-.58-.4-.81-.33c-.8.23-1.5,1.48-2.38,1a3.9,3.9,0,0,1-.57-.38c-.21.07-.21.83-.4,1.06-.52.66-1.13.34-1.77.36s-1.12.68-1.68.82c-1,.26-2.2,0-3.28.17-.88.15-1.34,1.17-2.25.45-.44-.34-1-1.95-1.5-2.16-.31-.11-1.52,1.12-2,1.32s-.76.05-1.19.2c-.7.24-1.44,1.41-1.82.8s-.88-3.83-1.1-4.2-1.94.34-2.05.84-.47.21-.87.63c-.14.15-.18.91-.31,1-.47.44-1.13.23-1.58.75-.3.35-.46,1.25-.72,1.59s-.42,0-.6.1-.4,1-.56,1.07a1.38,1.38,0,0,1-.91-.34l-.47-1c-.23-.54-.47-1.1-.5-1.22-.38-1.49-.08-2.21-.45-2.85a.82.82,0,0,0-1.25-.27c-.22.16-.14,1.11-.37,1.51-.11.2-.51-.18-.84.12s-.25.86-.45,1c-.37.32-.92-.06-1.36.67,0,.07-.07.94-.1,1-.16.2-.42,0-.6.08s-.29.87-.46,1c-.77.75-1.51.93-2.2,1.76-.32.37-.6,1-.84,1.08s-.56-.49-.79-.38c-.43.23-.45,1-.71,1.07s-.55-.41-.79-.38-.42.48-.66.58-.54-.43-.79-.38-.18.57-.42.54-.7-.74-1.08-.82c-.2,0-.36.53-.55.56-.35,0-1-.75-1.44-.78-.22,0-.36.64-.54.56s-.54-.6-.84-.85-.88-.6-.78-.4a25.12,25.12,0,0,1-1.32-6.14,31.08,31.08,0,0,1,0-3.37c0-.79-.1-1.3-.11-1.92a37.27,37.27,0,0,0-.32-4.79c-.2-2-.08-2-.57-2.84s-.12.53-.64.55c-.29,0-.64-.49-1-.39s-.52.64-.76.56-.51-1-.68-.9a3.66,3.66,0,0,0-1.12,1.56c-.09.23-.13.39-.3.51s-.56-.49-.86-.39-.4.66-.6,1a6,6,0,0,0-.6,1,12.34,12.34,0,0,1-.28,2c-.61,1-1.21-.28-1.78,1.14-.11.27-.25.13-.31.51,0,.11,0,.92,0,1-.14.32-.27-.59-.39-.44s0,.88-.15,1c-1.12.73-2.49-.32-2.55-6v-2.9c0-.37.45-.84.45-1.49,0-.08-.24-1.3-.28-1.9a9.38,9.38,0,0,0-.06-1.92c-.15-.64-.19-.06-.38-.44,0-.08-.18-.93-.2-1a2.71,2.71,0,0,0-1.51-.33c-.25,0-.51.55-.87.56a1.77,1.77,0,0,0-1.55.63,3.58,3.58,0,0,0-.53.51c-.14.19-.26.84-.39,1-.89.94-1.82,1-2.18,1.57s-.53,2.11-.76,2.45c0,0-.35-.22-.69,0a9.37,9.37,0,0,0-.29,1c-.16.11-.27-.62-.38-.46s0,.8-.25,1.46c-.15.48-.4.05-.55.51s-.26,1-.38,1.47c-.07.29-.19,1.28-.27,1.46s-.34-.15-.47,0-.13.91-.18,1c-.19.28-.49.16-.67.52-.44.83-.76,2.25-1.15,2.95-.56,1-1.06,1.79-1.37,1a15.36,15.36,0,0,1-.21-1.92c-.08-.42-.22-.27-.28-.94-.25-2.74.12-5.89.1-7.7-.53-.08-.81,1.82-1.16,2.47s-.64.5-.89,1a29.66,29.66,0,0,0-.93,2.94c-.11.32-.24.22-.34.5s-.13.77-.2,1-.25.2-.33.5a2.49,2.49,0,0,1-.66,1.45c-.52.63-.5.7-.74-.95-.21-1.41-.23-7.52-.63-8.63-.35-.95-.63.77-1.13,1,0,0-.15-.65-.24-.48s-.19.75-.47,0c-.34-.91-.05-1.66-.43-3.35-.66.22-1.26-.27-1.83,0-.17.08-.27.77-.44,1-.32.36-.73.19-1.14.5-.74.55-1.49,1.64-2.51,1.95,0,0-.11.67-.23.48s0-.56-.12-.48-.28.77-.46,1-2,1.09-2.32.51c0-.06-.16-.78-.23-.95-.42-1.15-.58-4.72-.21-8.16.16-1.57.17-2.2-.45-2.39-.09,0-.18.59-.34.48a.53.53,0,0,0-.78,0c-.41.45-.67,1.42-.8,1.45-.71.18-.36-1.7-.91,0-.42,1.28-1.47,1.3-2.29,2.32-.44.54-.88,1.3-1.41,1.87-.22.24-.5.17-.7.46s0,1.17-.15,1.43c0-.06-.45.14-.7.46s-.81,1.25-1.42,1.39c-.27.06-.39-.49-.56-.5-.59,0-1.07.74-1.45-1.49,0-.1-.06-.92-.08-1-.27-.57-.11-.45-.27-1.93,0-.28-.18-.79-.18-1-.11-1.81.13-3.67-.17-4.32s-1.87,1.68-2.47,2.31-.78.2-1.2,1.4c-.29.85-.33.29-.84.94a7.64,7.64,0,0,1-.4.94,10.25,10.25,0,0,0-.39.95c-.19.23-.39-.26-.57,0s-.26.73-.4.94-.29.16-.49.44-.66,1.31-.78,1.38-.16-.54-.31-.51-.72,1.09-.74-1c0-1.08-.12-1.56-.1-1.94a18,18,0,0,1,1-4.73,14.83,14.83,0,0,0,1-3.77c-.17-2-.86.76-1.57,1.8s-1.52.69-2,2.72c-.29,1.25-.5.09-1,1.36l-.3.94c-.17.2-.39-.36-.56-.05s-.16,1.19-.34,1.41a4.39,4.39,0,0,1-.49.44c-.36.26-.73-.28-.92-.07s-.09,1.12-.23,1.42-.62.15-.84.41-.4,1.67-.77.9a10.91,10.91,0,0,1,.65-4.76c.1-.25.18-.9.31-.94s.11.69.18.5.16-1.14.24-1.43a11.79,11.79,0,0,0,.8-2.82c-.3-.12-.48.4-.75.9-.06.11-.17-.17-.22,0-.14.41-.2,1.13-.35,1.42s-.42,0-.61.43c-.43.88-.88,2.95-1.44,3.25-.23.13-.39-.7-.52-.53-.26.38-.46,1.6-.8,2.35-.22.48-2.33,3.45-2.77,2.17,0,0,0-.57,0-1.21s0-1.36,0-1.68c.1-1.1.25-.87.38-1.42s0,.06.05-.47c.07-1.82.41-.95.77-1.86.12-.32.31-1.83.47-2.37,0-.14.22-.32.27-.46.5-1.43,1.38-2.68,2-4.17.27-.67.53-1.7.78-2.35a4.45,4.45,0,0,0,.68-1.38c0-.16.05-.87.09-1,.32-.75.71-.6,1-1.36.35-.93.38-1.94.68-2.83.08-1.8-.37-.06-.44-1,.08-.69.33-.14.4-.93s-.38,0-.4.93c0,1.91-.66.65-.84.89s-.15.8-.3.94-.35-.23-.54-.05c-.34.34-.81,1.33-1.26,1.82s-1.51.2-1.88,1.29c-.09.27-.16,1.3-.26,1.43s-.36-.26-.66-.06-.71,1.61-1,1.84-.35-.72-.49-.55a7.15,7.15,0,0,0-.43.91c-.09.15-.25.19-.39.43s-.17.86-.22.94-.14-.17-.22,0a4.8,4.8,0,0,1-.93,1.32c-.47.54-3.27,5.11-3.28,2a7.85,7.85,0,0,1,.88-4.24c.16-.36.13,0,.28-.45s.38-.23.62-1.37c-.42-.82-1.12.89-1.67,1.71-.25.39-.57,1-.84,1.34a22.09,22.09,0,0,0-1.76,2.18c-.23.36-.54,1.13-.75,1.35s-.36-.27-.56-.08-.32.91-.36.92c-.34.2-.63-.27-1-.13.2-1.62.22-2.76.58-4.77-.17.13-.3.17-.69.88-.18.33-.33,1-.54,1.37s-.42.1-.63.4-.39,1.12-.55,1.38c-.4.66-.76,1.05-1.19,1.78s-.93,2-1.16,2.26-.45-.29-.68-.1c0,0-.42,1.67-.6.89a9,9,0,0,1,.31-3.35c.43-2,1.29-1.83,1.62-3.65,0-.52-.09-.2-.23,0s-.26.24-.4.43a13.53,13.53,0,0,0-1,1.8c-.16.31-.16.11-.3.45-.46,1.07-2.26,4.24-2.73,3.87-.22-.17-.19,0-.28-1-.05-.46.07-1-.18-1-.58,0-1.07,2.05-1.7,3.09-.12.2-.52.53-.74.83-.46.63-.75,1.32-.88.32,0-.19.05-1.05-.05-1-.44.25-1.3,2.19-2.07,3.52-.37.62-.71,1.24-1.05,1.75s-.69.8-1,1.28c-.55,1-1.26,2.79-2,4-.18.29-.28.07-.45.4-.44.9-1.21,1.83-1.84,3.07-.46-.31.31-.64-.28-1-.23-.15-.14-.62-.67.84-.23,1,.38.3.5.59-.49,1.5-.93,1.34-1.44,2.16-.37.59-1.36,3.09-1.65,3.11s.07-.59-.47.39c-.2.38-.36.8-.66,1.34-.6,1.1-1.57,2.1-2.4,3.44-.21.34-.51,1.13-.68,1.34s-.23-.23-.37-.07-.62,1.55-.95.79a11.1,11.1,0,0,0,.73-3.28,13.69,13.69,0,0,1,1.84-2.57c.15-.23.27-.65.45-.89l1.25-1.72-.4,1.88c.26.68.46-1.78.85-2.77-.22.57,1-1.71,1-1.76a2.43,2.43,0,0,0,1.13-1.25c.56-1.69,0,.14.67-.84.17-.26.38-.84.65-1.34s.68-.95,1.1-1.75c0-.08.3-.33.33-.42.52-1.62,0,0,.66-.85.08-.1.24-.83.3-.92.24-.32.56-.45.78-.83.33-.58.76-2,1.14-2.71.21-.42.47-.36.76-.83.18-.3.43-1,.62-1.35s.27,0,.22.05c.16-.22.18-.72.3-.92.58-1,1.3-1.74,2-3,.4-.75.82-2,1.2-2.7.18-.33.39-.18.54-.39.38-.54.93-1.85,1.4-2.66.34-.57.68-.69,1-1.26.06-.11.23-.86.28-.93a3.73,3.73,0,0,0,.9-1.29c.2-.45.82-1.46,1.18-2.21s.77-1.2,1.26-2.2a11,11,0,0,1,.86-1.79c.22-.15.37,1,.59,1.09.55.13,1.6-2.27,2.33-3.56.1-.18.27-.17.39-.43s.4-.9.65-1.36.66-1.15,1-1.8c.16-.28.24-.15.39-.43s.75-1.84,1-1.8.32,1.08.52,1.52c-.36,1.85-.85,1.77-1.16,4.21a17.49,17.49,0,0,1,.81-1.83c.21-.56,1.1-1.37,1.5-2.22.08-.18.29-.84.34-.92.16-.25.5,0,.8-.38.2-.28.33-1.7.72-1.35,0,0,0,.22-.07.45a4.54,4.54,0,0,0-.06.5c0,.14.35.66.45.55a28.64,28.64,0,0,1-1.94,5.55c0,1.67.74-.22,1.19-.81.23-.3.46-1.06.72-1.36s.45,0,.7-.38a8.92,8.92,0,0,0,.33-.92c.25-.57.76-1.2,1.08-1.8.49-.89,1.06-2.45,1.34-2.23l.07.32.13.7c.09.51.19,1,.19,1a8.35,8.35,0,0,1-.55,1.86c-.6,2.13-.2,1.12-.86,1.82-.08.09-.27.81-.33.92-.24.39-.45.54-.65.88-.48.81-.94,2.08-1.33,2.73s-.8.62-1.16,1.29c-.14.25-.33,1-.52,1.38a2.13,2.13,0,0,0-.52,1.39c.19,1,.64-.27,1-.84.15-.23.36-.54.56-.89,0-.07.2-.3.28-.44s.2-.9.23-.94c.15-.22.28.28.43.06s.2-.91.23-.94c.23-.25.37-.12.6-.4s.41-.6.65-.88c.44-.51.67-.38,1.14-1.3.17-.34.35-1.16.49-1.38.41-.66.7-.31,1.06-.82s.79-1.44,1.32-2.24c.11-.15.37-.85.42-.91.22-.22.22.32.42.06.45-.6,1.21-2.46,1.62-2.27a6.24,6.24,0,0,1,.58,1.5,14.45,14.45,0,0,1-1.3,4.22,18.62,18.62,0,0,1-1.48,2.68c-.5.75-1,1.45-1.55,2.29-.25.39-.49,1-.71,1.36s-.55.5-.76.86S315.05,346.35,314.52,346Z"/><path d="M500.37,249.05a6,6,0,1,0-6-6,6.08,6.08,0,0,0,6,6Z"/><path d="M324.39,266.2a6,6,0,1,0-6-6,6.07,6.07,0,0,0,6,6Z"/><rect class="cls-4" width="784.58" height="784.58"/></g></g></svg>