<svg xmlns="http://www.w3.org/2000/svg" viewBox="0 0 784.58 784.58"><defs><style>.cls-1{fill:#b3b3b3;}.cls-2{fill:#a779cd;}.cls-3{fill-rule:evenodd;}.cls-4{fill:none;}</style></defs><title>자산 5</title><g id="레이어_2" data-name="레이어 2"><g id="레이어_1-2" data-name="레이어 1"><path class="cls-1" d="M154.31,627.61c43.84,27,85.7,26.3,125.61-6.7,4.15-3.44,10.06-5.19,15.17-7.73,19.53,7.63,40.88,9.79,61,7.94,57.2-5.27,114.05-.39,171,.85,16.67,6.85,33.19,14,50,20.5,31.9,12.31,64.92,13.85,98.61,7.1-2.18,34.62-8.87,39.17-47.7,39.42-121.51.78-242.48-12.51-364.12-10.28a227.84,227.84,0,0,1-97.62-20.53C151.15,651.3,144,642.27,154.31,627.61Z"/><path class="cls-2" d="M605.82,251.94c13.15,15.32,26,22.09,35.58,25.41,18.81,6.54,29,1.19,45.74,10.17,15.21,8.13,22.92,21.09,25.41,25.41,17.07,29.53,5.11,61.61,3.22,66.43.79,11.93-7.09,20.55-12.71,29.66-26,42.19-24.63,63,10.84,98.29,25.24,25.12,36.16,54.18,34,89.15-1.44,22.78-11.79,34.75-34.11,43.64C662,660.72,614.81,653,568.62,626.25c-31.21-18.1-63.8-34.35-98.62-43.39-72.35-18.78-139.71-3.28-201.2,37-25.09,16.43-48.26,30.76-80.5,15.34-39.65-18.95-50-33.11-47.79-76.23.65-12.55,1.25-25.34-.44-37.72-3.74-27.43-14.75-51.44-46.14-55.72-22.9-3.12-39.59-21.4-63-21.52-5.4-55.77,33.05-88.09,70-118.87,20.14-16.78,41.17-31.55,57.75-52.47,18.43-23.27,13.31-33.72,33-65.23C211.59,175.53,223.14,157,245,150.29c7.26-2.24,8.74-1,76.64.09,11.84.19,17.76.29,18.92.27,43.63-.72,63.4-12.36,95.19-16.7,10.51-1.44,41.18-4.73,72,4.56,45.72,13.8,73.79,49.9,88,72.77a49.66,49.66,0,0,0,0,5.08c.37,7,2.15,11.79,5.08,20.33C601.9,240.06,603.67,245.29,605.82,251.94Z"/><path class="cls-3" d="M766.77,586.08c-.15-.27-.37,1-.65,2.36a25.85,25.85,0,0,0-.5,3.11c.09,1.08,1.62,1.79,1.75,3.4a8,8,0,0,1,0,1.47c-.07.51-.16,1-.26,1.62a35.57,35.57,0,0,0-.45,5.06,54.6,54.6,0,0,0,.34,6,32.05,32.05,0,0,1,.14,3.5,29,29,0,0,1-.45,4.54c-.51,3-2.21,6.77-3.87,10.87l-.89,2c-.46,1-1,2.11-1.2,2.5s.06,1.6-.14,2a24.24,24.24,0,0,1-2.55,3.36c-1,1.08-2,2.13-2.81,3.13-1,1.2-1.83,2.34-2.65,3.43a24.79,24.79,0,0,1-2.93,3.14c-.6.5-3,2.55-2.63,2.28-1.15.76-1.87.38-3.31,1.26-1,.56-2,1.28-3.29,2s-2.67,1.49-4.09,2.24c-1.62,1.07-3.49,2.25-5.43,3.35-3.92,2.22-7.46,3.84-12.24,6.27a20.66,20.66,0,0,0-2.72,2c-1.67.72-3.71.69-5.29,1.35-4,1.77-10.89,5.84-16.85,6.23-1.43.09-2.27-1.56-3.93-1.44-.21,0-2.16.63-2.21.56-.33-.36,1.38-2.21,3.29-4.14s4.05-3.91,4.82-4.52c1.83-1.39,5.09-3,7.56-4.85.66-.47.91-.56,1.87-1.13-.07,0,1.76-1.06,1.86-1.14.94-.81.47-1.83,1.37-2.5,1.58-1.21,4.08-1.86,5.56-3,1.28-1.05,2-2.24,3.19-3.26.64-.57,2-.92,2.7-1.55.27-.24-.58-.65-.35-.9s1.58-.46,1.9-.74a46.81,46.81,0,0,0,6.3-6.11c-4.24.42-7,3.09-10,5-4.8,3-9.05,5.59-15.34,9.12-1.83,1-3.37,2-6.6,3.59-1.58.76-3,1.54-4.61,2.35s-3.25,1.56-5.2,2.37a6.73,6.73,0,0,1-2,1c-1.79.2-1,.09-4.15,1.45-3.43,1.36-6.48.58-5.93-1.76.3-1.37,3.54-2.75,6.46-4.15,1.46-.69,2.86-1.34,3.83-1.9s1.46-1.07,1.18-1.4c-1-1.11-4-.14-7,1.24s-6.17,3-7.2,3.28a35,35,0,0,1-5.16,1.18,26.24,26.24,0,0,0-3.27.51c-.83.25-1.25.85-2,1.21a30.32,30.32,0,0,1-3.62,1.18c-1.44.39-3,.81-4.76,1.11s-3.48.68-5.22,1-3.45.54-5,.82a80.32,80.32,0,0,1-14.65.84c-1.43,0-2.84-.1-4.26-.21l-4.23-.35c-2.75-.33-5.38-.74-7.73-1.13-1.13-1.11.54-2.17-.26-3.55-.9-1.6.54-2.08,2.59-2.51s4.73-.79,6.25-1.85c-.18-.57-2.54-1.16-4.06-1.4-2.13-.33-2.28.32-3.35.18-2.6-.35-5.45-1-8.47-1.45-1.06-.14-2,.16-3.36-.06-1.89-.33-2.76-.72-4.18-1-2.29-.38-4.52-.43-6.49-.91-2.72-.63-5.38-2.1-8-2.79l-8.22-2.11c-2.82-.77-6.55-1.33-8.06-2.23-3.4-2,.54-1-1.22-2.18-3.29-1.54-.35,1.32-4.48,0-2-.67-8.74-5.21-10.13-6.54a12.67,12.67,0,0,1-2-2.58c-1-2.08,1.9-3.24.5-5.61-.57-1-2.08-2-3.84-3.4-1.56-1.22-4-3.73-7.79-4.7-2-.52-.68.48-2.93-.85-1.07-.65-7.37-2.25-9.67-3-2-.65-3.59-1.5-5.62-2.13-.51-.15-1.85.14-2.21,0-.88-.27-1.82-1-2.7-1.27-3.87-1.19-10.32-3.56-16.05-5.23-.5-.14-1.82.19-2.18.09-1.74-.48-3.78-1.67-5.55-1.87s-3.11-1.23-6.44-2.15c-.94-.24-2.45,0-3-.16-4.58-1.09-9.16-3.08-15.48-4.58-1.2-.31-2.56,0-3.85-.22a58,58,0,0,1-10.44-2.71c-2.9-1.16-4.92-2.56-5-4.35,0-.69.81-1.87,2.56-2.86.66-.37,2.17-.58,3.1-.94s1.26-.88-.48-1.9a19.06,19.06,0,0,0-3.68-1.56c-1.5-.46-3.21-.87-5-1.25s-3.73-.61-5.61-.83-3.75-.34-5.46-.4-2.5.44-4.86.46c.37,0-.47-.78-.91-.54-1.15.61-4.14.69-7.49.86-1.67,0-3.43.16-5.09.26a43.23,43.23,0,0,0-4.5.45c-.2,0-.06.48-.91.51-.47,0-1.34-.37-1-.44-2.49.52-3.42,1.51-5.5,1.83-.95.17-2.22.32-3.55.43l-2,.19c-.65.08-1.28.18-1.84.29a53.18,53.18,0,0,0-5.23,1.19L383,590.13a52,52,0,0,1-10.36,2c-3.44.24-4.14-.88-9.9.87-1.29.41-2.29,1.31-3.69,1.43l-3.46-.2a29.77,29.77,0,0,1-3.79-.36c-2-.92-1.85-3.18-2.34-4.62s-1.61-2-6,.5c-1.1.62-1.34,1.54-2.45,2.22s-3.56,1.31-4.6,1.93a11.31,11.31,0,0,0-2.37,2.29,34.54,34.54,0,0,1-4,1.88,35.72,35.72,0,0,0-4,1.92c-.41.24-.28,1-.59,1.23-1.27.78-3.28,1.31-5.29,2.54-1.09.67-2,1.51-3.25,2.33a11.34,11.34,0,0,1-2.67,1.13c-3,1.94-2.83,3.39-5.56,4.06a1.86,1.86,0,0,1-1.69-1.34c-5,1,2.68-.21-1.75.82-1.18.31-1.75,0-3,.44-1-.31.58-1.44.9-2.6.21-.78-.53-1.79-.17-2.59.83-1.81,4-3.77,3.5-4.27-1.5-1.43-4.36-.25-7,1.71a47.51,47.51,0,0,0-3.71,3c-1.08,1-2,1.89-2.51,2.35-2.21,1.84-4.27,3.55-6.39,5.33s-4.25,3.63-6.62,5.75-4.35,5-7.53,8.13c-1.1,1.08-1.61,1.53-2.17,2.15-1.11,1.24-5.59,5.28-8.46,7.63-1.22,1-2.83,2.25-4.25,3.24.16-.11,0,.94-.69,1-2.43.07-1.86,1.07-3.61,2.57a11.92,11.92,0,0,1-3,1.79c-.54.25-1.11.52-1.75.85s-1.39.67-2.23,1.15c-.48.28-1.45,1.6-1.81,1.75-1.14.53-2.35,1.05-3.66,1.52l-4.18,1.37c-1.25.35-2.62.71-4,1.05s-2.88.53-4.29.83l-5.75.91c-1.87.28-3.75.38-5.7.55a24.58,24.58,0,0,1-3,.09c-1,0-2.07,0-3.16,0a30.74,30.74,0,0,1-3.37-.27q-1.76-.21-3.66-.48a31.23,31.23,0,0,0-4.48-1.51,35.13,35.13,0,0,1-4.78-1.25,44.67,44.67,0,0,1-5.22-2c-.84-.37-1.7-.71-2.47-1.11l-2.19-1.16a27,27,0,0,1-3.26-2c-3.34-2.42-3.65-2.83-5-4.67a3.47,3.47,0,0,1,2.94-5.5c.6,0,2.78.71,3.18.57.87-.25.43-1.71,1.07-2.14.34-.23,2.6.07,2.44-.42-.92-2.56-8-5.29-11.93-7.12-4.27-1.89-8.11-4.88-11.89-5.54-1.1-.2-7.43-4.09-10.64-5.87-1.07-.63-2.54-1.06-3.86-1.86-.76-.48-1.56-1.7-2.33-2.15-.32-.19-1.24.12-1.44-.06a53.51,53.51,0,0,1-4.24-4.89,13.2,13.2,0,0,0-1.79-1.52,8.22,8.22,0,0,1-1.51-1.5c-1.27-1.66-1.19-2.86-2.31-5-.43-.74-.79-1.58-1.27-2.42s-1-1.71-1.43-2.66-.92-1.89-1.36-2.86a30.11,30.11,0,0,1-1-3c-.13-.46-.26-.93-.38-1.41s-.16-1-.25-1.46c-.15-1-.31-2-.42-3-.13-2-.32-4-.38-5.93-.27-3.37-.41-7.3-.35-10.94.09-1.8.2-3.54.42-5.06a19.53,19.53,0,0,1,1-3.87c.53-1.24,1.25,0,2-.74s1.41-3.17,2.64-2.74c.78.26,2.29,2.32,3.2,2.3.13,0,.56-1.29,1-1a12,12,0,0,1,1.33,2c.29.49.59,1.06.87,1.5s.55.77.73,1a24.14,24.14,0,0,1,1.72,2.05c1.18,1.7,1.73,2.42,3.92-.53l1.21-1.61a12.52,12.52,0,0,0,1.13-2.35,27,27,0,0,0,.6-5c.11-2,.13-4.06.28-5.42.28-2.53.83-4.1.87-5.4.08-2.62.07-5.92.1-9,0-1.66,0-3.35,0-5,0-1.79,0-3.55-.07-5.16a24.29,24.29,0,0,0-.4-3.48c-.19-1.09-.34-2.09-.42-3.12a113.57,113.57,0,0,0-1.81-15.36,73.45,73.45,0,0,0-5.18-16.63,57.32,57.32,0,0,0-4.41-8,52.83,52.83,0,0,0-5.65-7.11,47.67,47.67,0,0,0-13-9.76c-2.61-1.29-5.1-3.41-9.73-5.3-4.94-2-9.85-2.83-14.43-4-1.83-.47-3.58-1-5.32-1.49a40.63,40.63,0,0,0-5.18-1.18c-.76-.11-1.25.22-2.18-.08-.34-.1-1.46-.8-.91-.73a17.88,17.88,0,0,0-3.59,0c-.48,0-.86.07-1.41.06s-1.12,0-1.77-.11c-1.85-.23-4.34-.44-6.72-.66a43.39,43.39,0,0,1-6.24-.9c-1.89-.52-3.64-1-4.94-1.41a15.62,15.62,0,0,1-2.45-.94c.07,0-.09-.26-.25-.57l-.34-.63c.14.15-.67-1.09-.71-.76.1-.74,2.43-.39,2.2-.78-1.16-1.87-5.45-3.63-9.87-5.37s-9-3.48-11.44-4.48A23.65,23.65,0,0,1,27,423.75a32.23,32.23,0,0,1-6.17-7.92,36.53,36.53,0,0,1-3.46-7.76,15.92,15.92,0,0,1-.69-7,6,6,0,0,1,.7-1.82,14.24,14.24,0,0,1,1.22-1.64c.42-.52.83-1,1.18-1.47a4.48,4.48,0,0,0,.81-1.39,12.56,12.56,0,0,0,.42-1.63c.13-.56.26-1.14.35-1.73s.18-1.2.24-1.82l.27-1.92c.08-.66.17-1.33.25-2s.23-1.37.35-2.07.25-1.41.42-2.12.38-1.44.6-2.16c.39-1.39,1.43-2.76,2-4.14s1.6-4.26,2.8-7.22c.63-1.46,1.28-3,1.94-4.37s1.36-2.51,2-3.48a25.7,25.7,0,0,1,4.07-4.7c1.4-1.49,3-2.83,4.34-4.47,1-1.33,2.24-2.72,3.48-4.25.63-.75,1.21-1.58,1.91-2.36l2.1-2.41a104.9,104.9,0,0,1,9.61-9.76c6.74-5.93,14.75-11.11,22.32-16.09,1.85-1.19,3.54-2.49,5.36-3.74s3.62-2.56,5.69-3.75c1.12-.66,2.26-1.31,3.41-2s2.35-1.23,3.53-1.82c2.34-1.2,4.75-2.33,7.08-3.44l1.77-.85,2-1c1.3-.68,2.58-1.3,3.8-2a58.72,58.72,0,0,0,6.73-4.49,23.26,23.26,0,0,0,2.46-2.33,20.2,20.2,0,0,1,2.57-2.49l3.22-2.38c1.07-.8,2.23-1.53,3.38-2.44s2.37-1.89,3.67-3.05,2.56-2.61,4-4.24a81.46,81.46,0,0,0,10.65-17.51,89.68,89.68,0,0,0,6.38-21c.32-1.53.54-2.84.78-4.1.12-.64.23-1.26.35-1.9l.15-1,.1-.81c.17-1.56.2-3.09.25-4.63a23,23,0,0,1,.42-4.55c.28-1.36,1.27-2.88,1.52-4.34.1-.55.18-1.11.26-1.67l.31-1.62c.19-1.08.36-2.15.53-3.21s.31-2.12.53-3.14.55-2,.88-3c.44-1.3,1-2.6,1.48-3.88s1.21-2.5,1.72-3.75a98,98,0,0,1,7.68-15.89,12.88,12.88,0,0,1,1.58-2.33,5,5,0,0,1,1.33-.22c.42-.63.9-2.7,1.9-4.39,1.3-1.92,3.06-4.26,4.84-6.39s3.63-4,4.79-5.29c1.68-1.7,5.2-6.29,8.66-8.93a27.94,27.94,0,0,1,7.63-4.63c2.14-.77,3.82-.55,4.66,1.06-.15-.29.23,1.75.25,1.7-.15.55-1.59,1.68-1.75,2.26-.45,1.64,0,2.66-.43,3.65a10.12,10.12,0,0,1-1.35,1.49,11.39,11.39,0,0,0-1.63,2c-.2.34.19,1,0,1.32s-1.1.88-1.29,1.27c-.53,1.11-.12,1.86-.53,3.27-.27.88-1.45,2.29-1.73,3.23s-.6,1.9-.86,2.84a13.3,13.3,0,0,0-.37,2.52c0,1.31.62,1.62,2.61-.54.55-.54.85-1.77,2-2.82a22,22,0,0,1,2.66-2,13.27,13.27,0,0,0,2.26-1.68c1.27-1.28,1.83-2.87,3.11-4.37,1.9-2.15,3.72-3.37,5.67-5.8a15.11,15.11,0,0,1,3.84-4c2.22-1.75,3.21-3.57,5.85-6.07,1.5-1.36,3.08-2.66,4.67-4l1.19-1,.82-.65c.49-.38.92-.86,1.43-1.23a33.67,33.67,0,0,1,6.71-5c2.91-1.47,6.52-2.21,9.76-2.91a9.56,9.56,0,0,0,1.44-.51,4.33,4.33,0,0,1,1.53-.45,6.92,6.92,0,0,1,2.05.14c.65.13,1.3.23,2,.32.4,0,.91,0,1.41.07s1.06.05,1.62.07,1.1.09,1.66.11l3,.53c1.28.22,2.91.61,4.77,1.1l3,.77,3.3.68c7.43,1.81,19.56,4,27.88,4.05,2.18,0,3.8-.49,5.65-.47,2.27.1,5.21.41,7.76.4,4.7.08,9.62-1,13.22-1,1.56,0,4.67.12,8.18.14a35.6,35.6,0,0,0,5.35-.34,26.13,26.13,0,0,0,4.93-1,57.7,57.7,0,0,1,7.87-1.65c1.72-.25,3.53-.63,5.4-1s3.77-.79,5.62-1.24c2.05-.56,2.65-1.08,4-1.43,2.22-.59,5.26-.63,7.26-1.3,1.62-.51,2.3-1.55,3.8-2,2.12-.61,4.25-.61,6.14-1.22,3-1,5.86-2,8.56-3.1s5.36-2.08,7.9-3c1.69-.57,3.54-1.08,5.51-1.6l2.88-.74c1-.25,1.95-.51,2.95-.81,5.8-1.63,13-4.22,18-4.54a22.83,22.83,0,0,1,5.06.15,11.12,11.12,0,0,1,3.44.77c1.11.75.75,3.31,1.44,3.69,1.06.59,3.34.84,5.44,1.24a30.81,30.81,0,0,0,5.25.81,28.12,28.12,0,0,0,3.14.06c.62,0,1.29-.06,2-.11s1.56-.06,2.46-.11a13,13,0,0,1,2.54-.51,8,8,0,0,1,2.51.53c1.41-.08,2.16-.84,3.4-.86,1.74,0,3.49.38,5,.36,1.36,0,2.77-.43,4.27-.5,1.06,0,2.24.47,3.31.49a13.47,13.47,0,0,0,2.17-.14,19.23,19.23,0,0,1,2.12-.08,26.72,26.72,0,0,1,4.71.67,27.13,27.13,0,0,0,4.48.54c.53,0,1.65-.47,1.89-.44a8.11,8.11,0,0,1,2,.57,13.42,13.42,0,0,0,2,.73c1.13.28,2.42,0,3.51.24.73.12,1.65.86,2.37.94.29,0,1-.61,1.16-.57a23,23,0,0,1,3.27,1.16l1.64.66c.52.22,1,.45,1.5.62,1.18.44,2.53.78,3.9,1.22s2.78.93,4.17,1.45a29.86,29.86,0,0,1,3.83,2,10.61,10.61,0,0,1,2.85,2.62c.1,2.16-2.56-1.47-2.93-.32,1.19,1.51,2.11,1.43,3.2,2.86,1.11,1.6.23,2.45,1.49,3.6s3.78,2.09,5.13,3.06a38.51,38.51,0,0,1,3.27,3.08c1.12,1.1,2.16,2.37,3.39,3.48.87.77,1.74,1.51,2.64,2.21a20.26,20.26,0,0,1,2.61,2.31l1.95,2.26,1,1.21,1,1.31,2.09,2.74,2,3,1,1.5.92,1.55,1.78,3.1c.53,1,1,2,1.46,3s.83,1.95,1.2,2.87c.53,1.33.14,2,.54,3.48.6,2.33,1.82,4.47,2.11,6.54.46,3.24-.44,5.52-.2,8.41.43,5.2,2.64,12.08,3.48,18.45.22,1.6,0,3.55.27,5.08.73,4,2.11,7.79,3.09,12.13,1.14,5,2,11.43,4.12,18,.52,1.51,1,3,1.68,4.58l2.09,4.74c1.6,3.2,3.12,6.29,4.72,9.21.61,1.16,1.09,2.36,1.67,3.6s1.21,2.54,1.84,3.84l1,2c.35.67.79,1.32,1.22,2a41.14,41.14,0,0,0,2.94,4,65.19,65.19,0,0,0,5.29,5.06l.8.69.87.65,1.82,1.32c1.25.88,2.56,1.8,3.93,2.68s2.81,1.59,4.28,2.37a42.58,42.58,0,0,0,4.45,2.19,83.28,83.28,0,0,0,9,3.42c-.13,0,.48-.43,1.56,0,5.85,2.28,13,3.49,19.87,4.15l1.81.18,1.51.12,1.48.11,1.4.17,2.66.31,2.29.4c1.32.22,1.38.85,2.69,1.1a21.1,21.1,0,0,1,2.58.61,23.81,23.81,0,0,1,2.65.91c1.16.48,2.35.25,3.18.67,2.63,1.21,4.26,2.12,6.82,3.51.92.44,1,1.36,2,1.92.2.15.81.54,1.59,1a16.91,16.91,0,0,1,2.22,1.75c-.1-.09.74-.37.71,0a1.39,1.39,0,0,0,.58,1.2,9.56,9.56,0,0,0,1.61.83,8.35,8.35,0,0,1,3.41,2,5.5,5.5,0,0,1,.84,2.41l.22,1.43a12.52,12.52,0,0,0,.28,1.62c.61,2.76,1.66,6.28,2.55,10.65a103,103,0,0,1,2,14.8c.07.89.37,2.36.46,3.7s-.1,2.59-1,2.95c.13-8-1.7-15.65-3.48-22-.29-.9-.12-2.45-.5-3.34-.49-1.36-1.6-2.12-2.18-3.22-.49-.79-.16-1.81-.76-2.87a4,4,0,0,0-.63-.76,3.34,3.34,0,0,1-.81-1,12.18,12.18,0,0,1-.61-1.53c-.08-.26-.17-.51-.26-.76a3.86,3.86,0,0,0-.39-.65,16.51,16.51,0,0,0-4.21-4c-1.57-1.06-3.13-2-4.62-2.9-.39-.29-1.41-.66-1.69-1.09s.2-.93-.44-1.35-1.09.4-1.4.32c-.69-.18-.65-.86-.78-.92-2.46-.86-5.3-2-8.85-3a56,56,0,0,0-12.38-2c-.65,0-1.29,0-1.94,0h-.71l-.86,0-1.73-.05c-1.14,0-2.29-.08-3.42-.15l-1.69-.13a11.9,11.9,0,0,1-1.71-.24,78.93,78.93,0,0,1-19.86-6.29c-1.57-.75-3.08-1.41-4.57-2.22l-4.35-2.49-2.07-1.21c-.67-.39-1.33-.87-2-1.3l-3.76-2.5c-.53-.37-1.37-.79-2.25-1.42l-2.92-2c-1-.72-2-1.45-2.88-2.13A18.75,18.75,0,0,1,592,282.3c-.55-.63-.15-1.45-.5-1.94-2.49-3.32-4.17-4.85-5.7-8.45-.54-1.21-.73-2.41-1.21-3.83a23.9,23.9,0,0,0-.87-2.32c-.36-.85-.85-1.79-1.32-2.79-.88-1.8-2-3.68-2.91-5.58s-1.83-3.84-2.58-5.85c-1-2.94-1.47-5.93-2.15-8.66-2-7.54-4.43-14-5.81-20.43-.48-2.2-.35-4.69-.8-7.18-.64-3.61-2-7.3-2.82-11.22a17.66,17.66,0,0,1-.27-2.76,21.73,21.73,0,0,0-.25-2.76c-.94-4.81-2.17-5.36-1.37-7.79,0-.13.64-1,.63-1.1a7.93,7.93,0,0,0-.73-2,5.37,5.37,0,0,1-.68-1.92c0-.42,1-.82,1-1.29,0-.13,0-1.19-.17-2.32a22.88,22.88,0,0,0-.38-2.8,12.36,12.36,0,0,0-1-2.3,24.66,24.66,0,0,1-1.44-2.82c-.35-.79-.62-1.47-.84-2.13s-.42-1.3-.71-2-.59-1.41-1-2.23a18.64,18.64,0,0,0-1.63-2.75c-.36-.5-1-.44-1.34-1.15a42.23,42.23,0,0,0-5-7.8,44.85,44.85,0,0,0-3.92-3.26c-.8-.74-1.6-1.82-2.56-2.87s-2-2.2-3-3.18a48.75,48.75,0,0,0-8.83-5.85c-2.57-1.5-4.71-2.82-6.24-5.25-.57-.82-.89-.45-1.11-1.27s.29-.47-.17-1.25c-.95-1.68-2.32-2.43-4.69-3.36-.47-.18-1.14,0-1.68-.36-.17-.12.32-.55-.51-.8-1.58-.48-3.37-.38-5-.86-.82-.26-1.63-.57-2.42-.91l-2.38-.93c-.77-.3-1.52-.61-2.26-.86a20,20,0,0,0-2.19-.5,10.42,10.42,0,0,0-2.23,0,9.38,9.38,0,0,1-2.07.1c-1.14-.14-2.31-.49-3.53-.75s-2.45-.53-3.62-.66a36.1,36.1,0,0,0-3.75-.07c-1.23,0-2.47.09-3.68.14s-2.44-.22-4.07-.09c-1.12.07-2.47.62-3.3.6a37.77,37.77,0,0,1-4.54-.29,29.58,29.58,0,0,0-4.38-.17c-.59-1.5,2.27-.86,1.7-2.36-3.73.14-1.22,2.65-2.53,3.29-5-.21-10.5.2-14.82.24a13.94,13.94,0,0,1-3.37-.4c-1-.26-2-.66-3.63-1.16-3.07-.83-3.38-1-5.77-2.92-.62-.52-1.86-2-2.19-2-1.46-.21-4.53.75-8,1.28-1.66.21-3.49-.1-4.63.18-1.56.36-3.18.81-4.86,1.33s-3.37,1.24-5.11,1.91l-5.84,2.32c-2,.8-4,1.59-6.09,2.3s-4.27,1.36-6.29,2-4,1.08-5.67,1.66a29.76,29.76,0,0,0-3.58,1.58,23.81,23.81,0,0,1-3.27,1.32c-2.4.62-4.82.44-7.43.93a64.16,64.16,0,0,0-10.34,2.83c-1.16.46-1.62,1.25-3,1.58a13.31,13.31,0,0,1-3.44.17,12.84,12.84,0,0,0-3.15.05,45.4,45.4,0,0,0-5.82,1.9,40.58,40.58,0,0,1-5.92,1.69,57,57,0,0,1-8.84.79c-1.6,0-3.22.13-4.89.07l-5-.14c-3.34,0-6.69-.3-9.83-.34-1.57-.05-3.09,0-4.55,0s-2.85.06-4.16.19a25.57,25.57,0,0,1-4-.2c-1.85-.19-4.09-.61-6.37-.95-4.58-.58-9.22-1.61-11.35-1.23-1.25.2-1.38.33-1.85.26a39.14,39.14,0,0,1-3.88-1.13,48,48,0,0,0-7-1.61c-2.21-.34-4.31-.72-6.71-1-2-.28-2.48-.55-2.91-.9-.22-.18-.41-.38-.75-.62-.17-.11-.38-.24-.65-.38l-.44-.21-.26-.12a10.44,10.44,0,0,0-1.63-.16h-1.26c-.42,0-.81.08-1.1.1-.75.05-1.44.66-2.1.67-.33,0-.71,0-1.1,0s-.78-.12-1.19-.14a7.12,7.12,0,0,0-2.37.1,6.27,6.27,0,0,0-1.08.38c-.35.19-.68.39-1,.58a15.18,15.18,0,0,1-1.93,1,4.24,4.24,0,0,1-1.35.08,3.89,3.89,0,0,0-1.86.27c-.8.32-.69.93-1.69,1.63a14.83,14.83,0,0,1-1.46.61,4.94,4.94,0,0,0-1.42.69,11,11,0,0,0-1.76,2.14c-.2.3-.45.57-.69.87a11.2,11.2,0,0,1-.78.95c-.16.17-.26.28-.49.49l-.91.87-2,1.81c-2.78,2.47-5.8,5.25-8.87,8.28-1.23,1.27-1.38,2.15-2.77,3.67-.54.59-1.25,1.26-2,2s-1.6,1.56-2.5,2.41-1.88,1.73-2.78,2.66-1.8,1.87-2.65,2.81c-1.78,1.88-3.32,4.37-6.08,7-.78.83-2.07,2.43-2.13,2.47-.7.62-1.32.27-1.79.62-2,1.38-1.66,1.67-3.69,2.24-.25.07-1.68.69-1.76.69-2.13-.15-4-3.07-4-4.2,0-.43,1.93-2.14,2.1-2.69.32-.88-.45-2.17-.12-3.52.16-.65,1.15-1.66,1.37-2.32s.18-1.22.44-2c1.11-2.75,2.55-5.44,3.55-7.91s1.65-4.91,2.31-7c-3.12,1.58-5.46,5-8.28,7.66-1.24,1.15-3.38,2.17-4.49,3.49-1.56,1.78-2.14,3.62-3.49,5.57a41.93,41.93,0,0,1-3.76,4.55A59.34,59.34,0,0,0,177,179.7a51.58,51.58,0,0,0-3,5l-1.52,2.71c-.46.91-.85,1.81-1.24,2.65a22.93,22.93,0,0,0-1.1,3.1c-.16.5-.31,1-.47,1.49a9.85,9.85,0,0,1-.47,1.42c-.76,1.82-2,2.9-2.68,4.66a39.53,39.53,0,0,0-1.16,4.34c-.2,1.08,0,2.39-.35,3.64-.53,2.24-1.89,4.34-2.55,6.63-.41,1.91,0,3.19-.29,5.41-.43,2.51-.89,5.21-1.43,7.76a47.54,47.54,0,0,0-1,8.76c-.06,1.44.36,2.13.12,3.77-.57,3.81-2.28,7.67-3.71,11.73-.46,1.42-.81,2.51-1.07,3.63a21.73,21.73,0,0,1-1.08,3.58c-.81,1.87-1.43,1.68-2.17,3.09a13.48,13.48,0,0,0-.53,1.29c-.23.55-.49,1.19-.76,1.86a24.71,24.71,0,0,1-1.78,3.77c-1.07,1.6-1.8,1.58-2.55,2.8-.32.51-.58,1-.83,1.51s-.5.94-.73,1.4a15.82,15.82,0,0,1-1.53,2.6,11.41,11.41,0,0,1-2.12,2.11,22.74,22.74,0,0,0-2.38,2.21c-1.17,1.26-2.81,3.42-4.07,4.66-1.53,1.41-3.18,2.61-4.79,3.84s-3.33,2.26-5,3.49c-2.05,1.44-3.56,3.11-5.7,4.42-1,.57-2.09,1.09-3.19,1.61s-2.18,1-3.18,1.57L110,303.67l-2.51,1.45L103,307.78a70,70,0,0,1-8.7,4.57c-.77.32-3.9,1.58-3.56,1.41-1.53.9-2.16,2.11-3.6,3.16a60.26,60.26,0,0,1-5.85,3.8c-1.93,1.13-3.82,2.24-5.87,3.48-1.82,1.21-3.67,2.6-5.42,4s-3.45,2.89-5,4.24c-5.94,4.83-11.87,9.81-16.73,15.7-.94,1.2-1.78,2.35-2.57,3.45s-1.37,2.25-2,3.3a54.78,54.78,0,0,1-4.22,6.16,17.54,17.54,0,0,1-2.7,2.46,17.57,17.57,0,0,0-1.48,1.32,8,8,0,0,0-1.39,1.87,57,57,0,0,0-2.69,7.15c-1.05,3.19-1.93,6.51-2.39,8.13-.34,1.11-.73,2.38-1.16,3.75s-.78,2.79-1.14,4.3c-.26,1.21-.37,2.47-.55,3.74s-.16,2.46-.18,3.55-.06,2.08-.05,2.85a4.68,4.68,0,0,1-.29,1.78c-.5,1.15-3.87,1.21-4.25,2.2-.27.63,0,3.61.79,6.22s2.11,4.86,2.61,5.16a7.1,7.1,0,0,1,1.25,1.59c.24.33.46.72.77,1.13s.71.81,1.14,1.25a4.18,4.18,0,0,0,1.26.7,6,6,0,0,1,1.19.61c2.27,1.85,5,4.35,8.18,5.76a16.17,16.17,0,0,0,3.13,1c1.05.23,2.06.46,3.11.78a12.59,12.59,0,0,1,1.84.85,16.09,16.09,0,0,0,1.92.85,12.23,12.23,0,0,0,2.91.61,12.3,12.3,0,0,1,2.17.38c.4.13,1.59.61,2.78,1.12a28.84,28.84,0,0,1,2.88,1.3l.56.54c.32.33.76.75,1.22,1.17a18.91,18.91,0,0,1,1.86,1.88c.64,1.78-2.56,1.53-.78,2.77a6.36,6.36,0,0,0,1,.54,8.77,8.77,0,0,0,2.44.86,32,32,0,0,0,4.51.59,8.12,8.12,0,0,0,2.6-.27,10.31,10.31,0,0,1,3.26-.27A19.21,19.21,0,0,1,79,442a43.21,43.21,0,0,0,4.38,1c2,.36,3.51.07,5.49.5,3.7.78,7.82,2.52,12.93,3.84.52.11,2.18-.11,2.53,0,1.78.53,3.66,1.72,5.45,2.47,2.17,1,4.11,1.18,5.94,2.12A67,67,0,0,1,137,469c2.73,3.21,5.47,6.71,6.65,9.21a22.56,22.56,0,0,1,1.58,4.11c.41,1.26.67,2.41,1.16,3.61l1.2,2.92c.35.8.67,1.46,1,2.05a21.92,21.92,0,0,1,1.36,3.48,24.64,24.64,0,0,1,.6,3.72c.14,1.24.19,2.45.41,3.65s.45,2.27.74,3.44a30.44,30.44,0,0,1,.7,3.57c.27,1.86-.06,4.56.13,6.92.11,2,.67,2.35.71,4.46a34.13,34.13,0,0,1-.34,4.28,40.43,40.43,0,0,0-.45,4.52c-.07,1.36.5,3,.54,4.52.06,2.72-.63,7.16-.67,11.32,0,2,.57,4.07.43,5.76a68.55,68.55,0,0,1-1.45,7.34l-.16.72L151,559l-.06.25-.23,1-.37,1.73c-.22,1-.24,1.61-.13,1.37a7.4,7.4,0,0,1-2.93,3.06,6.08,6.08,0,0,1-3.52.9c-1.2-.11-2-1.64-3.24-2.85-.75-.69-1.28-.47-1.86-1-1.4-1.42-1.6-1.58-4.65-2.29-1-.24-1.47-.63-1.84-.55s-.65.63-1.17,2.32c-.87,2.8.36,1.65.24,6.09,0,2.52-.49,5.1-.15,8.14.29,2.36,1.18,5,1.52,7,.26,2.12-.15,3.67.29,5.22a32.08,32.08,0,0,0,5.66,9.82l.88,1a14.63,14.63,0,0,1,1.09,1.31,13.17,13.17,0,0,1,1,1.58l.84,1.44c.27.47.54.94.84,1.42a7.42,7.42,0,0,0,1.13,1.47,19.75,19.75,0,0,0,2.17,1.81c.87.67,1.92,1.23,2.74,1.78l1.29.86,1.49.87a20.26,20.26,0,0,0,2.39,1.26c1.17.4,2.62-.11,4.36.77,5.43,2.72,7.93,6.12,13.58,8.19a18,18,0,0,0,2.73,1.15c.26,0,1.12-.38,1.33-.3,1.38.51,1.2,1.44,2.24,1.91.64.27,1.06-.4,2.14.14A69.84,69.84,0,0,1,192,632.25a9.73,9.73,0,0,1,1.64,1.63,4,4,0,0,1,.86,1.57c.26,1-.13,2.12-1.51,3.13a11.54,11.54,0,0,1-1.47,1s-.29.23-.63.46a3.81,3.81,0,0,1-.85.48c-.68.09-4.59-1.06-5.32-.77-.11,0,.44,1.69.13,2.2-.16.27-2.31.26-1.76,1.28s1.54.81,2.77,1.76c.22.18.46,1.23.63,1.32a24.41,24.41,0,0,0,2.61,1.29c1.09.47,2.35,1,3.64,1.48s2.68.9,3.94,1.32,2.43.78,3.4,1a40,40,0,0,0,4,.7c1.51.15,3.17.27,5,.56,1,.21,2.16.28,3.32.4s2.4.23,3.7.29a48,48,0,0,0,8.79-.56l2.75-.39c1-.15,2-.4,2.89-.61a14,14,0,0,0,2.24-.84,17.76,17.76,0,0,1,2.14-.91,84.76,84.76,0,0,0,12.39-4.93,48.5,48.5,0,0,0,7.61-4.56,19.82,19.82,0,0,0,3.35-3.53,25.18,25.18,0,0,1,2.47-2.92,45.18,45.18,0,0,0,5-3.46,31,31,0,0,0,1.91-2.54c1.15-.94,2-.63,2.72-1.36,1-1,.22-1.13,1.6-2.92,1-1.29,2.75-2,3.8-3.25.92-1.09,1.7-2.31,2.51-3.41a32.16,32.16,0,0,1,1.77-2.83c.79-.78,2.5-1.41,3.41-2.14.44-.35.93-1.58,1.25-1.84,1.4-1.11,3.62-2.34,5-3.45,1.64-1.34,3-2.73,4.41-4.07a52.18,52.18,0,0,1,4.24-3.66c4.36-3.19,8.33-5.77,10.84-6,1.4-.12.64,1,1.69,1.38.62.2,1.75-.44,2.24.09,2,2.15-.88,6.75-.73,8.64,4.15-1.67,6.38-4.51,9.21-6.3,2.4-1.43,5.13-2.36,7.19-3.6,3-1.77,5.34-4,7.69-5.54.89-.6,1.93-.8,2.75-1.35.61-.41,1.11-1.13,1.66-1.5s2.08-.79,2.78-1.3c1.66-1.17.57-1,5.48-3,4.34-1.82,4.15-1.83,6.12-.62,1.67,1,1.68,7.34,5,7.64,2.86.25,5.31-2.08,9.45-3.26a3.87,3.87,0,0,0,2,0,5.56,5.56,0,0,1,3.89-.88c2.86.31.43,1.6,3.64,2.64,1.41-.36,2.79-.67,4.12-.94l3.81-.66c1.24-.23,2.47-.39,3.68-.57s2.4-.39,3.59-.64c1.42-.25,2.27-1,3.7-1.39a29.09,29.09,0,0,1,4.5-.66l2.49-.26c.85-.06,1.71-.14,2.58-.25,6.25-.77,12.72-1.79,21.44-1.19a3.44,3.44,0,0,1,2-.28c.38.12-.16.54.92.59,1.57.09,2.48-.43,4-.41.5,0,1.78.1,3.48.29l2.8.32,3.13.49a52.85,52.85,0,0,1,10.06,2.41c.31.14,1.18,1.11,1.66,1.42,3.16,2.08,3.52,5.92-.3,8.4-1.73,1.13-2,1.71,3,3.34.72.26,1.6-.12,2.85.39a36.93,36.93,0,0,0,6.32,2.06c3.4.74,5.74.54,6.8.92,5.72,2,2.34,2.7,7.21,2.78,3.73.08,12.15,3.55,18.94,5.49,3.62,1,7.32,1.88,11.6,3.23,1.78.55,4,1.68,5.61,2.11,1.41.38.59-1,1.52-.88a53.61,53.61,0,0,0,5.63,2.14,84,84,0,0,1,11.48,3.85c2.07.9,3,1.91,4.34,2.56,4.65,2.17,8.47,3.1,11.1,6.83A13.1,13.1,0,0,0,554,629c2.09,1.63.79.87,1.85,3,.2.41,1.32,1.52,1.37,1.74.6,2.31-1.5,3.36.79,5.19,1.23,1,5,2.35,9.18,3.69,2.07.67,4.24,1.31,6.21,1.89L578.3,646c5.32,1.65,6.66,2.66,10.08,2.81,2.46,0,2.79.8,7.15,1.77.77.16,1.73-.14,3.29.16a25.32,25.32,0,0,0,3.26.14c1.56.25,3.41,1.34,5,1.57,1,.16,2.06-.17,3.27-.06,1.6.14,2.5.49,4.14.63,2.45.11,5.39-.19,6.38,0,1.68.2,1.64.82,3,1s2.65.13,4,.34a3.65,3.65,0,0,1,3.11,1.67c.61,1.15,1.86,1.77,1.88,2.16.11,1.84-2.15,2.3-7,4-.14,0-2.49.38-4.7.83s-4.22.9-3.64,1.55c1.22,1.34,3.34,1.46,5.9,1.31s5.61-.79,8.81-1l4.7-.19c1.69-.07,3.46,0,5.13-.21,3.34-.3,6.37-.75,7.87-1.87a6.6,6.6,0,0,1,3.53-.84,15.13,15.13,0,0,0,5-1.1c.32-.14,2-1.1,2-1.15,1.47-.39,3.93-.14,5.27-.63s.38-1.27,1.88-1.74c1.14-.36,3.86-1.08,4-1.13,2.89-.86,6.72-1.07,8.16-1.68s-.24-1.1.68-1.64a20.79,20.79,0,0,1,3.17-1,38.54,38.54,0,0,0,3.69-1.2c.67-.28,1.71-2.22,5.62-2.61,3.08,1.4,2.14,3.22-.61,5.17-.63.46-.7,1.16-1.73,1.52-.38.14-1.73-.23-2.15.09s-.24,1.25-.64,1.66c-.9.94-4.45,2.64-4.45,4.09,3-.58,4-1.48,6-2.51.39-.22,1.76-.31,2-.56.76-.66.58-1.36,1.63-2s3.62-1.14,4.86-2c2.87-1.86,4.41-4.59,8.72-6.47,1.82-.81,4.13-.78,5-1.29,1.78-1.09,2-2.48,3.9-4,.64-.51,4.36-2.91,8.48-5.32,1-.6,2.1-1.19,3.14-1.76l.78-.42.84-.42,1.63-.8c2.1-1,3.93-1.87,5.21-2.34l.66,0c.39,0,.92.06,1.43.06a6.52,6.52,0,0,1,2.44.26c.84.74-.73,1.68-1,2.55s-.38.17.29.39c2.25.68-2.18,2.67-4.45,4.63-.77.73-.37,2.17-1.34,3.2a9.78,9.78,0,0,1-1.13.72,7.09,7.09,0,0,0-1.15.72c-2.29,2.51-8.18,6.29-11.69,9.27-1.59,1.33-2.59,2.83-4,4.09-.81.69-4,2.13-4.47,3.15-.1.2.55.72.32.9-2.08,1.55-5.82,2.74-7.7,4.14-2.32,1.75-1.45,2.53-3.31,4.08,1.36,1.45,3.68-1.15,5.55-.77,0,.74-3.1,1.17-2.87,1.93,1.51.41,3.71-1.28,2.87-1.93-1.8-1.39,5.51-2.6,6.9-3.38,1-.56.47-1,1.69-1.63,1.52-.74,3.54-1.06,5-1.84,2.68-1.38,5.67-3.65,9.06-5.55.56-.33,1.65-.83,3-1.44l2.17-1c.8-.36,1.32-.62,2.86-1.28,1.31-.57,2.58-1.18,3.79-1.79s2.29-1.29,3.28-1.9a18.62,18.62,0,0,0,2.51-1.81,13,13,0,0,0,1.51-1.42c.57-.74-.49-1.26.4-2.1.61-.61,1.8-1.36,3-2.48.63-.56,1.33-1.14,2-1.81s1.3-1.44,1.91-2.21a13.92,13.92,0,0,0,1.51-2.48,18.72,18.72,0,0,0,1.16-2.64c.32-.88.64-1.75.94-2.6s.57-1.69.9-2.46c.81-1.77,3.11-5.13,3.49-6.88a32.14,32.14,0,0,0,.48-4.72,39.74,39.74,0,0,0,.54-4.27c0-.55-.7-1-.69-1.42,0-.68.47-1.81.45-2.45-.25-3-.18-2.88-.43-8.33,0-.52-.09-1.36-.22-2.36l-.49-3.49c-.18-1.32-.37-2.76-.57-4.28s-.48-3.09-.72-4.66l-.59-4.63c-.21-1.5-.37-2.93-.44-4.22a25.55,25.55,0,0,1,0-3.43,5,5,0,0,1,.61-2.27c1.8-2.77,2.5-2.12,4.58,3,.44,1.16.06,1.32.58,2.19s.44,3.46,1.64,4.42a22.18,22.18,0,0,0-.69-7.59c-.69-2.41-1.57-4.67-2.23-6.81s-1.67-4.32-2.34-6.46c-.72-2.37-1.59-4.62-2.39-6.87-.43-1.12-.81-2.25-1.31-3.37s-1-2.24-1.62-3.37c-.82-1.63-2.07-3.35-2.87-4.9s-1-3.69-1.68-5.2c-.37-.75-1.55-1.45-1.67-1.72a45.65,45.65,0,0,1-1.74-4.44,37.14,37.14,0,0,0-2-4.59c1.35-.94,1.78-2.75,3.9-3-.38-.67-.72-1.28-1.19-2a23.35,23.35,0,0,0-2.13-2.6c-.93-1-1.77-1.1-2.81-2.28s-2.09-3.38-3.15-4.53c-.9-1-2.09-1.24-2.9-2.06-2.12-2.05-4.09-4.1-6.35-6.09-2.46-2-5.12-3.34-6.36-4.48-.82-.77-2.69-3.61-4-4.84a7.43,7.43,0,0,1-1.29-.35,3.71,3.71,0,0,1-1.09-.73,5,5,0,0,1-1.08-1.43c-1.33-2.59-.27-3.39,1.08-3.79,1.06-.31,3,1,4.84,2.42s3.54,2.79,4.37,2.34c.2-.57-.6-1-1.38-1.66-.43-.36-1.6-1.5-2.45-2.19a47,47,0,0,0-5.75-3.45c-.93-.53-1-.88-1.79-1.23a52.45,52.45,0,0,1-7.31-4c-3-2-6-4.34-7.16-6.15s-1-1.3-1.44-3.6c-.2-1,.4-1.17-.72-2.81a11.55,11.55,0,0,0-3.61-3.59,15.49,15.49,0,0,1-3.66-2.76c-.23-.26-.67-1-1.17-1.74s-.94-1.65-1.32-2.22-.68-1.12-1-1.61a7.24,7.24,0,0,1-.71-1.42,4.8,4.8,0,0,1-.12-3.16c.11-.48.89-1.18.79-1.9s-.37-1.53-.6-2.39c-.12-.42-.26-.87-.42-1.33l-.4-1.43a32.91,32.91,0,0,1-1.26-6.52,38,38,0,0,1,0-6.4c.22-2.18.93-4.65,1.16-6.29.45-3.35.26-7,1.35-11.32.28-1,1.13-2,1.3-2.95.44-2.43,2.42-7.24,3.26-10.57,2.79-3.43-.37,1.61,3.26-2.78,1.39-1.67,1.72-1.33,1.51-3.61-.38-.37-.89.23-1.42,1-.31.45-.64.94-.94,1.4a7.8,7.8,0,0,1-.93,1.16,4.06,4.06,0,0,1,.21-1.78,9.35,9.35,0,0,1,.37-1l.38-.91a22.57,22.57,0,0,0,1.48-3.69c.41-1.77-.16-5.78.66-7.42.92-1.81.69,0,.74-2.36,0-.89-.19-1.52-.21-2.78a20,20,0,0,1,.06-2.26l.17-2.74a31.73,31.73,0,0,0-.13-5.64c-.09-.86-.71-1.8-.74-2.52s.58-1.49.55-2.11c0-.25-.32-.72-.48-1.44a4.76,4.76,0,0,1,.44-3c.89-.61,1.67,1,1.75,1.06.31.06,1.09-1,1.56-.47.88,1,.84,5.46,1,8.13.07.66.44.95.46,1.79.06,1.5,0,3.93-.1,6l-1.78-.72c-1.56,2.12,1.5,1.17,2,2.6-.16-.42-.07.68,0,1.9s.07,2.61,0,2.71c-.11.78-2,4.85-1.6,6,.75,2.16-.33.35-1,3.47-.21.81-.05,1.73-.3,3a18.15,18.15,0,0,1-.76,2.54c-.17.47-.34,1-.5,1.47s-.38,1.11-.53,1.67c-.07.23-.88,1.81-.86,1.93.38,2.32-.11.24-1.66,3.9-.21.48.33,1,.17,1.4-.55,1.42-1.81,3.52-2.13,4.79-.53,1.92,0,3.79-.36,5.86-.22,1.19-1.38,3.14-1.74,4.86-.22,1.1,0,2.2-.17,3.33s-.93,2-.88,1.78c-.19.93.5.61.43,1.3-.43,3.37-1.28,8.12-.61,11.75a10.48,10.48,0,0,0,.95,2.83l.58,1.29a11.52,11.52,0,0,1,.55,1.32,3.27,3.27,0,0,1,.12.75c0,.28.07.58.09.88a5.18,5.18,0,0,0,.2,1.52c.64,1.87,2.34,3.66,3.69,5.46a43.68,43.68,0,0,0,3,4.39c.23.23,1,.09,1.2.29a12.4,12.4,0,0,0,3.4,3.38c.81.46,3.36,2.47,5,3.37a11.57,11.57,0,0,1,1.19.76l1.43,1a31.21,31.21,0,0,0,3.36,2.08c2.34,1.19,3.18,1.05,4.26,2a9.52,9.52,0,0,1,1.7,2.49,17,17,0,0,0,1.82,2.75c.2.22.4.42.63.65l.82.78c.56.51,1.15,1,1.76,1.48,1.23,1,2.54,1.88,3.89,2.77,2.64,1.82,5.35,3.62,7.69,5.34.65.47,1.75,2,2.5,2.49s2.41,1.63,4,2.92,4,3.66,6.31,5.84c1,1,1.48,2,2.34,2.83.56.57,1.67,1.48,2.84,2.6a15.34,15.34,0,0,1,3.14,3.88,19.51,19.51,0,0,1,1.52,4.15c.38,1.38.7,2.76,1.12,4.23-2-.11-4.69-5.12-6.59-3.5a9.16,9.16,0,0,1,2,1.88l1.23,1.36c.39.46.79.91,1.17,1.29a47.51,47.51,0,0,1,3.49,5.11c1.48,2.38,2.93,5,3.94,6.4.42.58,1.55,1.57,1.78,2,.69,1.27,1.83,5.57,3.11,8.17.77,1.73,2,.57,3,5.67,0,.15-.89.07-.93.23s.17,1.46.35,2.85a25.07,25.07,0,0,0,.54,3.31c-3.11-1.66-5.76-7.8-8.82-11.61-.42,1.3.09,3.17,1,5.21s2.17,4.24,2.86,6.19,1.79,3.27,2.6,5.64c.6,2.08.81,4.93,1.52,7.07.45,1.37.85,1.31,1.25,2.28a45,45,0,0,1,1.36,4.38c.5,1.79,1,3.7,1.36,5.07.57,2.06,1.31,4.17,1.89,6.22a18.41,18.41,0,0,1,.8,5.75c0,.13-.51,1.94-1,3.7-.24.88-.55,1.72-.75,2.36l-.24.76a1.33,1.33,0,0,0-.08.29c-.76.4-.76-1.78-1.78-3.59-2.16-3.75-1.12-.76-1.88-7.05a16.67,16.67,0,0,0-1-2.32c-.49-2.05-.76-4.13-1.21-5.81a38.86,38.86,0,0,0-1.93-5.41c-.68-1.67-1.32-3.22-1.84-4.8s-1-3.41-1.48-5.21c-.22-.9-.45-1.78-.69-2.62a19.92,19.92,0,0,0-.89-2.29c-.48-1-1.4-1.88-2.1-3.12-.28-.5-.63-1.6-1-2.4s-.82-1.29-1.13-.64c-.17,3.47,1.6,6,2.81,8.77.42,1.15,1,2.83,1.61,4.39.13.32.57,1.66.81,2.21s1,.8,1.11,1c.39,1.23.09,3.35.45,4.58.19.66,1,.83,1.06,1.07a27.84,27.84,0,0,1,.49,2.87,26.69,26.69,0,0,0,.39,2.86c.38,1.91.8,3.53,1.2,5.73.28,2,.39,3.61.55,5.24a46.21,46.21,0,0,0,.77,5.12c.3,1.39,1.1,2.32,1.27,3.51.58,3.5,0,7.4.06,11.08,0,2.21.13,4.19.1,6.49,0,1.12,0,2.35-.14,3.7a49.07,49.07,0,0,1-.76,5.36c-.23,1.5-.68,4.83-1,5.75a18.39,18.39,0,0,1-1.59,3.69c-.51,1-1,1.89-1.6,3.29l-1.07,2.55c-.37.89-.82,1.79-1.27,2.74a57.39,57.39,0,0,1-3.15,5.73,36.21,36.21,0,0,1-8.84,9.75,20.85,20.85,0,0,1-3,1.83,37.94,37.94,0,0,1-4.15,2c-1.43.57-2.78,1.06-3.77,1.41a8.51,8.51,0,0,1-1.19.41l-.48.14c-.44-.06-.34-.42.15-1,.23-.31.61-.61,1-1.09s.91-.87,1.45-1.38L748.2,654c.64-.58,1.28-1.26,2-1.93s1.38-1.35,2.06-2.1l2-2.27a60.4,60.4,0,0,0,10.38-16.79c.64-1.58,1.26-3.17,1.75-4.82.26-.82.52-1.64.75-2.47l.61-2.51c.41-1.66.68-3.37.94-5.05.14-.85.25-1.7.32-2.5l.06-.62,0-.53.07-1c.09-2.57-.22-4.64-.3-6.69-.1-2.92.07-5.59-.18-7.33-.15-1.22-.79-2.55-1.26-4.38a18.78,18.78,0,0,1-.56-3A27.59,27.59,0,0,1,766.77,586.08Z"/><path class="cls-3" d="M314.52,346a1.57,1.57,0,0,0,.43,1c.12-.12.37-1.67.56-1.86s.28.5.76.1.9-2,1.41-2.7c.24-.34.47,0,.8-.38a2.82,2.82,0,0,0,.38-.44c0-.09.18-.91.21-.94.19-.23.35.28.54,0s.47-1.12.69-1.39a2,2,0,0,0,.27-.46c.08,0,0,.59.16.5.31-.25.85-1.25,1.37-1.82s.94-.76,1.52-1.31a5.11,5.11,0,0,0,.41-.93c.19-.09.31.63.49.52.45-.29,1.34-2,1.77-.81.11.29,0,2.09.11,2.41,0,.05.22,0,.22,0a52,52,0,0,1-1.51,6.14c-.29.83-.7,1.39-1.08,2.31a2.32,2.32,0,0,1-.27.46l-.26.46c-.16.44-.26,1.57-.4,1.9-.26.59-.51.32-.75.9s-.42,1.34-.63,1.87c-.12.3-.26.14-.38.45,0,.12,0,.81-.1,1s-.16-.16-.22,0a31,31,0,0,0-1.24,3.26c.34,1.23.89-.19,1.34-.85.73-1,1.34-1.91,2.23-3.18.25-.37.49-.83.91-1.37s.8-1.27,1.27-1.82c.07-.08.19-.56.26-.46s.09.14.49-.44.59.74.31,2.92c-.31,2.51-1.69,3.09-1.74,4.67-.08,2.71,1.45-1,1.7-1.3.46-.56.77-.18.93-.41a8.83,8.83,0,0,0,.3-.94,28.21,28.21,0,0,1,2.14-3.19,9.49,9.49,0,0,1,3.19-3.1c.09.79-.13,2.23-.09,3.37.1,2.61-.72,3.45-1.16,6.16,0,.52.25.6.42.52s.27-.8.39-.93c.3-.33.61-.38,1-.9.13-.18.25-.75.4-.95s.31-.23.47-.47.53-1.14.75-1.41.62-.09.92-.45.67-1,1-1.41.77-1.56.95-1.41c.41.33-.06,1.11.16,1.44.4,0,0-1.33.53-1.9.24-.27,1.08.88,1.27,1.49a10.58,10.58,0,0,1,.28,1.45c.16,1.43-.18,3.74,0,5.28a4.08,4.08,0,0,0,.52,1.46c.2.44.54,1.7,1,1,.24-.37.07-.72.36-.47.14.13.9-1.09,1.18-1.39s.45-.16.69-.46c.07-.08.21-.9.25-.95s.24.13.34,0c.47-.55,1.27-1.09,2-1.85.06-.07.2-.9.24-1,.21-.26.48.06.68-.45s.39-.05.79-.46c.11-.11.28-.86.35-.95.54-.62,1.13-.42,1.9-1,.15-.11.29-.8.45-1,.9-1,1.9-.59,2,2.85a25.54,25.54,0,0,1-.22,3.36c-.13,1-.68,2.16-.23,3.37s1.6,1,2.41.44c.2-.13.28-.71.56-1,0,0,.07.74.12.47.25-1.37,1.42-1.37,2-1.94,0,0,0-.48.11-.48a.82.82,0,0,1,.12.48c.29-.39.4-1.27.65-1.45s.63.06.91,0c.88-.24,1.65-1.57,2.48-.51.4.52.49,1.8,1.17,1.43.16-.09.27-.71.44-.49,0,0,.2.52.42,1.06a12.8,12.8,0,0,1,.46,1.33c.48,2.77,0,8.65,1,6.21.13-.31.16-1.14.29-1.46s.44-.23.56-.52a10.64,10.64,0,0,0,.29-1.45c.27-.57.73-.53,1-1,.06-.1,0-.89.08-1,.15-.33.41-.09.66-.52.14-.23.26-.71.41-1s.38-.08.35,0c.38-.67.37-2,.72-1.49a9.68,9.68,0,0,1,.21,1.91c.64,1.19-.34-.93.23,0,.16.25.23.77.39.94a7.44,7.44,0,0,1-.13,1.93c0,.61.06,1.84,0,2.4-.12,1.28-.53,1.77-.46,2.43.37,3.9,1.43,0,1.72-.58a31.64,31.64,0,0,1,1.81-3c.34-.57.65-1.72,1.12-2.46a4.38,4.38,0,0,0,.31-.5,10,10,0,0,1,1.17-1.51,3.68,3.68,0,0,1,.54-.51s0-.81.08-.49c.3,1.17.22,0,.42-.5s.42,0,.76-.53c.05-.07.13-.93.16-1,.22-.27.48-.29.76-.52a8,8,0,0,0,.75-.53c.73-.71,1.26-1.82,2.22-2.12,0,0,.31.57.49.44.51-.41,1.56.13,2,.76a5.36,5.36,0,0,1,.85,1.85,22.89,22.89,0,0,1,.57,6.21c0,.26-.25.72-.26,1,0,.62.19,1.72.21,2.39a10.24,10.24,0,0,0-.1,1.46c.4,2,1.22.93,1.67.32s1.08-.43,1.33-2.06c.07-.47.89-1,1.25-1.57.12-.19.23-.7.37-1s.27.16.34,0,0-.92,0-1c.15-.24.49.14.69-.07s.21-.89.36-1,.37.42.63.42.73-1,1.16-1.08.89.32,1.31.36c.74.05,1.63-.86,2.24.25a17.11,17.11,0,0,1,.34,1.89,8.64,8.64,0,0,1,.63,2.34c.07.77,0,2.47.16,3.37a3.09,3.09,0,0,1,.23.93c0,.38-.06,2.55-.07,3.4s0,1.19,0,1.93a8.11,8.11,0,0,0,.57,3.81,18.65,18.65,0,0,0,.7,1.84c.26.39.8.06,1.13.33s.56.82.72.87a6.29,6.29,0,0,0,2.34.17c.27,0,.43-.57.66-.58,2.09,0,4.62-.16,6-3.24.21-.46.57-.13,1-.62s.82-1.62,1.26-2.11.79-.17,1.12-.63c.07-.11.05-.55.16-.51s.24.38.19.46c.3-.47.27-1.3.5-1.52.59-.58,2.28-1.27,2.5-.91,0,0,.27.93.27.93s.25.78.19.45c.14.74-.09,1.19,0,1.47.87,2.73,2.61.77,3.18-.55.44-1,1.75-1.17,2.7-1.92s1.46-2.32,2.1-1.82c.43.34,1.2,2.89,1.53,3.15.75.62,1.2-1,1.95-1.3.18-.08.48.37.67.37.43,0,1.43-.69,2.12-.37s1.45,1.81,2.09,2c1,.35,2.18-.42,3.4-.68a15.81,15.81,0,0,0,3.52-.71c.52-.25.9-1,1.45-1.27,1.2-.6,2.73.14,3.63-.73.19-.19.26-1,.51-1.08.54-.15,1.28,1,2.07.55,1.08-.63,2.49-2,3.76-2.83.29-.18.56,0,.81-.18s.58-1,.95-1.2c.16-.08.51.46.68.33.52-.38.82-1.48,1.3-1.77.32-.19.72-.06,1-.23.73-.41,1.33-1.33,2-1.44.08,0,.24-.2.34-.08s.34.91.34.91.15-.86.35-1.07c.49-.48,1.42-.38,1.85-.42s.88-.66,1.5-.35c1,.53,2,1.8,2.73,5.26-.07-.31.22,1.46.22,1.43,0,.3-.25.23-.23.55,0,.93.25,2,.21,2.42,0,.26-.38.15-.46.61,0,.12.13.88.1,1s-.21-.09-.23.06c0,.44.12,1.28.1,1.95,0,.42-.23.59-.25,1-.06,1.69-.23,4.26.65,4.28.11,0,.12-.64.36-.57s.81.84,1.05.74.27-.82.48-1.11.68-.09.94-.73.11-.64.59-.64.43-.84.82-1.2,1-.39,1.4-.85.82-1.29,1.29-1.8,1.23-.74,1.75-1.43c.15-.2.18-.88.35-1.08s.56,0,.81-.2a4.74,4.74,0,0,0,.92-1.72,3.88,3.88,0,0,1,.92-1.22c.65-.73,1.91-1,2.54-2.12.16-.28.18-.9.33-1.08s.57-.05.81-.21c.44-.29.74-1.22,1.13-1.3s1.74,1.32,2.07-.06c.17-.74,1.19-.53,1.93-1,.21-.14.19-.52.34-.59s.72.41.92.25.05-1,.21-1.05.61.39.81.28c.65-.36,1.11-1.22,1.7-1.46.38-.15,1,.15,1.49.1.78-.09,1.53-1,2.29-.62a5.73,5.73,0,0,1,1.67,2c.37.82.94,3.24,1.15,3.67a8,8,0,0,0,1.2,1.66c.85,1,1.2,1.46,2.11.9,0,0,.06-.52.21-.56s.5.33.47.36c.16-.17.06-.92.2-1.05s.52,0,.69-.2.17-.81.31-1.09.34,0,.45-.13.19-.84.31-1.08c.31-.62.83-.36,1-1.29,0-.16-.05-.94,0-1,.11-.26.43,0,.57-.17a6,6,0,0,0,.19-1c.05-.19.3.11.34-.1s-.16-.92-.15-.95c.19-.42.58-.4.78-.73.49-.81.73-3.3,1.76-2,.65,1.59-.3.39.06,1.48.4.45.32-.15.7.3s.72,1.65,1,1.71.34-1,.53-1.15.87,0,1.25-.35.37-1,.65-1.19a4.58,4.58,0,0,1,3.51-1c.22.06.45.61.72.79.43.28.65-.15,1,.19.61.53,1.29,2,1.84,2.46,1,.9,1.74.25,2.67.7.23.11.64.72.84.75.52.1.84-.43,1.36-.4s1.51.73,2.23.84,1.18-.44,1.84-.05,1.47,2.05,2.08,2.38,1.67-.15,2.64-.28c0,0-.14-.54,0-.5,1.17.48,2.41-.64,3.27-1,.2-.08.4.45.59.32a1.65,1.65,0,0,1,.9-.28c.24,0,.25-.61.43-.63a2.48,2.48,0,0,0,1.46-.45c.18-.12.49.4.71.29s.5-.59.87-.77c0,0-.17-.77,0-.49.75,1.39.41-2,.79-2.25s.88.71,1.44,1.06c1.37.86,2.92.33,4.48.14.26,0,.57-1.06,1.19.64-1.21-.12-2.07,1.05-3.13,1.46-.16.06-.55-.38-.71-.29s-.21.91-.39,1.13-.48-.4-.71-.29-.1.54-.31.6-.61-.35-.82-.25c-.82.39-1.41,1.81-2.17,2.17-.11.05-.29.27-.45.13s-.33-.84-.51-.84.1.89.06,1-.35-.41-.37-.39c-.87.9-2.36.61-3.58,1.6-.34.28-.49,1.13-.85,1.27-1.06.42-2.49-.7-3.12-.07-.14.15-.32,1.22-.52,1.16s-.33-.83-.39-.89c-.41-.4-.42.13-1-.71-.36-.56-.84-1.59-1.23-1.63s-.62.35-1,.3-.75-.59-1.07-.68c-.87-.26-1.37.67-2.16.64-.27,0-.73-.61-1.07-.68s-.82.44-1.36.41c-.21,0-.72-.65-1-.72-.74-.23-.59.74-1.29-.62,0-.07-.36-.86-.39-.88-.22-.21-.32.47-.56.17-.1-.12-.41-1.18-.52-1.35a12.67,12.67,0,0,0-1.09-1.18c-.25-.18-.44.28-.79.24-.55-.07-1-.87-1.63-.52-.08,0,0,.61-.09.53s-1-.36-1.39-.1c-.2.14-.24.91-.42,1.12s-.78.06-1.14.33c-1,.76-1,3.59-2.36,1.67-.24-.34-.11.13-.36-.4a6.21,6.21,0,0,0-.38-.89c-.47-.76-.69-.7-.93-.23-.05.09,0,.6-.1.53s-.17-.61-.24-.43c-.15.34-.11,1.3-.29,1.58-.37.55-1,.24-1.24.85-.12.31-.06,1.33-.18,1.55-.22.43-.65.36-.89.76a13.09,13.09,0,0,0-.64,1.68c-.11.25-.29.3-.44.62s-.1.95-.2,1.06c-.36.38-.92.05-1.26.36-.49-1.4.06-1-.42-2.38-.45.38.56,2.63.56,3.34-.76,0-1.48.39-2.19.13-.48-.19-.78-.82-1.57-2.07a15.29,15.29,0,0,1-1.72-3.51c-.23-.55-.8-2.14-.87-2.25-.32-.46-.62.06-1.16-.18-.27-.12-.67-.75-.83-.77-.89-.1-1.62,1.13-2.51,1.67-.46.28-1,.11-1.37.37s-.34,1.09-.56,1.15-.74-.69-1.05-.71a.93.93,0,0,0-1,.77c-.07.25,0,.93-.09,1s-.79-.88-.94-.74c-.36.35-.41,1.86-.77,2.2-.95.9-3.27-1.17-3.81,1-.15.59-1.95-.12-2,1.48,0,.95.12.63-.47.62s-.79.74-1,1.74c-.21.82-.31-.26-.7-.32a5.09,5.09,0,0,0-.7,1.17c-.11.26-.1.9-.23,1s-.8-.08-1,.26-.33,1.35-.58,1.63-.5-.47-.82-.29,0,.74-.24,1.05-.58,0-.7.18a5.13,5.13,0,0,0-.36,1.07c-.33,1.25-1.31,1.55-2.24,2.55-.19.2-.15.78-.36,1.08-.33.46-1.15.46-1.77.94-.32.23-.62.8-1.2.76a2.14,2.14,0,0,0-.48.11c-.16-.09-.34-.77-.46-.88-.45-.45-.39-.11-.92-1.26l-.46-.88a35.06,35.06,0,0,1-1.21-5.64c0-.28.45.12.47-.1s-.21-1.76-.2-2.42c0-.31.22-.27.24-.55s0-.67,0-1c.1-1.16.31-2,.38-3s0-2.41,0-3.46c-.66-.94-.94,0-1.5-.14-.24-.07-.69-.8-.91-.77s-.33.89-.59,1.12c-.42.35-1.13-.27-1.62-.13a4.82,4.82,0,0,0-1.4.81c-.25.21-.36,1-.6,1.12s-.59-.51-.8-.3a1.61,1.61,0,0,0-.47.6c-.1.22-.1.92-.25,1s-.74-.38-1-.26-.24.81-.49,1.1c-.56.65-1.55-.23-1.87.92-.08.28,0,.84-.14,1-.3.4-.79,0-1.17.27s-.27.82-.49,1.09-.31-.42-.46-.39-.29,1-.49,1.1-.34-.5-.45-.39-.21,1-.39,1.07-.44-.39-.68-.33-.32.54-.49.59c-.4.09-.89-.32-1.28-.24s-.35.62-.61.62-.58-.4-.81-.33c-.8.23-1.5,1.48-2.38,1a3.9,3.9,0,0,1-.57-.38c-.21.07-.21.83-.4,1.06-.52.66-1.13.34-1.77.36s-1.12.68-1.68.82c-1,.26-2.2,0-3.28.17-.88.15-1.34,1.17-2.25.45-.44-.34-1-1.95-1.5-2.16-.31-.11-1.52,1.12-2,1.32s-.76.05-1.19.2c-.7.24-1.44,1.41-1.82.8s-.88-3.83-1.1-4.2-1.94.34-2.05.84-.47.21-.87.63c-.14.15-.18.91-.31,1-.47.44-1.13.23-1.58.75-.3.35-.46,1.25-.72,1.59s-.42,0-.6.1-.4,1-.56,1.07a1.38,1.38,0,0,1-.91-.34l-.47-1c-.23-.54-.47-1.1-.5-1.22-.38-1.49-.08-2.21-.45-2.85a.82.82,0,0,0-1.25-.27c-.22.16-.14,1.11-.37,1.51-.11.2-.51-.18-.84.12s-.25.86-.45,1c-.37.32-.92-.06-1.36.67,0,.07-.07.94-.1,1-.16.2-.42,0-.6.08s-.29.87-.46,1c-.77.75-1.51.93-2.2,1.76-.32.37-.6,1-.84,1.08s-.56-.49-.79-.38c-.43.23-.45,1-.71,1.07s-.55-.41-.79-.38-.42.48-.66.58-.54-.43-.79-.38-.18.57-.42.54-.7-.74-1.08-.82c-.2,0-.36.53-.55.56-.35,0-1-.75-1.44-.78-.22,0-.36.64-.54.56s-.54-.6-.84-.85-.88-.6-.78-.4a25.12,25.12,0,0,1-1.32-6.14,31.08,31.08,0,0,1,0-3.37c0-.79-.1-1.3-.11-1.92a37.27,37.27,0,0,0-.32-4.79c-.2-2-.08-2-.57-2.84s-.12.53-.64.55c-.29,0-.64-.49-1-.39s-.52.64-.76.56-.51-1-.68-.9a3.66,3.66,0,0,0-1.12,1.56c-.09.23-.13.39-.3.51s-.56-.49-.86-.39-.4.66-.6,1a6,6,0,0,0-.6,1,12.34,12.34,0,0,1-.28,2c-.61,1-1.21-.28-1.78,1.14-.11.27-.25.13-.31.51,0,.11,0,.92,0,1-.14.32-.27-.59-.39-.44s0,.88-.15,1c-1.12.73-2.49-.32-2.55-6,0-.38,0-.92,0-1.45,0,0,0-.32,0-.67v-.78c0-.37.45-.84.45-1.49,0-.08-.24-1.3-.28-1.9a9.38,9.38,0,0,0-.06-1.92c-.15-.64-.19-.06-.38-.44,0-.08-.18-.93-.2-1a2.71,2.71,0,0,0-1.51-.33c-.25,0-.51.55-.87.56a1.77,1.77,0,0,0-1.55.63,3.58,3.58,0,0,0-.53.51c-.14.19-.26.84-.39,1-.89.94-1.82,1-2.18,1.57s-.53,2.11-.76,2.45c0,0-.35-.22-.69,0a9.37,9.37,0,0,0-.29,1c-.16.11-.27-.62-.38-.46s0,.8-.25,1.46c-.15.48-.4.05-.55.51s-.26,1-.38,1.47c-.07.29-.19,1.28-.27,1.46s-.34-.15-.47,0-.13.91-.18,1c-.19.28-.49.16-.67.52-.44.83-.76,2.25-1.15,2.95-.56,1-1.06,1.79-1.37,1a15.36,15.36,0,0,1-.21-1.92c-.08-.42-.22-.27-.28-.94-.25-2.74.12-5.89.1-7.7-.53-.08-.81,1.82-1.16,2.47s-.64.5-.89,1a29.66,29.66,0,0,0-.93,2.94c-.11.32-.24.22-.34.5s-.13.77-.2,1-.25.2-.33.5a2.49,2.49,0,0,1-.66,1.45c-.52.63-.5.7-.74-.95-.21-1.41-.23-7.52-.63-8.63-.35-.95-.63.77-1.13,1,0,0-.15-.65-.24-.48s-.19.75-.47,0c-.34-.91-.05-1.66-.43-3.35-.66.22-1.26-.27-1.83,0-.17.08-.27.77-.44,1-.32.36-.73.19-1.14.5-.74.55-1.49,1.64-2.51,1.95,0,0-.11.67-.23.48s0-.56-.12-.48-.28.77-.46,1-2,1.09-2.32.51c0-.06-.16-.78-.23-.95-.42-1.15-.58-4.72-.21-8.16.16-1.57.17-2.2-.45-2.39-.09,0-.18.59-.34.48a.53.53,0,0,0-.78,0c-.41.45-.67,1.42-.8,1.45-.71.18-.36-1.7-.91,0-.42,1.28-1.47,1.3-2.29,2.32-.44.54-.88,1.3-1.41,1.87-.22.24-.5.17-.7.46s0,1.17-.15,1.43c0-.06-.44.14-.7.46s-.81,1.25-1.42,1.39c-.27.06-.39-.49-.56-.5-.59,0-1.07.74-1.45-1.49,0-.1-.06-.92-.08-1-.27-.57-.11-.45-.27-1.93,0-.28-.18-.79-.18-1-.11-1.81.13-3.67-.17-4.32s-1.87,1.68-2.47,2.31-.78.2-1.2,1.4c-.29.85-.33.29-.84.94a7.64,7.64,0,0,1-.4.94,10.25,10.25,0,0,0-.39.95c-.19.23-.39-.26-.57,0s-.26.73-.4.94-.29.16-.49.44-.66,1.31-.78,1.38-.16-.54-.31-.51-.72,1.09-.74-1c0-1.08-.12-1.56-.1-1.94a18,18,0,0,1,1-4.73,14.83,14.83,0,0,0,1-3.77c-.17-2-.86.76-1.57,1.8s-1.52.69-2,2.72c-.29,1.25-.5.09-1,1.36l-.3.94c-.17.2-.39-.36-.56-.05s-.16,1.19-.34,1.41a4.39,4.39,0,0,1-.49.44c-.36.26-.73-.28-.92-.07s-.09,1.12-.23,1.42-.62.15-.84.41-.4,1.67-.77.9a10.91,10.91,0,0,1,.65-4.76c.1-.25.18-.9.31-.94s.11.69.18.5.16-1.14.24-1.43a11.79,11.79,0,0,0,.8-2.82c-.3-.12-.48.4-.75.9-.06.11-.17-.17-.22,0-.14.41-.2,1.13-.35,1.42s-.42,0-.61.43c-.43.88-.88,2.95-1.44,3.25-.23.13-.39-.7-.52-.53-.26.38-.46,1.6-.8,2.35-.22.48-2.33,3.45-2.77,2.17,0,0,0-.57,0-1.21s0-1.36,0-1.68c.1-1.1.25-.87.38-1.42s0,.06.05-.47c.07-1.82.41-.95.77-1.86.12-.32.31-1.83.47-2.37,0-.14.22-.32.27-.46.5-1.43,1.38-2.68,2-4.17.27-.67.53-1.7.78-2.35a4.45,4.45,0,0,0,.68-1.38c0-.16.05-.87.09-1,.32-.75.71-.6,1-1.36.35-.93.38-1.94.68-2.83.08-1.8-.37-.06-.44-1,.08-.69.33-.14.4-.93s-.38,0-.4.93c0,1.91-.66.65-.84.89s-.15.8-.3.94-.35-.23-.54-.05c-.34.34-.81,1.33-1.26,1.82s-1.51.2-1.88,1.29c-.09.27-.16,1.3-.26,1.43s-.36-.26-.66-.06-.71,1.61-1,1.84-.35-.72-.49-.55a7.15,7.15,0,0,0-.43.91c-.09.15-.25.19-.39.43s-.17.86-.22.94-.14-.17-.22,0a4.8,4.8,0,0,1-.93,1.32c-.47.54-3.27,5.11-3.28,2a7.85,7.85,0,0,1,.88-4.24c.16-.36.13,0,.28-.45s.38-.23.62-1.37c-.42-.82-1.12.89-1.67,1.71-.25.39-.57,1-.84,1.34a22.09,22.09,0,0,0-1.76,2.18c-.23.36-.54,1.13-.75,1.35s-.36-.27-.56-.08-.32.91-.36.92c-.34.2-.63-.27-1-.13.2-1.62.22-2.76.58-4.77-.17.13-.3.17-.69.88-.18.33-.33,1-.54,1.37s-.43.1-.63.4-.39,1.12-.55,1.38c-.4.66-.76,1.05-1.19,1.78s-.93,2-1.16,2.26-.45-.29-.68-.1c0,0-.42,1.67-.6.89a9,9,0,0,1,.31-3.35c.43-2,1.29-1.83,1.62-3.65,0-.52-.09-.2-.23,0s-.26.24-.4.43a13.53,13.53,0,0,0-1,1.8c-.16.31-.16.11-.3.45-.46,1.07-2.26,4.24-2.73,3.87-.22-.17-.19,0-.28-1-.05-.46.07-1-.18-1-.58,0-1.07,2.05-1.7,3.09-.12.2-.52.53-.74.83-.46.63-.75,1.32-.88.32,0-.19.05-1.05-.05-1-.44.25-1.3,2.19-2.07,3.52-.37.62-.71,1.24-1.05,1.75s-.69.8-1,1.28c-.55,1-1.26,2.79-2,4-.18.29-.28.07-.45.4-.44.9-1.21,1.83-1.84,3.07-.46-.31.31-.64-.28-1-.23-.15-.14-.62-.67.84-.23,1,.38.3.5.59-.49,1.5-.93,1.34-1.44,2.16-.36.59-1.36,3.09-1.65,3.11s.07-.59-.47.39c-.2.38-.36.8-.66,1.34-.6,1.1-1.57,2.1-2.4,3.44-.21.34-.51,1.13-.68,1.34s-.23-.23-.37-.07-.62,1.55-.95.79a11.1,11.1,0,0,0,.73-3.28,13.69,13.69,0,0,1,1.84-2.57c.15-.23.27-.65.45-.89l1.25-1.72-.4,1.88c.26.68.46-1.78.85-2.77-.22.57,1-1.71,1-1.76a2.43,2.43,0,0,0,1.13-1.25c.56-1.69,0,.14.67-.84.17-.26.38-.84.65-1.34s.68-.95,1.1-1.75c0-.08.3-.33.33-.42.52-1.62,0,0,.66-.85.08-.1.24-.83.3-.92.24-.32.56-.45.78-.83.33-.58.76-2,1.14-2.71.21-.42.47-.36.76-.83.18-.3.43-1,.62-1.35s.27,0,.22.05c.16-.22.18-.72.3-.92.58-1,1.3-1.74,2-3,.4-.75.82-2,1.2-2.7.18-.33.39-.18.54-.39.38-.54.93-1.85,1.4-2.66.34-.57.68-.69,1-1.26.06-.11.23-.86.28-.93a3.73,3.73,0,0,0,.9-1.29c.2-.45.82-1.46,1.18-2.21s.77-1.2,1.26-2.2a11,11,0,0,1,.86-1.79c.22-.15.37,1,.59,1.09.55.13,1.6-2.27,2.33-3.56.1-.18.27-.17.39-.43s.4-.9.65-1.36.66-1.15,1-1.8c.16-.28.24-.15.39-.43s.75-1.84,1-1.8.32,1.08.52,1.52c-.36,1.85-.85,1.77-1.16,4.21a17.49,17.49,0,0,1,.81-1.83c.21-.56,1.1-1.37,1.5-2.22.08-.18.29-.84.34-.92.16-.25.5,0,.8-.38.2-.28.33-1.7.72-1.35,0,0,0,.22-.07.45a4.54,4.54,0,0,0-.06.5c0,.14.35.66.45.55a28.64,28.64,0,0,1-1.94,5.55c0,1.67.74-.22,1.19-.81.23-.3.46-1.06.72-1.36s.45,0,.7-.38a8.92,8.92,0,0,0,.33-.92c.25-.57.76-1.2,1.08-1.8.49-.89,1.06-2.45,1.34-2.23l.07.32.13.7c.09.51.19,1,.19,1a8.35,8.35,0,0,1-.55,1.86c-.6,2.13-.2,1.12-.86,1.82-.08.09-.27.81-.33.92-.24.39-.45.54-.65.88-.48.81-.94,2.08-1.33,2.73s-.8.62-1.16,1.29c-.14.25-.33,1-.52,1.38a2.13,2.13,0,0,0-.52,1.39c.19,1,.64-.27,1-.84.15-.23.36-.54.56-.89,0-.07.2-.3.28-.44s.2-.9.23-.94c.15-.22.28.28.43.06s.2-.91.23-.94c.23-.25.37-.12.6-.4s.41-.6.65-.88c.44-.51.67-.38,1.14-1.3.17-.34.35-1.16.49-1.38.41-.66.7-.31,1.06-.82s.79-1.44,1.32-2.24c.11-.15.37-.85.42-.91.22-.22.22.32.42.06.45-.6,1.21-2.46,1.62-2.27a6.24,6.24,0,0,1,.58,1.5,14.45,14.45,0,0,1-1.3,4.22,18.62,18.62,0,0,1-1.48,2.68c-.5.75-1,1.45-1.55,2.29-.25.39-.49,1-.71,1.36s-.55.5-.76.86S315.05,346.35,314.52,346Z"/><path d="M500.37,249.05a6,6,0,1,0-6-6,6.08,6.08,0,0,0,6,6Z"/><path d="M324.39,266.2a6,6,0,1,0-6-6,6.07,6.07,0,0,0,6,6Z"/><rect class="cls-4" width="784.58" height="784.58"/></g></g></svg>