<svg xmlns="http://www.w3.org/2000/svg" viewBox="0 0 784.58 784.58"><defs><style>.cls-1{fill:#b3b3b3;}.cls-2{fill:#a779cd;}.cls-3{fill-rule:evenodd;}.cls-4{fill:none;}</style></defs><title>자산 7</title><g id="레이어_2" data-name="레이어 2"><g id="레이어_1-2" data-name="레이어 1"><path class="cls-1" d="M154.31,627.61c43.84,27,85.7,26.3,125.61-6.7,4.15-3.44,10.06-5.19,15.17-7.73,19.53,7.63,40.88,9.79,61,7.94,57.2-5.27,114.05-.39,171,.85,16.67,6.85,33.19,14,50,20.5,31.9,12.31,64.92,13.85,98.61,7.1-2.18,34.62-8.87,39.17-47.7,39.42-121.51.78-242.48-12.51-364.12-10.28a227.84,227.84,0,0,1-97.62-20.53C151.15,651.3,144,642.27,154.31,627.61Z"/><path class="cls-2" d="M685.48,461.35c7.26,9.26,4.69,22.35,28.42,46,25.24,25.12,36.16,54.18,34,89.15-1.44,22.78-11.79,34.75-34.11,43.64C662,660.72,614.81,653,568.62,626.25c-31.21-18.1-63.8-34.35-98.62-43.39-72.35-18.78-139.71-3.28-201.2,37-25.09,16.43-48.26,30.76-80.5,15.34-39.65-18.95-50-33.11-47.79-76.23.65-12.55,1.25-25.34-.44-37.72-3.74-27.43-14.75-51.44-46.14-55.72-22.9-3.12-39.59-21.4-63-21.52a686.92,686.92,0,0,1,98.41-27.54c200.18-40.2,249,43.92,432.09,22.75C588,436.13,657.93,426.15,685.48,461.35Z"/><path class="cls-3" d="M762.36,544.81c-.19-.19-.16,1-.06,2.19a22.56,22.56,0,0,0,.21,2.8c.33.9,2,1.14,2.47,2.5a10.06,10.06,0,0,1,.44,2.65,19.24,19.24,0,0,0,.68,4.14,26,26,0,0,0,1.88,4.4,34.84,34.84,0,0,1,2.09,5.08c.57,1.79.34,4.27.89,6.88,0,0,.12.65.24,1.32s.28,1.39.36,1.63,1,.74,1,1c.24,1.48-.26,3.47,0,4.94.29,1.86,1.19,3.17,1.36,5a14.47,14.47,0,0,0,.38,2c0,.78-.63,1-.57,2,0,.64.11,1.37.22,2.19.05.4.11.83.17,1.27s.1,1,.16,1.46a60.69,60.69,0,0,1,.37,6.79c0,1.27,0,2.44-.16,3.69s-.21,2.46-.38,3.76c-.11.68-.21,1.37-.31,2.06s-.26,1.62-.46,2.49c-.38,1.72-.74,3.55-1.3,5.46a23.62,23.62,0,0,0-.55,3,14.35,14.35,0,0,1-.31,1.83,19.52,19.52,0,0,1-2,3.59,31,31,0,0,0-2.08,3.3,62.6,62.6,0,0,1-6.47,10.34c-2.91,3.59-6.64,6.88-10.48,8.52-1.81.85-3.27-.45-5.4.31-.28.08-2.71,1.45-2.79,1.39-.48-.24,1.46-2.73,3.44-5.32,1-1.36,1.91-2.8,2.71-4s1.36-2.26,1.7-2.76.89-1.24,1.39-2,1.08-1.49,1.63-2.31a32.91,32.91,0,0,0,2.8-5.21c.36-.93.61-1.17,1.15-2.46,0,.09,1-2.34,1-2.49.32-1.49-.72-1.95-.42-3.26.54-2.3,2-5.07,2.08-7.32.15-2-.35-3.51-.41-5.25a8.46,8.46,0,0,1,.17-1.72,6.71,6.71,0,0,0,.12-1.63c-.05-.36-.87.15-.94-.19s.44-1.57.37-2a29.48,29.48,0,0,0-2.27-8.11c-1.56,3.63-.62,7.11-.67,10.58,0,.67-.05,1.45-.09,2.18s-.15,1.5-.23,2.24c-.13,1.51-.44,3-.71,4.54a46.6,46.6,0,0,1-3.35,10.06,32.32,32.32,0,0,1-4.44,7.23l-.93,1.15-1,1.07c-.68.7-1.3,1.47-2.06,2.12s-1.5,1.36-2.35,2-1.8,1.29-2.83,2a7.55,7.55,0,0,1-2.1,1.47A7.72,7.72,0,0,0,734,646l-.94.57c-.26.15-.35.25-.58.4l-.72.52c-2.42,1.68-5,1.28-5.14-1.05,0-1.34,2.21-3.1,4.4-4.73a42,42,0,0,0,3.71-2.61c.86-.78,1.28-1.36.89-1.61-.66-.44-1.65-.22-2.87.26a17.33,17.33,0,0,0-1.94,1c-.34.19-.72.4-1,.6l-.84.59c-2.24,1.61-4.44,3.6-5.18,4.07-2.83,1.74-5.42,2.38-6.37,3-.6.39-.78,1-1.32,1.52-2.52,2.32-8.86,5.55-13.23,8.31-1.28.78-2.89,1.66-4.7,2.59s-3.88,1.83-6,2.76-4.36,1.76-6.52,2.54-4.29,1.46-6.21,2c-1.3-.54-.47-2.19-1.62-3.11-1.33-1.06-.44-2.13,1-3.32s3.25-2.6,4-4.18c-.37-.44-2.39,0-3.64.35-1.74.55-1.61,1.18-2.47,1.51-2.11.78-4.52,1.36-7,2.26-.86.33-1.48,1-2.59,1.39-1.59.53-2.43.55-3.64.95-1,.31-1.89.71-2.79,1.1a20.1,20.1,0,0,1-2.68.9,26.88,26.88,0,0,1-3.78.54,30.26,30.26,0,0,0-3.77.38c-2.09.45-5.25,1.07-7.66,1.49-.68.11-1.4.29-2.13.42l-2.19.37a13.39,13.39,0,0,1-3.58.26c-3.74-.58.15-1.08-1.83-1.58-3.46-.35.14,1.37-4.11,1.46a13.17,13.17,0,0,1-2.44-.32c-1-.19-2.23-.57-3.42-.92a30,30,0,0,1-5.48-2.09,11.59,11.59,0,0,1-2.51-2c-1.42-1.78,1.12-3.58-.62-5.55a18.23,18.23,0,0,0-4.06-2.56c-.8-.46-1.84-1.13-3.07-1.81a11.4,11.4,0,0,0-4.44-1.46c-1.83-.19-.59.6-2.7-.41a24.32,24.32,0,0,0-4.05-.86c-1.84-.32-3.79-.7-4.86-.94-1.9-.43-3.3-1.14-5.15-1.6-.46-.11-1.69.27-2,.18-.82-.2-1.67-.84-2.46-1.07-3.52-.94-9.35-3-14.43-4.59-.45-.14-1.68.2-2,.1-1.58-.45-3.31-1.65-4.91-1.85s-2.71-1.27-5.63-2.22c-.82-.27-2.22-.11-2.73-.27a56.88,56.88,0,0,1-6.14-2.37l-3.37-1.43-1.85-.73-2.06-.78c-1.08-.39-2.4-.24-3.58-.61-6.78-2.13-13.65-5.84-12.88-9.28.15-.67,1.19-1.65,3-2.3,1.36-.48,5.6.29,3-2.29-2.77-2.75-10.38-6-16.13-8.15-1.43-.52-2.27-.27-4.29-.92.31.1-.13-.88-.58-.79-2.35.41-10.31-3.19-14.77-4.45-.17,0-.25.41-1,.11-.38-.17-.92-.86-.59-.78-2.22-.52-3.4,0-5.21-.6s-4.27-1.78-6.23-2.46c-6.2-2.13-12.2-2.8-17.38-5.5a29.83,29.83,0,0,1-2.86-1.94,11.57,11.57,0,0,0-4.66-1.69c-1.12-.21-2.23.15-3.3-.36l-2.44-1.66a24.58,24.58,0,0,1-2.65-2c-2.18-3.26,4.2-8-4.58-7.24-1.09.11-1.65.86-2.76,1s-3.23-.29-4.27-.14a10.09,10.09,0,0,0-2.68,1.08c-2.17.33-5.45-.12-7.57.26-.4.06-.58.84-.89.9a11.16,11.16,0,0,1-2.21.06,14.86,14.86,0,0,0-2.75.18c-1.07.19-2.07.59-3.3.88a8.72,8.72,0,0,1-2.45,0,10.48,10.48,0,0,0-3.05,1.2,3.57,3.57,0,0,1-2.59.39,2,2,0,0,1-.91-1.88c-4.22-1,2.18.78-1.63.1-1-.18-1.39-.67-2.53-.77-.7-.66.9-1.1,1.51-2,.41-.64.14-1.85.68-2.46,1.22-1.4,4.4-1.93,4.15-2.6-.74-1.93-3.43-1.89-6.17-1.11a50.78,50.78,0,0,0-6.67,2.61c-1.18.42-2.31.86-3.42,1.28s-2.22.81-3.34,1.2c-2.23.85-4.48,1.69-7.05,2.8s-5.13,2.83-8.69,4.38c-1.22.53-1.76.71-2.4,1-1.28.67-6,2.46-8.78,3.59-1.19.49-2.72,1-4,1.5.15-.05-.17.88-.7.68-1.91-.72-1.61.43-3.14,1.34-1.68,1-3,.78-5.56,2-.37.18-1.1,1.28-1.34,1.39-1.65.73-3.51,1.28-5.47,2.14-1.66.71-3.65,1.38-5.41,2.23-1.31.61-2.54,1.23-3.74,1.83l-3.58,1.9c-2.45,1.24-5,2.61-8.27,4a12.52,12.52,0,0,0-3.19.82,32.08,32.08,0,0,1-3.15,1.43c-1.16.51-2.41,1-3.65,1.47-2.48.88-4.82,1.72-6.19,2a14.45,14.45,0,0,1-5.24.54c-2.16-.12-4.3-3.28-2.93-5.51.27-.43,1.7-1.72,1.81-2,.21-.79-1.08-1.39-1.11-2.13,0-.39,1.34-1.86.9-2.05a3.57,3.57,0,0,0-2.33,0,14.43,14.43,0,0,0-2.93,1.35c-1,.59-2.07,1.28-3.05,2s-1.85,1.43-2.6,2c-3.2,2.5-6.9,4.58-8.56,7.52-.48.85-5.48,4.82-7.65,7.07-.74.75-1.4,1.84-2.25,2.8-.49.55-1.64.94-2.11,1.51-.2.23,0,1.13-.16,1.28-1,.94-3,1.91-4.33,3s-1.39,2-2.43,2.75c-1.37,1-2.34,1-4.07,1.95-2.4,1.43-5.29,4-8.48,5.49a31.13,31.13,0,0,1-4.82,1.7c-.85.22-1.68.48-2.53.67s-1.69.37-2.51.58-1.47.37-2.25.53l-2.39.54c-1.62.3-3.32.58-4.91.76s-3.11.2-4.47.19a9.65,9.65,0,0,1-1.91-.16,11.47,11.47,0,0,1-1.58-.38c-1.23-.41-.13-1.25-.87-1.93a12.7,12.7,0,0,0-1.7-1c-.59-.36-1-.86-.83-1.46s1.92-2.39,1.85-3.3c0-.13-1-.47-.78-1s2.59-2.47,3.25-3.31.8-1.15,1.49-1.9c1.26-1.44,1.73-2-.79-3.84a19.16,19.16,0,0,0-2.74-2,20.51,20.51,0,0,0-2.83-.47,12.35,12.35,0,0,1-3.17-.56c-1.48-.55-2.35-1.22-3.14-1.5a107.19,107.19,0,0,1-12.25-4.42,12.42,12.42,0,0,0-2.18-.65,10.7,10.7,0,0,1-2-.7c-5.6-2.86-11.77-6.72-18.11-10.75-3.18-2-6.39-4-9.61-5.84l-2.31-1.29c-.58-.32-1.17-.62-1.76-.92l-.9-.42-.82-.46c-.55-.3-1.11-.58-1.67-.85a6.44,6.44,0,0,1-1.79-1.53c-.66-.62-1.25-1.44-2.2-2.31-1.93-1.91-4.26-3.67-5.7-6.12-1.22-1.9-1.61-4.15-2.57-6.2-.23-.44-.7-.6-.77-1.25,0-.24.2-1.13.34-.79-.86-2-1.67-2.48-2.09-4a39.9,39.9,0,0,1-.69-4.15c-.12-1.69-.31-3.54-.28-5.35a31,31,0,0,1,.53-7.35c0,.06.23-.12.5-.31l.54-.38c-.12.14.89-.75.56-.73.75,0,.95,2,1.27,1.7a4.08,4.08,0,0,0,1-1.4,6.68,6.68,0,0,0,.4-1c.14-.49.27-1,.38-1.59a35.91,35.91,0,0,0,.57-7.6,64.36,64.36,0,0,0-1.71-13.22,30.89,30.89,0,0,1-.65-4c-.08-.76-.15-1.58-.2-2.41s-.11-1.89-.16-2.89a126.54,126.54,0,0,0-1.13-12.78c-1.09-7.63-3.87-14.09-4.45-18.59-.34-3,1.29-6.35.71-8.78a21.08,21.08,0,0,0-1.54-4.14,35.17,35.17,0,0,0-2.48-4.12,86.17,86.17,0,0,0-6.61-8.14c-1.13-1.33-2.13-3.08-3.36-4.39-.68-.66-1.67-1.59-2.88-2.61s-2.62-2.1-4.12-3.11-3-2-4.5-3-2.83-1.77-4-2.45c-4-2.61-7.43-5.87-11.82-7.85-1.73-.74-3.68-1.53-5.74-2.18-1-.34-2.11-.69-3.19-1l-1.65-.46-.84-.23-.21-.06h0l-.18,0a74,74,0,0,0-7.34-1.39c-1.2-.16-2.39-.32-3.56-.56a29.5,29.5,0,0,1-3.46-.95l-6.87-2.21c-2.27-.71-5.3-1.18-7.8-2.3a19.77,19.77,0,0,1-4.54-2.77,31,31,0,0,1-3.41-3.36c-1.19-1.34-2.34-2.67-3.75-4a17.22,17.22,0,0,0-2-1.29c-.38-.24-.76-.48-1.08-.73a4,4,0,0,1-.43-.37c-.1-.07,0-.08,0-.11l.16-.08a32.84,32.84,0,0,1,4.42-1.22,29.32,29.32,0,0,0,4.9-1.46l.49-.23c2-1,4.15-2.26,6.63-3.66s5.25-2.92,8-4.31c1.26-.62,2.52-.86,3.6-1.44,1.56-.83,2.69-2,4.44-2.8.79-.36,2.19-.27,3-.68a32.12,32.12,0,0,0,3.47-2.19c.57-.39,1.14-.78,1.73-1.14a4.74,4.74,0,0,1,.48-.28l.65-.34q.66-.33,1.32-.63c2.35-1.05,4.89-1.82,7.21-2.85,5.32-2.34,10.4-5.16,14.87-6.85a16.41,16.41,0,0,1,2.41-.94,5.12,5.12,0,0,1,1.15.59c.65-.27,2-1.66,3.66-2.44A122.14,122.14,0,0,1,128,384.91c2-.75,6.6-2.77,10.28-3.5a30.58,30.58,0,0,1,4.24-.62A15.73,15.73,0,0,1,146,381c2,.39,3.23,1.34,3.34,3.14,0-.32-.42,1.64-.39,1.6-.31.4-1.86.69-2.19,1.11-.93,1.2-.89,2.32-1.62,2.94-.45.36-2.57.9-3.63,1.69-.28.21-.22,1-.46,1.16s-1.2.25-1.5.5c-.83.71-.74,1.59-1.63,2.56-.56.62-2,1.2-2.67,1.91-2.33,2.6-6.17,6.63-.81,4.9.69-.22,1.46-1.19,2.86-1.55,2.2-.51,3.9-.24,5.4-.77s2.53-1.62,4.07-2.37c2.24-1,4.15-1.08,6.49-2.31,2.19-1.13,1.45-1.08,4.31-1.65,2.3-.43,3.64-1.55,6.5-2.46a38.9,38.9,0,0,1,4.82-1.16c1.63-.33,3.27-.67,4.88-1.13s3.42-.93,5.15-1.44,3.49-1,5.33-1.42c2-.39,4.25-.65,6.47-1l3.34-.46c1.11-.12,2.21-.26,3.29-.44,1.25-.2,2.51-.9,3.88-1.09,1.89-.31,3.58.1,5.5,0,2.29-.14,6.06-.83,8.75-1.25a29.43,29.43,0,0,1,3.46-.35c1.37-.07,2.92-.18,4.58-.18,1.38,0,3,0,4.64.06s3.48.09,5.3.24c3.65.27,7.35.4,10.42.45,1.6,0,2.84-.42,4.21-.35a23.87,23.87,0,0,1,2.78.38c1,.2,2,.42,2.94.53,3.46.44,7.3.23,10,.82,1.17.24,3.43,1.12,6,1.9a24.48,24.48,0,0,0,7.9,1.42c2.66-.15,9,1.79,15,2.89,1.68.32,2.32.09,3.43.32,1.82.38,4,1.54,5.69,1.85,1.37.25,2.31-.38,3.56-.12,1.78.36,3.29,1.35,4.89,1.68,5.1,1.07,10,1.55,14.46,2.57,3,.67,6.21,1.93,10,2.94,5.45,1.45,12.51,2.44,16.94,4,2.67,1,6.55,3.28,7.14,4.1.75,1.07-.49,3.34,0,3.93.79.91,2.85,2,4.75,3,3.65,2.06,5.2,2.88,12.71,4.16a14.56,14.56,0,0,1,2.7.07,9.52,9.52,0,0,1,2.54,1c1.5.16,2.38-.43,3.68-.27,1.84.23,3.63.85,5.25,1,1.45.14,3-.22,4.57-.17,1.12,0,2.38.54,3.52.61,1.48.1,3.12-.22,4.55-.18,3.55.08,6.62.91,9.85.56.57-.06,1.66-.68,1.9-.68,1.37,0,3,.6,4.42.64a33.25,33.25,0,0,0,3.66-.49c.77-.07,1.91.43,2.66.34.3,0,.79-.83,1-.83,2.23-.07,5,.44,7.12.38,5.24-.1,12.37-1.63,17,.22,1.24,1.81-3,0-2.78,1.21,1.87.7,2.65.16,4.4.84s1.61,1.92,3.42,2.21a12,12,0,0,0,3.17-.14,26.44,26.44,0,0,1,3.14-.4c3,0,6.35.54,9.81.53,2.45,0,4.74-.68,7.18-.71,7.79-.13,19.21-.25,27.67.14,1.52.1,2,.68,3.6.89,2.53.35,5.06-.15,7.17.22,3.3.53,5.29,2.05,8.21,2.5,5.24.79,12.21,0,18.06.09,1.47,0,3.2.58,4.59.55,3.63,0,7-.95,10.77-1.18,2.16-.16,4.54-.13,7-.15s5-.1,7.51-.31c2.26-.19,4.64-.54,6.94-.87a50.75,50.75,0,0,1,6.53-.75c3.2-.11,6.56,1.34,10.33,1.12a81.54,81.54,0,0,0,8.75-1.32l5.4-1.05,5.51-1.18c-.07,0,.08-.58.78-.67,1.88-.22,4-.59,6.2-1.05s4.54-1,6.82-1.63l12.5-3.56c1.58-.43,2,.07,3.63-.48,2.18-.72,4.32-1.34,7-2,1.7-.42,2.91-1.38,4.21-1.71,2-.53,3.74-.94,5.48-1.48s3.54-1.15,5.76-1.95c1.51-.55,2.7-.31,4.45-.92.8-.28,4.67-1.91,7.59-2.95-.21.08.17-.89.7-.75,2.7.7,6.42-4.13,9.57-5.38,2.34-.95,4.86-.68,8.11-1.36A132.09,132.09,0,0,0,714,392.54l4-1.44,4.1-1.62,8.31-3.27c1.84-.72,5.66-3.28,7-1.89-4,1.43-8,3.2-12,5l-6,2.77c-2,.93-4,1.73-6,2.55-1.2.47-3.15.64-4.39,1.16-1.82.77-3.05,2-4.72,2.84-1.29.62-2.61.44-4.38,1.16a30.9,30.9,0,0,1-3.25,1.66c-1.78.61-3.65.74-5.29,1.35-3.25,1.21-6.54,2.71-9.78,4.19s-6.49,2.76-9.52,3.79a21.61,21.61,0,0,1-3.46,1.1c-.79.09-.78-.7-2-.36-1,.28-.95,1.22-1.44,1.46-1.09.53-1.66,0-1.88.09-4,1.46-8.5,2.73-13.35,4.09l-3.7,1-3.83,1c-2.59.7-5.24,1.44-7.93,2.29-3,.94-5.73,2.45-8.63,3.1-4.28,1-8.46,1.61-12.27,2.17a78.29,78.29,0,0,0-10.24,1.69c-1.3.36-4.75,2-6.1,2.19-.43.05-.75-.77-1.07-.79-2.21-.13-3.36.58-5.57,0-1.49-.39-2.92-1.29-5.71-1-1.25.14-2.54.4-3.88.67s-2.75.47-4.21.6c-2.17.19-4.29-.17-6.44-.05-1.46.08-2.9.24-4.33.44s-2.86.37-4.29.59c-2.84.42-5.67.87-8.53,1.08-2,.17-4.14-.39-6.44-.33-3.31,0-6.95.86-10.86.94-1.52,0-3.91-.57-5.5-.6-5-.1-6,.94-8.21-.47-.13-.08-.82-.9-1-.92-1.21-.21-3.42.5-4.52.19-.43-.13-.49-1.22-1-1.4-.25-.11-4.43-1.06-5.45-1.25-1.46-.22-3.78.22-6.3.13-3.89-.13-5.51-1-10.79-.9-.66,0-1,.6-1.8.48-1.06-.11-6.7-.73-9.88-.67-1.76,0-3.67.71-5.42.81-2.38.17-5.78-.4-9-.41-9.24,0-15,2.18-20.72-.49-1-.47-1.11,0-1.75-.62s0-.55-.8-1.05c-1.77-1.05-3.42-1.23-6.2-1.14-.54,0-1.13.46-1.83.29-.23-.06.09-.63-.84-.58-1.78.09-3.6.88-5.52.84-3.8-.07-7.63-1-10.74-.92-1.56.08-3.31.81-4.64.79-2.54,0-5.44-.67-8.06-.75s-5.53.1-8.21.09c-1.3,0-2.71-.26-4.5-.3-1.24,0-2.79.43-3.71.32-3.37-.37-6.6-1.48-9.68-1.86-.37-1.58,2.59-.44,2.22-2-4-.52-1.75,2.39-3.29,2.79-5.37-1.3-11.24-2.33-15.62-3.75-2.92-1-3.59-1.81-6.4-3.88-2.62-1.94-2.86-2.19-4.3-4.92a25.67,25.67,0,0,0-1.17-2.74c-1.19-.82-4.34-1.11-7.56-2.25-1.53-.56-2.94-1.64-4-2-5.84-1.73-13.35-2.55-20.45-4-3.68-.75-7.13-1.93-10-2.47-2-.38-4.49-.11-6.05-.49-1.95-.47-3.57-1.74-5.59-2.32a32,32,0,0,0-8.38-1.49c-1,0-1.59.57-2.68.37-1.6-.29-3.46-1.87-4.73-2.06-3.09-.46-6.39.35-9.42-.07-2-.28-4.18-.76-6.46-1.32s-4.67-1.27-7.05-1.86c-4.73-1.15-9.47-2.15-13.23-1.65a13.92,13.92,0,0,1-2.85-.26l-2.14-.34-2.35-.31c-3.21-.38-6.54-.7-8,0-1.71.78-.3.62-4,.15a21.75,21.75,0,0,0-4.94-.09,46.82,46.82,0,0,0-4.61.91c-2.66.61-1.54-.41-3.9-.67a62.93,62.93,0,0,0-6.24.89c-1.16.22-2.06.84-3.1.93-2.07.25-4.86-.1-6.91.23a17.18,17.18,0,0,0-3.09.87,16.2,16.2,0,0,1-2.92.93c-1.29.24-2.34-.39-4.59-.12-1.19.14-1.26.8-2.91,1.28-1.06.3-3.46.26-4.5.57a25.36,25.36,0,0,0-3.6,1.46,39.93,39.93,0,0,1-7.11,2.38c-1.43.33-2.94.87-4.51,1.33s-3.22,1-4.89,1.57c-1.39.44-1.79,1.22-3.37,1.89-2.44,1.08-7.23,2.1-11.33,3.89-1,.43-2.13,1-3.38,1.5-.63.28-1.27.52-2,.82s-1.54.59-2.41.86c-1.05.33-2.92,1.09-3,1.12-.93.22-1.31-.39-1.89-.31-2.38.32-2.33.67-4.42.13-.25-.07-1.86-.24-1.92-.29-1.77-1.2-1.79-4.7-1.27-5.68.22-.39,2.74-.82,3.16-1.2.68-.62.63-2.12,1.52-3.14.42-.48,1.73-.89,2.18-1.33s.67-1,1.21-1.46c1-.95,2.08-1.87,3.09-2.67s2-1.6,2.84-2.43a64.25,64.25,0,0,0,4.35-5c-3.08-.11-6.13,1.83-9.46,2.62-1.46.39-3.57.31-5,.82-2,.71-3.24,2.08-5.23,3-3.16,1.47-7.11,2.19-10.55,3.54-2.93,1.17-7.07,3-10.24,4.51-1.92.91-3.55,2.35-5.25,3.1s-3.37.64-5,1.44c-1.14.57-2.6,1.26-3.83,2A11.4,11.4,0,0,0,86,406.89l-.35.3-.18.14-.1.11a1.74,1.74,0,0,1-.43.34c-1.1.6-2.69.49-3.92,1-1,.45-1.15,1.25-2.07,1.86a17.42,17.42,0,0,1-3.85,1.57c-1.34.46-2.61.95-3,1.68-.2.36.25.78-.12,1.08-.83.69-2.79,1-4,1.6-.83.45-.35.95-.88,1.4-.37.31-1.43.05-1.93.25s0,1-.61,1.28-1.72.08-2,.29c-.46.35.47.78,0,1a4.29,4.29,0,0,1-1.14.26,8.7,8.7,0,0,0-1.65.34c-.51.21-.28.62-.76.83a20.59,20.59,0,0,1-2.32.68l-1.31.34-.07,0s0,0,0,.06l0,.1.06.22a2.69,2.69,0,0,0,.19.43,3.57,3.57,0,0,0,1.22,1,3.79,3.79,0,0,1,1.16.94c.3.6-.16,1.28.41,1.85a5.74,5.74,0,0,0,.44.38,22.36,22.36,0,0,0,4.06,2.36,7.5,7.5,0,0,1,3,2c.12.2.67,1.06.54,1,.73.31,2.35.1,3.29.25,2.61.46,3.46,1.26,5.19,2a12.55,12.55,0,0,0,2.85.67c1,.17,2,.24,2.9.36a25.36,25.36,0,0,1,4.61,1l2.34.76.59.19h0s-.06,0,0,0l.4.12.79.24,3.19,1c6.87,2.16,12.38,3.25,18.15,7a19.85,19.85,0,0,1,3.45,3.2c.54.6,1.1,1.22,1.74,1.84a27.85,27.85,0,0,0,2.24,1.9c1,.77,4.46,2.73,7.92,5.42a58.78,58.78,0,0,1,8.4,7.84A65.12,65.12,0,0,1,141,477.37a106,106,0,0,1,4.79,9.78c.62,1.55,1.12,3,1.49,4.17a11.58,11.58,0,0,1,.5,2.79c0,2-3.4,2.65-3.5,4,0,.88.76,4.92,1.38,8.84s1.15,7.77,1.44,8.51c.59,1.58.38,3.9.82,7.47.17,1.3.92,2.57,1,3.69.05.52.09,1,.12,1.58s.05,1,.07,1.47c0,.93.06,1.88.09,2.83a52.32,52.32,0,0,0,.43,5.86c.37,2.52,1.29,4.78,1.59,7.32.18,1.51-.11,3.32-.06,4.95.09,2.67.68,4.86.57,6.38,0,.27-.09.81-.19,1.48,0,.28-.09.59-.14.92l-.14.79a18.76,18.76,0,0,1-.61,2.56l-1.22,1.68a17.74,17.74,0,0,1-1.4,1.79c-1.57.81-2.1-1.75-2.88-.13a11.23,11.23,0,0,0-.57,2.84,16.7,16.7,0,0,0,0,2.15,18,18,0,0,0,.18,2.39c.26,1.44,1.17,1.79,1.74,3.39.28.76.07,2.73.76,4.66a5,5,0,0,0,.36.81c.15.24.32.46.48.67a5.88,5.88,0,0,1,.87,1.4c.18.52.42,1,.61,1.55s.36,1.12.59,1.68a10.81,10.81,0,0,0,2,3.27c.19.21,1.26.42,1.37.55.62.65,1,1.66,1.53,2.37.81.78,1.81,1,2.49,1.6.41.31.8.63,1.17.94a13.08,13.08,0,0,0,1.14.92l1.16.86a11.76,11.76,0,0,0,1.18.83l1.23.77.61.39.31.19.45.27c1.19.71,2.39,1.4,3.62,2.07,2.2,1.15,4.63,2.14,6,3,1.63,1.09,2.39,2.35,3.71,3.11,2.63,1.54,3.65,1.32,5.12,2.15s2.34,2,3.64,2.76,2.73,1.07,4.09,1.73c1,.55,2.28,1.73,3.61,2.36,1.15.56,1.57.16,2.74.71a15.07,15.07,0,0,1,2.24,1.46,17.16,17.16,0,0,0,2.45,1.42c1,.48,2.31.21,3.29.53.45.13.95.38,1.47.58s1.09.45,1.66.7,1.17.53,1.77.73a18.24,18.24,0,0,0,1.79.47,5.77,5.77,0,0,0,1.71,0,4.66,4.66,0,0,1,1.5-.1c1.21.25,2.35.94,3.76,1.19a21.62,21.62,0,0,0,2.83.49c.78.05,1.27,0,1.07-.06a6.8,6.8,0,0,1,2.74,2.59,7.61,7.61,0,0,1,1.13,3.4,2.73,2.73,0,0,1-.58,1.69,22.31,22.31,0,0,0-1.31,1.82c-.48.82-.24,1.33-.65,2-1,1.55-1.14,1.76-1.41,4.89-.17,2-1.16,2.11,1.86,2.77a2.66,2.66,0,0,0,2.11-.11,8.75,8.75,0,0,1,3.09-.86l3.36-.32c.58,0,1.18-.11,1.79-.2a18.18,18.18,0,0,0,4.82-1.69,26.42,26.42,0,0,1,2.72-1.18c1.72-.62,3.21-.22,4.42-.88a37.13,37.13,0,0,0,7.77-5.86,13.09,13.09,0,0,1,1.94-1.8c1.9-1.47,3.43-1.59,5.29-3a39.38,39.38,0,0,0,3.67-3.77c1.1-1.17,3.09-3,3.65-3.8s.51-2.37,1.72-3.58a28.24,28.24,0,0,1,5.66-4.22,25.72,25.72,0,0,0,5.6-4.27c.74-.74,1.59-1.06,2-1.75.13-.2.13-1.13.28-1.28,1-.93,1.71-.29,2.53-.92.51-.39.15-1.09,1.09-1.69a47.29,47.29,0,0,1,5.74-3.17,24.47,24.47,0,0,1,5.33-1.71c3.18-.49,5.29.46,5,3.7,0,.43-.06,1-.17,1.66,0,0,0,.35,0,.75a4.61,4.61,0,0,1-.12.91c-.3.53-3.07,2.41-3.18,3.17,0,.1,1.41.78,1.61,1.34.11.3-.84,1.81.11,2.09s1.24-.52,2.44-.68c.23,0,1,.54,1.16.5,2.08-.61,7.28-2.93,10-4a25.48,25.48,0,0,0,2.67-1.38,30.12,30.12,0,0,1,3.3-1.56l4.83-1.82c1.8-.68,3.74-1.56,6-2.62,1.08-.52,2.68-1.17,3.82-1.78,1-.51,2-1.48,2.92-1.92,6.51-3,13.15-4.71,15.89-6.05s4.29-3.23,6-4a40.6,40.6,0,0,0,5-1.2c.73-.25,1.93-1.42,2.29-1.53,1.21-.38,1.79.24,2.62-.1,1.13-.49.52-.94,2.19-2,1.21-.76,2.85-.67,4.1-1.4a36.34,36.34,0,0,0,3.07-2.14,20.05,20.05,0,0,1,2.24-1.94c.88-.41,2.47-.3,3.42-.66.46-.17,1.22-1.15,1.56-1.25,1.46-.51,3.66-.71,5.13-1.28,1.74-.62,3.31-1.35,4.83-2.06a31.06,31.06,0,0,1,4.59-1.78c4.56-1.3,8.65-2.13,10.74-1.35,1.18.43.17,1.21.9,1.92.43.43,1.55.28,1.76,1,.82,2.75-3,5.87-3.48,7.68,3.82.07,6.53-1.67,9.38-2.19,2.38-.35,4.86-.16,6.91-.41a37.2,37.2,0,0,0,4.27-1c1.34-.34,2.62-.71,3.84-1,.93-.2,1.81.06,2.67-.07.63-.11,1.31-.55,1.89-.66s1.94.13,2.69,0c1.77-.34.83-.6,5.51-.36,4.11.31,4,.2,5,2.13.81,1.67-1.94,7.27.4,9,2,1.48,4.85.51,8.45,1.36,0,0,.71.89,1.48,1a4.08,4.08,0,0,1,3.25,1c1.92,1.61-.46,1.6,1.35,4,4.75,1.36,8.59,3.32,12.68,4.6,1.22.39,2.24.05,3.51.35,2.39.59,5.09,1.87,8,2.81,5.32,1.68,10.93,3,18,5.93.2.08,1.06-.24,1.77.29.27.21-.32.48.57.8,1.3.47,2.24.2,3.53.59,1.66.49,13.58,5.26,15.79,6.95.25.19.8,1.24,1.15,1.61,2.32,2.37,2,6.17-1.92,8.12-1.79.88-2.14,1.42,2.12,3.65.62.32,1.49.05,2.57.68a27.36,27.36,0,0,0,5.49,2.56c3,.9,5.05.81,6,1.22,4.88,2.17,1.76,2.73,6.14,3,3.34.18,10.61,3.69,16.65,5.42,3.25.91,6.55,1.62,10.4,2.68,1.58.46,3.61,1.37,5.06,1.67,1.26.26.52-1.05,1.37-1a13.78,13.78,0,0,0,1.75.64c1.07.34,2.4.71,3.33.9a98.89,98.89,0,0,1,10.43,2.27c1.91.53,2.77,1.38,4.06,1.79,2.15.66,4.15.95,5.93,1.54a11.72,11.72,0,0,1,4.93,2.74c.14.14.51,1.06.68,1.13,2.18,1.07.87.66,2.31,2.42.27.33,1.54,1.07,1.64,1.26,1.13,2-.51,3.64,2.1,4.74a11.74,11.74,0,0,0,3.66.48c.83,0,1.74,0,2.71,0s2,0,3-.13c2.06-.18,4.16-.39,6-.59s3.5-.54,4.67-.69L651,662a10,10,0,0,0,3.79-1.09c2-1,2.53-.45,6.33-1.51a23.65,23.65,0,0,1,2.61-1.28,18.6,18.6,0,0,0,2.56-1.3c1.3-.44,3.17-.25,4.45-.71.79-.28,1.5-1,2.47-1.43,1.27-.54,2.1-.61,3.41-1.17,1.92-.85,4-2.32,4.85-2.58,1.38-.45,1.59.15,2.69-.17,1.94-.59,4.45-2.35,6.21-.71.9.86,2.08,1,2.24,1.35.75,1.67-.81,2.88-3.89,6.09-.1.1-1.74,1.28-3.21,2.51s-2.82,2.46-2.13,2.81a3.38,3.38,0,0,0,2.31.18,10.42,10.42,0,0,0,2.6-1.2c.92-.55,1.9-1.22,2.95-1.9a35.93,35.93,0,0,1,3.28-2c2.05-1.07,4.82-2.2,7.33-3.36s4.67-2.46,5.52-3.85c1-1.74,3.62-1.43,6.17-3.79.22-.19,1.26-1.49,1.31-1.52,1.09-.64,3.15-.85,4.1-1.57s0-1.29,1.1-2c.86-.52,2.93-1.64,3.07-1.72a25,25,0,0,1,3.64-1.48l1.65-.58a8.85,8.85,0,0,0,1.23-.56c1.42-.83-.42-1,.37-1.7s4.73-2.17,6-3.39c.26-.22.48-.85,1.06-1.57a6.46,6.46,0,0,1,1.11-1.26,8,8,0,0,1,.86-.64,10.6,10.6,0,0,1,1-.72c1.64,0,2.51.44,2.74,1.3a3,3,0,0,1-.12,1.58,7,7,0,0,1-1,2c-.44.66-.24,1.33-1.13,2.07-.35.27-1.83.35-2.14.78s.14,1.27-.15,1.78a24,24,0,0,1-2.26,2.41c-.89,1-1.75,1.88-1.59,2.61a13.51,13.51,0,0,0,3.48-1.89,17.44,17.44,0,0,0,2.42-2.14c.35-.35,1.77-.91,2-1.26.56-.94.13-1.52.94-2.53.49-.55,1.22-1.27,2-2a8.54,8.54,0,0,0,1.81-2.23,19.76,19.76,0,0,0,1.58-5.07,26.34,26.34,0,0,1,.65-2.78,20.15,20.15,0,0,1,1-3.12,13,13,0,0,1,1.42-2.66,7.65,7.65,0,0,0,1-2,5.72,5.72,0,0,0-.26-2.72,16.79,16.79,0,0,1-.61-2.92c0-.81-.07-4.89-.29-9.14s-.53-8.72.21-10.82a3.33,3.33,0,0,1,.38-.41c.24-.24.55-.55.88-.86a5.43,5.43,0,0,1,1.72-1.29c1.12-.1.86,1.25,1.38,1.83s-.07.29.48,0c1.86-.94.85,2.46,1.69,4.61.29.75,1.79,1.05,2.31,2,.14.22.22,1.6.34,1.92,1.27,3,1.8,9.79,2.1,14.89.09,1.22.18,2.4.3,3.54a20.18,20.18,0,0,1,.14,3.49,26.48,26.48,0,0,1-.73,3.49,10.66,10.66,0,0,0-.58,3.44c.06.26.93.07.85.46a24.25,24.25,0,0,1-2.23,5.44c-1,1.87-2.06,3.58-2.66,5a9.9,9.9,0,0,0-1,3.37,6,6,0,0,1-.86,3c1.09.25,2-.74,2.92-1.91s1.75-2.55,2.81-3.18c.17.35-.5,1.29-1.15,2.2s-1.36,1.72-1.08,2c1.94-.76,3.43-4.35,2.23-4.2-.65.06-.68-.36-.36-1a12.34,12.34,0,0,1,.7-1.22c.28-.47.62-1,1-1.53a40.36,40.36,0,0,0,3.49-5.82c.52-1.57-.24-1.39.39-3.18.41-1.11.9-2.29,1.39-3.49a20,20,0,0,0,1.18-3.55c.22-1.05.4-2.16.55-3.32,0-.56.1-1.13.15-1.72s.05-1,.08-1.54c0-1,0-2,0-3.11s0-2.07,0-3.13c.05-1.44.42-5.11.49-8.59s-.11-6.6-.61-7.76c-.24-.55-1.29-.27-1.39-1-.16-1,.25-3.4,0-5.81a12.71,12.71,0,0,0-1-3.47,16.4,16.4,0,0,1-1.12-3.26c-.21-1.23.52-3.78.26-4.86a29.83,29.83,0,0,0-1.23-2.83c-.21-.57-.41-2-.75-2.85-.15-.39-.93-.52-1-.85-.16-.5,0-1.45-.22-1.92a44,44,0,0,1-2.4-6.45c-.27-.85-1.08-2.59-2-4.76l-1.53-3.51c-.59-1.23-1.19-2.51-1.76-3.79s-1.07-2.56-1.62-3.77-1-2.38-1.37-3.46a15.07,15.07,0,0,1-.73-2.91,4.15,4.15,0,0,1,.09-2.09c.56-1.42,1-2,1.77-1.83s1.79,1.2,3.28,3.11c.68.87.35,1.11,1.06,1.71s1.2,2.83,2.58,3.33a17.39,17.39,0,0,0-2.39-6.29c-1.16-1.87-2.55-3.54-3.65-5.18-.53-.76-1.1-1.59-1.75-2.39s-1.29-1.62-1.86-2.43a90.86,90.86,0,0,0-7.71-10.08c-1.11-1.13-2.69-2.2-3.65-3.33s-1.47-2.94-2.47-4c-.49-.53-1.69-.83-1.84-1a33.83,33.83,0,0,1-2.3-3.38,33.56,33.56,0,0,0-2.52-3.43c1.14-1.18,1.3-2.86,3.27-3.65-.45-.47-.85-.91-1.39-1.41a13.46,13.46,0,0,0-2.28-1.74c-1-.66-1.79-.5-2.91-1.26s-2.26-2.51-3.37-3.25c-.95-.63-2.1-.57-2.95-1.09-2.15-1.29-4.15-2.85-6.23-3.91s-4.65-1.87-5.74-2.67c-.73-.53-2.26-2.81-3.31-3.75a2.89,2.89,0,0,1-2.87-1.92c-.82-2.24.33-3,1.6-3.38a2.4,2.4,0,0,1,1.78.35,18.47,18.47,0,0,1,2.16,1.32c1.43,1,2.86,1.91,3.65,1.39.24-.52-.45-.76-1.06-1.21-.33-.24-1.23-1-1.91-1.51a44.21,44.21,0,0,0-4.47-2.48c-.72-.39-.72-.69-1.35-.95a31.31,31.31,0,0,1-5.79-3.67c-2.23-1.76-4.14-3.9-4.58-5.51s-.43-1.17.15-3c.27-.8.85-.75.6-2.18-.26-2.08-1.05-3-2-4.6a9.77,9.77,0,0,1-1.61-2.63c-.08-.28-.19-1-.3-1.74s-.12-1.6-.22-2.17c-.22-2.35-.55-3.78,1.12-5.37.32-.3,1.31-.48,1.48-1.07.74-2.48.72-6.68,1.38-10.68.3-1.89.57-3.66,1-5.44s1.16-3.79,1.35-5.18c.41-2.8,0-5.9.38-9.51.11-.87.78-1.68.78-2.45,0-2.06.91-6.1.83-9,1.74-3,.09,1.4,2.32-2.56.83-1.5,1.28-1.35.56-3.42-.88-.57-1.44,2.57-2.22,3.54-.88-1.75.54-4.56.65-7,.09-1.73-1.09-5.59-.42-7.34s.68-.07.51-2.42c-.07-.89-.28-1.51-.4-2.8-.21-2.59.45-7.45.2-11.09-.06-.92-.57-1.94-.54-2.73s.75-1.57.79-2.23-1-2.12.6-4.8c1-.54,1.5,1.32,1.58,1.35.3.1,1.23-.93,1.62-.3.7,1.12,0,5.77.11,8.52,0,.68.36,1,.34,1.84,0,1.53-.12,4-.21,6l-1.79-.7c-1.53,2.19,1.52,1.16,2.08,2.57-.3-.81.28,4.3.24,4.52-.09.75-1.49,4.85-.94,5.88,1.07,2-.29.37-.46,3.42,0,.8.24,1.62.27,2.87s-.43,3.41-.41,5.36c0,.2-.35,1.62-.3,1.72.93,1.95,0,.22-.64,3.45-.08.42.54.83.48,1.18-.22,1.25-1,3.12-1.1,4.21-.15,1.68.64,3.29.53,5.12-.06,1.06-1,2.73-1.23,4.22-.16,1,.15,2,0,3s-.91,1.72-.86,1.49c-.19.82.49.62.39,1.23-.47,3-1.93,7.12-2.32,10.62a14,14,0,0,0,0,2.9,20.43,20.43,0,0,1,.07,2.82,5.38,5.38,0,0,1-.48,1.54,6.8,6.8,0,0,0-.46,1.4c-.17,1.77.54,3.77,1,5.61a20.49,20.49,0,0,0,.84,4.09c.11.23.9.39,1,.57.19.42.29.87.46,1.32a10.07,10.07,0,0,0,.43,1.41,3.41,3.41,0,0,0,.65.95,15.55,15.55,0,0,0,2.8,2.73,12.84,12.84,0,0,0,3.38,2.06c.33.11.62.18.94.28l.78.19a1.82,1.82,0,0,1,1,.52,4.36,4.36,0,0,1,.77,1.9,8.68,8.68,0,0,0,.93,2.26,8.92,8.92,0,0,0,2,2,18,18,0,0,0,2.65,1.7c1,.53,1.95,1,2.9,1.48s2,.92,2.83,1.38c.49.26,1.3,1.14,1.88,1.39s1.95.69,3.2,1.3c.63.31,1.45.72,2.34,1.19a7,7,0,0,1,.76.45l.84.53,1.7,1.08c1,.63,1.51,1.37,2.4,1.91.57.36,1.7.84,2.88,1.54A13.26,13.26,0,0,1,741.7,477c1.66,2,2.23,4.23,3.4,6.54-1,.26-2.18-.6-3.38-1.22s-2.36-1-3.17-.1a7.25,7.25,0,0,1,2.11,1.1c.84.55,1.71,1.24,2.54,1.68a37.26,37.26,0,0,1,3.93,3.45c1.74,1.61,3.47,3.52,4.63,4.4.48.38,1.66.92,2,1.22.94.82,2.66,4.22,4.3,6.07.54.61,1,.6,1.64.92s1.36,1,2.25,3c.06.13-.83.31-.84.46a31.19,31.19,0,0,0,2.06,5c-3.43-.48-6.93-5.05-10.61-7.36-.23,1.25.71,2.64,2,4.1s2.76,3,3.87,4.48a17.82,17.82,0,0,0,1.79,1.88,14.51,14.51,0,0,1,1.79,2.19c1,1.6,1.9,4,3,5.58.69,1,1,.9,1.66,1.62a35.47,35.47,0,0,1,2.31,3.37c.44.7.91,1.42,1.32,2.11s.78,1.35,1.13,1.89c1,1.63,2.22,3.26,3.26,4.88a15.08,15.08,0,0,1,2.11,4.81c0,.11,0,1.82-.12,3.49,0,.83-.09,1.65-.15,2.26,0,.31-.05.56-.06.73a1.37,1.37,0,0,0,0,.27c-.66.55-1.11-1.38-2.58-2.69-3-2.71-1.25-.38-3.45-5.65-.25-.64-1.21-1.27-1.5-1.74-1-1.63-1.69-3.35-2.51-4.68a26.14,26.14,0,0,0-1.48-2.19c-.53-.67-1.06-1.31-1.58-1.92-1-1.23-2-2.38-2.85-3.58s-1.69-2.63-2.51-4a28.87,28.87,0,0,0-2.5-3.74c-.62-.75-1.73-1.19-2.64-2-.76-.7-2.29-3.26-2.66-2,.48,3,2.82,4.53,4.4,6.66.65.85,1.6,2.1,2.52,3.25l1.24,1.65c.29.36,1.15.41,1.26.58.63.95.83,2.83,1.46,3.78.33.51,1.16.43,1.26.62,1,1.6,1.25,3,2.12,4.67s1.59,2.82,2.47,4.6c1.42,3.24,2,5.58,3.69,8.63.6,1.14,1.59,1.75,2,2.75a27.17,27.17,0,0,1,1.46,4.62,34.71,34.71,0,0,0,1.09,4.44c.55,1.63,1.2,3.07,1.75,4.64s1.17,3.27,1.8,5.43c.24.81,1.14,2.55,1.21,3.06.33,1.88-.18,2.51.18,4.15.89,3.72,2.7,9.16,2.51,13.46a32.55,32.55,0,0,1-.92,4.15l-.58,2c-.09.26-.15.48-.2.64a1.15,1.15,0,0,1-.09.24c-1,.71-2.66-3.79-3.95-8.25q-.81-2.64-1.48-5.42c-.21-.93-.43-1.86-.65-2.81s-.5-1.92-.75-2.89c-.48-1.92-1-3.88-1.48-5.85s-1.19-3.94-1.83-5.88-1.44-3.24-2-4.78c-.84-2.19-1.2-4.39-1.84-5.75-.45-.92-1.35-2-2.22-3.43A18.12,18.12,0,0,1,762.36,544.81Z"/><path class="cls-3" d="M314.52,346a1.57,1.57,0,0,0,.43,1c.12-.12.37-1.67.56-1.86s.28.5.76.1.9-2,1.41-2.7c.24-.34.47,0,.8-.38a2.82,2.82,0,0,0,.38-.44c0-.09.18-.91.21-.94.19-.23.35.28.54,0s.47-1.12.69-1.39a2,2,0,0,0,.27-.46c.08,0,.05.59.16.5.31-.25.85-1.25,1.37-1.82s.94-.76,1.52-1.31a5.11,5.11,0,0,0,.41-.93c.19-.09.31.63.49.52.45-.29,1.34-2,1.77-.81.11.29,0,2.09.11,2.41,0,.05.22,0,.22,0a52,52,0,0,1-1.51,6.14c-.29.83-.7,1.39-1.08,2.31a2.32,2.32,0,0,1-.27.46l-.26.46c-.16.44-.26,1.57-.4,1.9-.26.59-.51.32-.75.9s-.42,1.34-.63,1.87c-.12.3-.26.14-.38.45,0,.12,0,.81-.1,1s-.16-.16-.22,0a31,31,0,0,0-1.24,3.26c.34,1.23.89-.19,1.34-.85.73-1,1.34-1.91,2.23-3.18.25-.37.49-.83.91-1.37s.8-1.27,1.27-1.82c.07-.08.19-.56.26-.46s.09.14.49-.44.59.74.31,2.92c-.31,2.51-1.69,3.09-1.74,4.67-.08,2.71,1.45-1,1.7-1.3.46-.56.77-.18.93-.41a8.83,8.83,0,0,0,.3-.94,28.21,28.21,0,0,1,2.14-3.19,9.49,9.49,0,0,1,3.19-3.1c.09.79-.13,2.23-.09,3.37.1,2.61-.72,3.45-1.16,6.16,0,.52.25.6.42.52s.27-.8.39-.93c.3-.33.61-.38,1-.9.13-.18.25-.75.4-.95s.31-.23.47-.47.53-1.14.75-1.41.62-.09.92-.45.67-1,1-1.41.77-1.56.95-1.41c.41.33-.06,1.11.16,1.44.4,0,0-1.33.53-1.9.24-.27,1.08.88,1.27,1.49a10.58,10.58,0,0,1,.28,1.45c.16,1.43-.18,3.74,0,5.28a4.08,4.08,0,0,0,.52,1.46c.2.44.54,1.7,1,1,.24-.37.07-.72.36-.47.14.13.9-1.09,1.18-1.39s.45-.16.69-.46c.07-.08.21-.9.25-.95s.24.13.34,0c.47-.55,1.27-1.09,2-1.85.06-.07.2-.9.24-1,.21-.26.48.06.68-.45s.39-.05.79-.46c.11-.11.28-.86.35-.95.54-.62,1.13-.42,1.9-1,.15-.11.29-.8.45-1,.9-1,1.9-.59,2,2.85a25.54,25.54,0,0,1-.22,3.36c-.13,1-.68,2.16-.23,3.37s1.6,1,2.41.44c.2-.13.28-.71.56-1,0,0,.07.74.12.47.25-1.37,1.42-1.37,2-1.94,0,0,0-.48.11-.48a.82.82,0,0,1,.12.48c.29-.39.4-1.27.65-1.45s.63.06.91,0c.88-.24,1.65-1.57,2.48-.51.4.52.49,1.8,1.17,1.43.16-.09.27-.71.44-.49,0,0,.2.52.42,1.06a12.8,12.8,0,0,1,.46,1.33c.48,2.77,0,8.65,1,6.21.13-.31.16-1.14.29-1.46s.44-.23.56-.52a10.64,10.64,0,0,0,.29-1.45c.27-.57.73-.53,1-1,.06-.1,0-.89.08-1,.15-.33.41-.09.66-.52.14-.23.26-.71.41-1s.38-.08.35,0c.38-.67.37-2,.72-1.49a9.68,9.68,0,0,1,.21,1.91c.64,1.19-.34-.93.23,0,.16.25.23.77.39.94a7.44,7.44,0,0,1-.13,1.93c0,.61.06,1.84,0,2.4-.12,1.28-.53,1.77-.46,2.43.37,3.9,1.43,0,1.72-.58a31.64,31.64,0,0,1,1.81-3c.34-.57.65-1.72,1.12-2.46a4.38,4.38,0,0,0,.31-.5,10,10,0,0,1,1.17-1.51,3.68,3.68,0,0,1,.54-.51s0-.81.08-.49c.3,1.17.22,0,.42-.5s.42,0,.76-.53c.05-.07.13-.93.16-1,.22-.27.48-.29.76-.52a8,8,0,0,0,.75-.53c.73-.71,1.26-1.82,2.22-2.12,0,0,.31.57.49.44.51-.41,1.56.13,2,.76a5.36,5.36,0,0,1,.85,1.85,22.89,22.89,0,0,1,.57,6.21c0,.26-.25.72-.26,1,0,.62.19,1.72.21,2.39a10.24,10.24,0,0,0-.1,1.46c.4,2,1.22.93,1.67.32s1.08-.43,1.33-2.06c.07-.47.89-1,1.25-1.57.12-.19.23-.7.37-1s.27.16.34,0,0-.92,0-1c.15-.24.49.14.69-.07s.21-.89.36-1,.37.42.63.42.73-1,1.16-1.08.89.32,1.31.36c.74.05,1.63-.86,2.24.25a17.11,17.11,0,0,1,.34,1.89,8.64,8.64,0,0,1,.63,2.34c.07.77,0,2.47.16,3.37a3.09,3.09,0,0,1,.23.93c0,.38-.06,2.55-.07,3.4s0,1.19,0,1.93a8.11,8.11,0,0,0,.57,3.81,18.65,18.65,0,0,0,.7,1.84c.26.39.8.06,1.13.33s.56.82.72.87a6.29,6.29,0,0,0,2.34.17c.27,0,.43-.57.66-.58,2.09,0,4.62-.16,6-3.24.21-.46.57-.13,1-.62s.82-1.62,1.26-2.11.79-.17,1.12-.63c.07-.11.05-.55.16-.51s.24.38.19.46c.3-.47.27-1.3.5-1.52.59-.58,2.28-1.27,2.5-.91,0,0,.27.93.27.93s.25.78.19.45c.14.74-.09,1.19,0,1.47.87,2.73,2.61.77,3.18-.55.44-1,1.75-1.17,2.7-1.92s1.46-2.32,2.1-1.82c.43.34,1.2,2.89,1.53,3.15.75.62,1.2-1,1.95-1.3.18-.08.48.37.67.37.43,0,1.43-.69,2.12-.37s1.45,1.81,2.09,2c1,.35,2.18-.42,3.4-.68a15.81,15.81,0,0,0,3.52-.71c.52-.25.9-1,1.45-1.27,1.2-.6,2.73.14,3.63-.73.19-.19.26-1,.51-1.08.54-.15,1.28,1,2.07.55,1.08-.63,2.49-2,3.76-2.83.29-.18.56,0,.81-.18s.58-1,.95-1.2c.16-.08.51.46.68.33.52-.38.82-1.48,1.3-1.77.32-.19.72-.06,1-.23.73-.41,1.33-1.33,2-1.44.08,0,.24-.2.34-.08s.34.91.34.91.15-.86.35-1.07c.49-.48,1.42-.38,1.85-.42s.88-.66,1.5-.35c1,.53,2,1.8,2.73,5.26-.07-.31.22,1.46.22,1.43,0,.3-.25.23-.23.55,0,.93.25,2,.21,2.42,0,.26-.38.15-.46.61,0,.12.13.88.1,1s-.21-.09-.23.06c0,.44.12,1.28.1,1.95,0,.42-.23.59-.25,1-.06,1.69-.23,4.26.65,4.28.11,0,.12-.64.36-.57s.81.84,1.05.74.27-.82.48-1.11.68-.09.94-.73.11-.64.59-.64.43-.84.82-1.2,1-.39,1.4-.85.82-1.29,1.29-1.8,1.23-.74,1.75-1.43c.15-.2.18-.88.35-1.08s.56,0,.81-.2a4.74,4.74,0,0,0,.92-1.72,3.88,3.88,0,0,1,.92-1.22c.65-.73,1.91-1,2.54-2.12.16-.28.18-.9.33-1.08s.57-.05.81-.21c.44-.29.74-1.22,1.13-1.3s1.74,1.32,2.07-.06c.17-.74,1.19-.53,1.93-1,.21-.14.19-.52.34-.59s.72.41.92.25.05-1,.21-1.05.61.39.81.28c.65-.36,1.11-1.22,1.7-1.46.38-.15,1,.15,1.49.1.78-.09,1.53-1,2.29-.62a5.73,5.73,0,0,1,1.67,2c.37.82.94,3.24,1.15,3.67a8,8,0,0,0,1.2,1.66c.85,1,1.2,1.46,2.11.9,0,0,.06-.52.21-.56s.5.33.47.36c.16-.17.06-.92.2-1.05s.52,0,.69-.2.17-.81.31-1.09.34,0,.45-.13.19-.84.31-1.08c.31-.62.83-.36,1-1.29,0-.16-.05-.94,0-1,.11-.26.43,0,.57-.17a6,6,0,0,0,.19-1c.05-.19.3.11.34-.1s-.16-.92-.15-.95c.19-.42.58-.4.78-.73.49-.81.73-3.3,1.76-2,.65,1.59-.3.39.06,1.48.4.45.32-.15.7.3s.72,1.65,1,1.71.34-1,.53-1.15.87,0,1.25-.35.37-1,.65-1.19a4.58,4.58,0,0,1,3.51-1c.22.06.45.61.72.79.43.28.65-.15,1,.19.61.53,1.29,2,1.84,2.46,1,.9,1.74.25,2.67.7.23.11.64.72.84.75.52.1.84-.43,1.36-.4s1.51.73,2.23.84,1.18-.44,1.84-.05,1.47,2.05,2.08,2.38,1.67-.15,2.64-.28c0,0-.14-.54,0-.5,1.17.48,2.41-.64,3.27-1,.2-.08.4.45.59.32a1.65,1.65,0,0,1,.9-.28c.24,0,.25-.61.43-.63a2.48,2.48,0,0,0,1.46-.45c.18-.12.49.4.71.29s.5-.59.87-.77c0,0-.17-.77,0-.49.75,1.39.41-2,.79-2.25s.88.71,1.44,1.06c1.37.86,2.92.33,4.48.14.26,0,.57-1.06,1.19.64-1.21-.12-2.07,1.05-3.13,1.46-.16.06-.55-.38-.71-.29s-.21.91-.39,1.13-.48-.4-.71-.29-.1.54-.31.6-.61-.35-.82-.25c-.82.39-1.41,1.81-2.17,2.17-.11.05-.29.27-.45.13s-.33-.84-.51-.84.1.89.06,1-.35-.41-.37-.39c-.87.9-2.36.61-3.58,1.6-.34.28-.49,1.13-.85,1.27-1.06.42-2.49-.7-3.12-.07-.14.15-.32,1.22-.52,1.16s-.33-.83-.39-.89c-.41-.4-.42.13-1-.71-.36-.56-.84-1.59-1.23-1.63s-.62.35-1,.3-.75-.59-1.07-.68c-.87-.26-1.37.67-2.16.64-.27,0-.73-.61-1.07-.68s-.82.44-1.36.41c-.21,0-.72-.65-1-.72-.74-.23-.59.74-1.29-.62,0-.07-.36-.86-.39-.88-.22-.21-.32.47-.56.17-.1-.12-.41-1.18-.52-1.35a12.67,12.67,0,0,0-1.09-1.18c-.25-.18-.44.28-.79.24-.55-.07-1-.87-1.63-.52-.08,0,0,.61-.09.53s-1-.36-1.39-.1c-.2.14-.24.91-.42,1.12s-.78.06-1.14.33c-1,.76-1,3.59-2.36,1.67-.24-.34-.11.13-.36-.4a6.21,6.21,0,0,0-.38-.89c-.47-.76-.69-.7-.93-.23-.05.09,0,.6-.1.53s-.17-.61-.24-.43c-.15.34-.11,1.3-.29,1.58-.37.55-1,.24-1.24.85-.12.31-.06,1.33-.18,1.55-.22.43-.65.36-.89.76a13.09,13.09,0,0,0-.64,1.68c-.11.25-.29.3-.44.62s-.1.95-.2,1.06c-.36.38-.92.05-1.26.36-.49-1.4.06-1-.42-2.38-.45.38.56,2.63.56,3.34-.76,0-1.48.39-2.19.13-.48-.19-.78-.82-1.57-2.07a15.29,15.29,0,0,1-1.72-3.51c-.23-.55-.8-2.14-.87-2.25-.32-.46-.62.06-1.16-.18-.27-.12-.67-.75-.83-.77-.89-.1-1.62,1.13-2.51,1.67-.46.28-1,.11-1.37.37s-.34,1.09-.56,1.15-.74-.69-1.05-.71a.93.93,0,0,0-1,.77c-.07.25,0,.93-.09,1s-.79-.88-.94-.74c-.36.35-.41,1.86-.77,2.2-.95.9-3.27-1.17-3.81,1-.14.59-1.95-.12-2,1.48,0,.95.12.63-.47.62s-.79.74-1,1.74c-.21.82-.31-.26-.7-.32a5.09,5.09,0,0,0-.7,1.17c-.11.26-.1.9-.23,1s-.8-.08-1,.26-.33,1.35-.58,1.63-.5-.47-.82-.29,0,.74-.24,1.05-.58,0-.7.18a5.13,5.13,0,0,0-.36,1.07c-.33,1.25-1.31,1.55-2.24,2.55-.19.2-.15.78-.36,1.08-.33.46-1.15.46-1.77.94-.32.23-.62.8-1.2.76a2.14,2.14,0,0,0-.48.11c-.16-.09-.34-.77-.46-.88-.45-.45-.39-.11-.92-1.26l-.46-.88a35.06,35.06,0,0,1-1.21-5.64c0-.28.45.12.47-.1s-.21-1.76-.2-2.42c0-.31.22-.27.24-.55s0-.67,0-1c.1-1.16.31-2,.38-3s0-2.41,0-3.46c-.66-.94-.94,0-1.5-.14-.24-.07-.69-.8-.91-.77s-.33.89-.59,1.12c-.42.35-1.13-.27-1.62-.13a4.82,4.82,0,0,0-1.4.81c-.25.21-.36,1-.6,1.12s-.59-.51-.8-.3a1.61,1.61,0,0,0-.47.6c-.1.22-.1.92-.25,1s-.74-.38-1-.26-.24.81-.49,1.1c-.56.65-1.55-.23-1.87.92-.08.28,0,.84-.14,1-.3.4-.79,0-1.17.27s-.27.82-.49,1.09-.31-.42-.46-.39-.29,1-.49,1.1-.34-.5-.45-.39-.21,1-.39,1.07-.44-.39-.68-.33-.32.54-.49.59c-.4.09-.89-.32-1.28-.24s-.35.62-.61.62-.58-.4-.81-.33c-.8.23-1.5,1.48-2.38,1a3.9,3.9,0,0,1-.57-.38c-.21.07-.21.83-.4,1.06-.52.66-1.13.34-1.77.36s-1.12.68-1.68.82c-1,.26-2.2,0-3.28.17-.88.15-1.34,1.17-2.25.45-.44-.34-1-1.95-1.5-2.16-.31-.11-1.52,1.12-2,1.32s-.76.05-1.19.2c-.7.24-1.44,1.41-1.82.8s-.88-3.83-1.1-4.2-1.94.34-2.05.84-.47.21-.87.63c-.14.15-.18.91-.31,1-.47.44-1.13.23-1.58.75-.3.35-.46,1.25-.72,1.59s-.42,0-.6.1-.4,1-.56,1.07a1.38,1.38,0,0,1-.91-.34s-.23-.51-.47-1-.47-1.1-.5-1.22c-.38-1.49-.08-2.21-.45-2.85a.82.82,0,0,0-1.25-.27c-.22.16-.14,1.11-.37,1.51-.11.2-.51-.18-.84.12s-.25.86-.45,1c-.37.32-.92-.06-1.36.67,0,.07-.07.94-.1,1-.16.2-.42,0-.6.08s-.29.87-.46,1c-.77.75-1.51.93-2.2,1.76-.32.37-.6,1-.84,1.08s-.56-.49-.79-.38c-.43.23-.45,1-.71,1.07s-.55-.41-.79-.38-.42.48-.66.58-.54-.43-.79-.38-.18.57-.42.54-.7-.74-1.08-.82c-.2,0-.36.53-.55.56-.35,0-1-.75-1.44-.78-.22,0-.36.64-.54.56s-.54-.6-.84-.85-.88-.6-.78-.4a25.12,25.12,0,0,1-1.32-6.14,31.08,31.08,0,0,1,0-3.37c0-.79-.1-1.3-.11-1.92a37.27,37.27,0,0,0-.32-4.79c-.2-2-.08-2-.57-2.84s-.12.53-.64.55c-.29,0-.64-.49-1-.39s-.52.64-.76.56-.51-1-.68-.9a3.66,3.66,0,0,0-1.12,1.56c-.09.23-.13.39-.3.51s-.56-.49-.86-.39-.4.66-.6,1a6,6,0,0,0-.6,1,12.34,12.34,0,0,1-.28,2c-.61,1-1.21-.28-1.78,1.14-.11.27-.25.13-.31.51,0,.11,0,.92,0,1-.14.32-.27-.59-.39-.44s0,.88-.15,1c-1.12.73-2.49-.32-2.55-6,0-.38,0-.92,0-1.45,0,0,0-.32,0-.67v-.78c0-.37.45-.84.45-1.49,0-.08-.24-1.3-.28-1.9a9.38,9.38,0,0,0-.06-1.92c-.15-.64-.19-.06-.38-.44,0-.08-.18-.93-.2-1a2.71,2.71,0,0,0-1.51-.33c-.25,0-.51.55-.87.56a1.77,1.77,0,0,0-1.55.63,3.58,3.58,0,0,0-.53.51c-.14.19-.26.84-.39,1-.89.94-1.82,1-2.18,1.57s-.53,2.11-.76,2.45c0,0-.35-.22-.69,0a9.37,9.37,0,0,0-.29,1c-.16.11-.27-.62-.38-.46s0,.8-.25,1.46c-.15.48-.4.05-.55.51s-.26,1-.38,1.47c-.07.29-.19,1.28-.27,1.46s-.34-.15-.47,0-.13.91-.18,1c-.19.28-.49.16-.67.52-.44.83-.76,2.25-1.15,2.95-.56,1-1.06,1.79-1.37,1a15.36,15.36,0,0,1-.21-1.92c-.08-.42-.22-.27-.28-.94-.25-2.74.12-5.89.1-7.7-.53-.08-.81,1.82-1.16,2.47s-.64.5-.89,1a29.66,29.66,0,0,0-.93,2.94c-.11.32-.24.22-.34.5s-.13.77-.2,1-.25.2-.33.5a2.49,2.49,0,0,1-.66,1.45c-.52.63-.5.7-.74-.95-.21-1.41-.23-7.52-.63-8.63-.35-.95-.63.77-1.13,1,0,0-.15-.65-.24-.48s-.19.75-.47,0c-.34-.91-.05-1.66-.43-3.35-.66.22-1.26-.27-1.83,0-.17.08-.27.77-.44,1-.32.36-.73.19-1.14.5-.74.55-1.49,1.64-2.51,1.95,0,0-.11.67-.23.48s0-.56-.12-.48-.28.77-.46,1-2,1.09-2.32.51c0-.06-.16-.78-.23-.95-.42-1.15-.58-4.72-.21-8.16.16-1.57.17-2.2-.45-2.39-.09,0-.18.59-.34.48a.53.53,0,0,0-.78,0c-.41.45-.67,1.42-.8,1.45-.71.18-.36-1.7-.91,0-.42,1.28-1.47,1.3-2.29,2.32-.44.54-.88,1.3-1.41,1.87-.22.24-.5.17-.7.46s0,1.17-.15,1.43c0-.06-.45.14-.7.46s-.81,1.25-1.42,1.39c-.27.06-.39-.49-.56-.5-.59,0-1.07.74-1.45-1.49,0-.1-.06-.92-.08-1-.27-.57-.11-.45-.27-1.93,0-.28-.18-.79-.18-1-.11-1.81.13-3.67-.17-4.32s-1.87,1.68-2.47,2.31-.78.2-1.2,1.4c-.29.85-.33.29-.84.94a7.64,7.64,0,0,1-.4.94,10.25,10.25,0,0,0-.39.95c-.19.23-.39-.26-.57,0s-.26.73-.4.94-.29.16-.49.44-.66,1.31-.78,1.38-.16-.54-.31-.51-.72,1.09-.74-1c0-1.08-.12-1.56-.1-1.94a18,18,0,0,1,1-4.73,14.83,14.83,0,0,0,1-3.77c-.17-2-.86.76-1.57,1.8s-1.52.69-2,2.72c-.29,1.25-.5.09-1,1.36,0,.11-.29.92-.3.94-.17.2-.39-.36-.56-.05s-.16,1.19-.34,1.41a4.39,4.39,0,0,1-.49.44c-.36.26-.73-.28-.92-.07s-.09,1.12-.23,1.42-.62.15-.84.41-.4,1.67-.77.9a10.91,10.91,0,0,1,.65-4.76c.1-.25.18-.9.31-.94s.11.69.18.5.16-1.14.24-1.43a11.79,11.79,0,0,0,.8-2.82c-.3-.12-.48.4-.75.9-.06.11-.17-.17-.22,0-.14.41-.2,1.13-.35,1.42s-.42,0-.61.43c-.43.88-.88,2.95-1.44,3.25-.23.13-.39-.7-.52-.53-.26.38-.46,1.6-.8,2.35-.22.48-2.33,3.45-2.77,2.17,0,0,0-.57,0-1.21s0-1.36,0-1.68c.1-1.1.25-.87.38-1.42s0,.06.05-.47c.07-1.82.41-.95.77-1.86.12-.32.31-1.83.47-2.37,0-.14.22-.32.27-.46.5-1.43,1.38-2.68,2-4.17.27-.67.53-1.7.78-2.35a4.45,4.45,0,0,0,.68-1.38c0-.16.05-.87.09-1,.32-.75.71-.6,1-1.36.35-.93.38-1.94.68-2.83.08-1.8-.37-.06-.44-1,.08-.69.33-.14.4-.93s-.38,0-.4.93c0,1.91-.66.65-.84.89s-.15.8-.3.94-.35-.23-.54-.05c-.34.34-.81,1.33-1.26,1.82s-1.51.2-1.88,1.29c-.09.27-.16,1.3-.26,1.43s-.36-.26-.66-.06-.71,1.61-1,1.84-.35-.72-.49-.55a7.15,7.15,0,0,0-.43.91c-.09.15-.25.19-.39.43s-.17.86-.22.94-.14-.17-.22,0a4.8,4.8,0,0,1-.93,1.32c-.47.54-3.27,5.11-3.28,2a7.85,7.85,0,0,1,.88-4.24c.16-.36.13,0,.28-.45s.38-.23.62-1.37c-.42-.82-1.12.89-1.67,1.71-.25.39-.57,1-.84,1.34a22.09,22.09,0,0,0-1.76,2.18c-.23.36-.54,1.13-.75,1.35s-.36-.27-.56-.08-.32.91-.36.92c-.34.2-.63-.27-1-.13.2-1.62.22-2.76.58-4.77-.17.13-.3.17-.69.88-.18.33-.33,1-.54,1.37s-.42.1-.63.4-.39,1.12-.55,1.38c-.4.66-.76,1.05-1.19,1.78s-.93,2-1.16,2.26-.45-.29-.68-.1c0,0-.42,1.67-.6.89a9,9,0,0,1,.31-3.35c.43-2,1.29-1.83,1.62-3.65,0-.52-.09-.2-.23,0s-.26.24-.4.43a13.53,13.53,0,0,0-1,1.8c-.16.31-.16.11-.3.45-.46,1.07-2.26,4.24-2.73,3.87-.22-.17-.19,0-.28-1-.05-.46.07-1-.18-1-.58,0-1.07,2.05-1.7,3.09-.12.2-.52.53-.74.83-.46.63-.75,1.32-.88.32,0-.19.05-1.05-.05-1-.44.25-1.3,2.19-2.07,3.52-.37.62-.71,1.24-1.05,1.75s-.69.8-1,1.28c-.55,1-1.26,2.79-2,4-.18.29-.28.07-.45.4-.44.9-1.21,1.83-1.84,3.07-.46-.31.31-.64-.28-1-.23-.15-.14-.62-.67.84-.23,1,.38.3.5.59-.49,1.5-.93,1.34-1.44,2.16-.37.59-1.36,3.09-1.65,3.11s.07-.59-.47.39c-.2.38-.36.8-.66,1.34-.6,1.1-1.57,2.1-2.4,3.44-.21.34-.51,1.13-.68,1.34s-.23-.23-.37-.07-.62,1.55-.95.79a11.1,11.1,0,0,0,.73-3.28,13.69,13.69,0,0,1,1.84-2.57c.15-.23.27-.65.45-.89l1.25-1.72-.4,1.88c.26.68.46-1.78.85-2.77-.22.57,1-1.71,1-1.76a2.43,2.43,0,0,0,1.13-1.25c.56-1.69,0,.14.67-.84.17-.26.38-.84.65-1.34s.68-.95,1.1-1.75c0-.08.3-.33.33-.42.52-1.62,0,0,.66-.85.08-.1.24-.83.3-.92.24-.32.56-.45.78-.83.33-.58.76-2,1.14-2.71.21-.42.47-.36.76-.83.18-.3.43-1,.62-1.35s.27,0,.22.05c.16-.22.18-.72.3-.92.58-1,1.3-1.74,2-3,.4-.75.82-2,1.2-2.7.18-.33.39-.18.54-.39.38-.54.93-1.85,1.4-2.66.34-.57.68-.69,1-1.26.06-.11.23-.86.28-.93a3.73,3.73,0,0,0,.9-1.29c.2-.45.82-1.46,1.18-2.21s.77-1.2,1.26-2.2a11,11,0,0,1,.86-1.79c.22-.15.37,1,.59,1.09.55.13,1.6-2.27,2.33-3.56.1-.18.27-.17.39-.43s.4-.9.65-1.36.66-1.15,1-1.8c.16-.28.24-.15.39-.43s.75-1.84,1-1.8.32,1.08.52,1.52c-.36,1.85-.85,1.77-1.16,4.21a17.49,17.49,0,0,1,.81-1.83c.21-.56,1.1-1.37,1.5-2.22.08-.18.29-.84.34-.92.16-.25.5,0,.8-.38.2-.28.33-1.7.72-1.35,0,0,0,.22-.07.45a4.54,4.54,0,0,0-.06.5c0,.14.35.66.45.55a28.64,28.64,0,0,1-1.94,5.55c0,1.67.74-.22,1.19-.81.23-.3.46-1.06.72-1.36s.45,0,.7-.38a8.92,8.92,0,0,0,.33-.92c.25-.57.76-1.2,1.08-1.8.49-.89,1.06-2.45,1.34-2.23l.07.32c0,.2.08.45.13.7.09.51.19,1,.19,1a8.35,8.35,0,0,1-.55,1.86c-.6,2.13-.2,1.12-.86,1.82-.08.09-.27.81-.33.92-.24.39-.45.54-.65.88-.48.81-.94,2.08-1.33,2.73s-.8.62-1.16,1.29c-.14.25-.33,1-.52,1.38a2.13,2.13,0,0,0-.52,1.39c.19,1,.64-.27,1-.84.15-.23.36-.54.56-.89,0-.07.2-.3.28-.44s.2-.9.23-.94c.15-.22.28.28.43.06s.2-.91.23-.94c.23-.25.37-.12.6-.4s.41-.6.65-.88c.44-.51.67-.38,1.14-1.3.17-.34.35-1.16.49-1.38.41-.66.7-.31,1.06-.82s.79-1.44,1.32-2.24c.11-.15.37-.85.42-.91.22-.22.22.32.42.06.45-.6,1.21-2.46,1.62-2.27a6.24,6.24,0,0,1,.58,1.5,14.45,14.45,0,0,1-1.3,4.22,18.62,18.62,0,0,1-1.48,2.68c-.5.75-1,1.45-1.55,2.29-.25.39-.49,1-.71,1.36s-.55.5-.76.86S315.05,346.35,314.52,346Z"/><path d="M500.37,249.05a6,6,0,1,0-6-6,6.08,6.08,0,0,0,6,6Z"/><path d="M324.39,266.2a6,6,0,1,0-6-6,6.07,6.07,0,0,0,6,6Z"/><rect class="cls-4" width="784.58" height="784.58"/></g></g></svg>