<svg xmlns="http://www.w3.org/2000/svg" viewBox="0 0 784.58 784.58"><defs><style>.cls-1{fill:#b3b3b3;}.cls-2{fill:#a779cd;}.cls-3{fill-rule:evenodd;}.cls-4{fill:none;}</style></defs><title>자산 8</title><g id="레이어_2" data-name="레이어 2"><g id="레이어_1-2" data-name="레이어 1"><path class="cls-1" d="M101.31,607.71c54.93,27,107.38,26.3,157.39-6.7,5.2-3.44,12.61-5.19,19-7.73,24.47,7.64,51.23,9.79,76.49,7.94,71.67-5.26,142.91-.39,214.32.85,20.88,6.85,41.58,14,62.67,20.5,40,12.31,81.34,13.86,123.55,7.1C752,664.29,743.62,668.84,695,669.09c-152.26.78-303.83-12.5-456.24-10.28A347.88,347.88,0,0,1,116.4,638.28C97.35,631.4,88.37,622.37,101.31,607.71Z"/><path class="cls-2" d="M676.56,581.31c7.39,3,5,7.78,29.11,15.23,25.62,7.92,37,17.84,35.27,30.4-1.1,8.19-11.29,12.88-33.49,17-31.62,5.83-56.43,7-61.91,6.74-65.35-2.69-102.16-4.2-137.4-33.13-13.81-11.34-11.24-13.65-20.72-18.86-35.59-19.57-59.28,19.86-118.77,21.31-39.39,1-46.65-15.89-80-6.56-10.1,2.82-24.33,8.52-48,11.82-19.23,2.69-30.31,1.79-34.13,1.41-20.08-2-22.56-11-40.36-11.48-35.57-1-62.2-1.76-91,3.74-4.18.8-13.87,2.77-17.2-2.58-2.9-4.66.23-12.94,2.17-16.51,10-18.2,44.06-13.3,59.35-11.63,41.41,4.52,82.8-7.89,124.33-8.87,108-2.55,170.39,10.58,308.31-.8C578.6,576.33,648.47,569.89,676.56,581.31Z"/><path class="cls-3" d="M367,580.43c-.33.27,3.09,1.06,3.39,1,.67-.13,1.07-1.7,2.06-1.9,1.26-.27,2.09.47,4.75,0,2.08-.35,4.14-2.07,6.8-2.87,1.24-.37,2.94,0,4.75-.49l.91-.2a9.7,9.7,0,0,0,1.13-.3c.21-.09.51-.92.67-1,1-.25,2.39.24,3.4,0,1.28-.33,2.14-1.18,3.37-1.47a6.73,6.73,0,0,0,1.36-.5c.53,0,.7.57,1.36.46,1.75-.3,4.54-1.38,7.44-2s5.42-.94,8.8-1.62a9.38,9.38,0,0,0,2-1c1.14-.13,2.36.55,3.41.4,2.72-.4,7.36-2.35,10.85-1.28.84.26,1.13,2.05,2.12,2.33.13,0,1.34-.1,1.36,0,.32.87-4.82,5.68-5.94,6.43-1.31.89-3.57,1.56-5.39,2.56a8,8,0,0,1-1.36.52s-1.27.46-1.35.51c-.74.47-.63,1.6-1.32,2-1.22.64-2.92.43-4.08,1.06s-1.75,1.42-2.7,2c-.52.31-1.45.19-2,.52-.23.13.22.81,0,1s-1.11-.12-1.37,0a30,30,0,0,0-5.43,3.46c2.81,1.15,5.22-.36,7.54-1.1l11.57-3.64c1.33-.42,2.49-.94,4.76-1.58s4.16-1.46,6.79-2.13c.39-.1.83-.61,1.35-.53,1.13.17.63.12,2.73-.57s4,.54,3.52,2.76c-.59,2.55-8.63,3.52-8.07,5.08,1,2.68,8.22-1.41,9.57-1.78,2.54-.68,4.62-.4,5.47-.69.54-.17.83-.73,1.34-1,2.43-1.33,7.79-2.46,11.52-3.85,4.32-1.59,12.68-3.36,18.36-4.22.86.74.11,2.24.85,3.32,1.71,2.53-3,3.66-4.5,6.48.21.5,1.78.48,2.77.34,1.38-.2,1.34-.88,2-1.06,1.66-.43,3.52-.61,5.45-1.24.66-.21,1.17-.81,2-1.06,1.21-.35,1.82-.33,2.73-.62,1.44-.46,2.76-1.31,4-1.66,1.76-.47,3.75-.3,5.48-.77,1.49-.41,3.73-1.2,5.41-1.74,1.9-.61,4.23-1.82,5.42-1.74,2.66.16,0,1.11,1.46,1.35,2.44-.18-.26-1.32,2.64-2.07,1.42-.36,7,.45,8.33,1a8.11,8.11,0,0,1,2.15,1.32c1.38,1.35,0,3.75,1.68,5.19a10,10,0,0,0,3.53,1.24c1.37.35,3.68,1.47,6.25.59,1.36-.45.24-.74,2-.6.86.07,5.16-1.43,6.8-1.84,1.46-.36,2.67-.33,4.11-.72.36-.1,1.06-1,1.32-1,.63-.17,1.44,0,2.07-.12,2.75-.73,7.49-1.57,11.6-2.6.37-.09,1.07-1,1.33-1,1.25-.34,2.93-.14,4.11-.72s2.38-.19,4.8-.76c.69-.16,1.59-1,2-1.07,3.33-.84,6.95-.82,11.69-1.62.9-.15,1.76-.89,2.72-1.1,5.51-1.25,11.8-1.19,12.61,2.22a5.12,5.12,0,0,1-1.22,3.43c-.77,1.06-4,2.35-1.21,3.42,3,1.14,9.64.51,14.54-.23,1.21-.18,1.72-.78,3.41-1.11-.26,0,.42.73.71.45,1.53-1.45,8.64-1.73,12.39-2.43.15,0,0-.48.68-.5.34,0,1,.38.71.45,1.84-.45,2.55-1.35,4.11-1.58s3.84,0,5.57-.18c5.43-.39,10.4-1.82,15.32-.83,2.42.5,2.73,1.76,7,1.37,1-.09,1.8-.72,2.79-.5l.75.33,1.61.73a17.31,17.31,0,0,1,2.54,1.35c2.31,2.8-2,8.6,4.81,6.27.86-.29,1.21-1.11,2.1-1.41s2.65-.16,3.48-.41a8.47,8.47,0,0,0,2.12-1.39c1.79-.5,4.55-.35,6.32-.74.34-.08.48-.86.74-.93,1.07-.29,2.55.05,4.25-.28.92-.17,1.8-.59,2.88-.78a6.35,6.35,0,0,1,2.12.14c2.62-.45,3.09-1.72,5.1-1a2.07,2.07,0,0,1,.54,2c3.49,1.57-1.76-1.13,1.42.14.86.34,1.08.88,2,1.18.47.77-1,.92-1.61,1.76-.45.56-.42,1.8-1,2.31-1.2,1.15-3.8,1.39-3.67,2.07.37,2,2.43,2.2,4.67,1.9s4.67-1.08,5.68-1.25a71.92,71.92,0,0,1,12.28-.61c2.36,0,5-.43,8.55.19l2.39.51a18.8,18.8,0,0,1,3.94,1.31,22.8,22.8,0,0,1,5.18,3.1,17.55,17.55,0,0,1,3.82,4.32c-.12-.2,1,.12,1,.93a3.77,3.77,0,0,0,.51,2.48,7.79,7.79,0,0,1,1.4,2.27,9.71,9.71,0,0,1,.51,3.69c0,1.23-.15,2.54-.22,4.31,0,.49.54,1.93.47,2.25a32.63,32.63,0,0,1-1.92,6.58,59.84,59.84,0,0,1-2.66,5.71,65.67,65.67,0,0,1-4.24,7.49,36.72,36.72,0,0,1-7.15,7.91,32.48,32.48,0,0,0-3.4,1.81,17.37,17.37,0,0,1-2.75,1.64,30.94,30.94,0,0,1-3.45,1.28c-.89.27-1.79.53-2.67.76-.65.16-1.26.3-1.86.42a24.29,24.29,0,0,1-2.95.43,9.79,9.79,0,0,1-4.6-.44c-1.87-.56-3.35-4.07-2-5.9.26-.37,1.55-1.26,1.65-1.59.23-.73-.81-1.54-.78-2.27,0-.37,1.18-1.54.83-1.81-1.94-1.46-6.62,1.18-9.29,2.65-2.84,1.6-6.12,2.32-7.94,4.58-.53.62-5.31,2.57-7.57,3.72-.75.39-1.54,1.12-2.43,1.67-.52.31-1.52.2-2,.53-.21.13-.27,1-.43,1.1-1,.47-2.83.55-4.08,1s-1.57,1.25-2.53,1.57c-1.27.42-2,0-3.54.28a20.09,20.09,0,0,0-3.55,1.17,27,27,0,0,1-3.92,1.22c-2.45.53-5.25.38-7.79.67-2.23.18-4.85.67-7.29.9s-4.71.33-6.18-.25c-1-.36-.17-1.24-.78-1.89s-2.39-1.07-2.16-2.34c.14-.78,1.37-2.5,1.26-3.4,0-.13-.87-.43-.7-.94s2-2.57,2.52-3.44.64-1.22,1.2-2c1-1.41,1.48-2.06-.84-3.79a17.71,17.71,0,0,0-2.58-1.83,9.29,9.29,0,0,0-2.64-.2,16.88,16.88,0,0,1-2.94-.21c-1.41-.3-2.31-.89-3-1-1.52-.23-3.5-.46-5.54-.65-1.05-.07-2-.26-3-.38s-1.89-.26-2.74-.35a14.05,14.05,0,0,0-1.83,0,6.51,6.51,0,0,1-1.6-.06c-2.4-.43-4.73-1.15-7.14-1.8-1.18-.4-2.37-.78-3.58-1.15s-2.43-.9-3.66-1.31-2.56-1-3.84-1.42-2.7-1-4-1.46a63.07,63.07,0,0,0-8.4-2.36,12.38,12.38,0,0,1-2.61-1,30.22,30.22,0,0,0-3.63-1.41,37.41,37.41,0,0,0-4.92-1c-1.65-.27-3.26-.58-4.85-.89a35.63,35.63,0,0,1-3.64-1.08l-1.77-.57c-.6-.14-1.2-.26-1.81-.34s-.93.28-1.56,0c-.24-.09-1-.72-.57-.68-2.27-.24-3.06.35-4.65.12-2.06-.25-5.75-1-9-1.66a40.39,40.39,0,0,1-6.62-1.44,8.23,8.23,0,0,0-.53-1.09c.13.13-.61-.95-.62-.61,0-.76,1.91-.79,1.69-1.13-1-1.71-4.65-2.6-8.6-3.07a51.11,51.11,0,0,0-10.61,0c-3.73.45-11.56-.42-18-.26-5.92.17-11.05,1.48-14.33.84-2.17-.46-4-3.11-5.69-3.42-3.83-.76-8.18.84-12.93,1.21-1.14.1-2.45-.33-3.61-.31-2.52,0-9.17,1-12.94,1-3.42-.08-6.79-1.3-10.4-1.2-5.74.24-13.76,2.09-21.61,4.33-3.77,1.05-7.51,2.26-10.83,3.37L417,615.12l-4.09,1.33c-1.26.44-2.48.88-3.72,1.38a32.1,32.1,0,0,1-4,1.23,60.21,60.21,0,0,1-10,1c-3.34.13-6.48.15-9.26.51-1.17.14-2.43,1-3.76,1-3-.07-5.38-1.39-9.88-1.57a133.57,133.57,0,0,1-22.64-2.36c-1.71-.34-2.89-.94-4.43-1.24-2.23-.46-4.52-.44-6.73-1-1-.27-2.05-1.22-3.16-1.47-3.39-.77-6.81-.73-10-1.43-1.08-.23-2.15-.53-3.22-.84s-2.18-.57-3.27-.77c-5-.9-10.26-.88-14.56-1.17a16.28,16.28,0,0,1-2.34-.1,5.06,5.06,0,0,1-.75-1c-.65,0-2.32.79-3.93,1-3.81.43-9.6.79-12.35,1.28-1,.11-2.53.61-4.3,1a45.44,45.44,0,0,1-5.37,1.23,28.48,28.48,0,0,1-7.27.51c-1.95-.21-3.32-1-3.65-2.78.06.32.27-1.68.24-1.64.29-.44,1.89-.91,2.21-1.37.91-1.35.84-2.4,1.6-3.1.47-.41,2.75-.95,3.92-1.76.3-.2.28-1,.55-1.14s1.3-.2,1.64-.44c.94-.68.93-1.57,2-2.52.69-.58,2.46-1.08,3.24-1.69a54.62,54.62,0,0,0,4.47-3.55c.93-1,.67-1.65-2.6-1.22-.86.1-1.89,1-3.54,1.2-2.7.35-4.61.07-6.44.59s-3.13,1.69-5,2.51c-2.65,1.15-5,1.7-7.76,3.38a18.28,18.28,0,0,1-5.08,2.86c-2.66,1.3-4.09,2.92-7,5l-4.67,3.32L240,612.78c-.36.28-.64.51-.91.74l-.83.72c-2.27,2-3.54,3.75-4.63,4.75-.3.26-.61.47-.93.72s-.69.37-1,.59-.8.34-1.19.56a12.5,12.5,0,0,1-1.36.64,3.18,3.18,0,0,0-.81.66,2.65,2.65,0,0,1-1,.61,6.32,6.32,0,0,1-1.54.2,13.25,13.25,0,0,0-1.63.07,21.86,21.86,0,0,0-2.51.67,23.5,23.5,0,0,0-2.61.79,6.45,6.45,0,0,1-2,.32,18.5,18.5,0,0,1-2.62.06,24.57,24.57,0,0,1-5.77-.89c-1.11-.31-2.2-.53-3.37-.91s-2.24-.58-3.34-.88-2.14-.07-3.13-.4c-1.25-.45-2.62-1.4-4-2s-2.69-1-4.07-1.48a25.19,25.19,0,0,1-3.71-1.46c-.89-.47-2.56-1.78-4.51-3.07a17.75,17.75,0,0,0-6.54-2.82,26.8,26.8,0,0,1-5.33-1.9L167,607.6c-.64-.25-1.28-.5-1.93-.73s-1.31-.43-2-.62c-1.47-.44-2.07-.26-3-.56-1.57-.52-3.43-1.74-4.93-2.12-1.21-.27-2.09.34-3.2.07-1.56-.37-2.86-1.34-4.29-1.65-4.52-1-8.87-1.12-12.8-1.72-2.61-.38-5.53-1.29-8.89-1.76-1.21-.19-2.51-.28-3.83-.39-.66,0-1.33-.07-2-.11l-1,0-.5,0h-.3a13.82,13.82,0,0,1-3.75-.37,4.31,4.31,0,0,1-1.66-1.1,2.11,2.11,0,0,1-.69-1.32c0-.87,1.48-3.31,1.51-3.77a5.87,5.87,0,0,0-.37-1.87c-.25-1.16-.09-1.68-1.94-1.29a5.1,5.1,0,0,1-1,.53c-.22,0-.17-.41-.09-.44-.44.16-1.42.93-1.82,1.05-.57.17-.68-.06-1.24.14s-1.61.84-2.31,1.12c-.5.21-.45,0-.9.12s-1.89.91-2.59,1.19c-1.77.68-2,.39-4.36,1.48-.41.18-2.09,1.09-2.24,1.14-.83.32-.72,0-1.41.24s-2.14.94-3,1.29c-.59.23-.29-.11-.91.15-.25.1-2.13,1.11-2.27,1.16-1.51.53-2.28.56-3.63,1-1.66.53-4.55,1.6-6.92,2.32s-4.16,1.09-3.15.19c3.89-2.06,2-.43,4.75-1.83.67-.6-1.15.14-.4-.51s4.13-2.18,3.93-2.39-3.81.86-4.71.75a1.42,1.42,0,0,1-1.29-.94,9.59,9.59,0,0,0-.62-1.6c-.46-.69-2.35-.81-2.34-1.54,0-2.28,2.35-5.42,6.32-7.78.71-.43,2.33-.75,3.35-1.2,1.6-.69,1.4-1.16,3-1.72,2.45-.86,6.47-1.45,8.47-2a14.6,14.6,0,0,0,3.62-1.44,12.06,12.06,0,0,1,2.81-1.3c.6-.19,2.2-.26,2.59-.41,1-.38.9-.9,1.84-1.29a36,36,0,0,1,4.51-.79,4.69,4.69,0,0,0,1.23-.51,2.68,2.68,0,0,1,1.38-.26c1,.06,3.29,1.33,4,1.58.88.29,1.34-.15,2.07-.19,0,0-.23-.51-.13-.46a1.45,1.45,0,0,0,.7.19l.34,0a.65.65,0,0,0,.2,0l.94-.2,1.88-.43,1.81-.26,3.23-.5c.87-.08,1,.53,2,.44a27.49,27.49,0,0,1,3.81-.1c.92.12,1.69-.42,2.4-.35l1.55.15,1.45.2c1,.14,2,.15,3.24.27.87.08,1.34.76,2.32.88a36.29,36.29,0,0,1,4.43.45c-.12,0,.42-.71.6-.36.43.94,1.52.79,2.78.46a8.23,8.23,0,0,1,3.64-.52c1.44.33,2.32,1.84,3.91,3,3.88,2.83,10.32,6,16.3,10.2a9.24,9.24,0,0,0,1,.56,13.31,13.31,0,0,1,1.3.76,4.91,4.91,0,0,1,1.14,1.05,1.49,1.49,0,0,1,.3,1.29c-1.53-1.17-2.69-2-3.83-2.72s-2.3-1.36-3.46-2c-2.31-1.2-4.65-2.24-6.89-3.33-.66-.35-1.4-1.25-2.11-1.55-1-.45-2.18-.12-3.18-.38-.78-.19-1.13-1.08-2.15-1.4-.46-.16-1.19.07-2-.27s-1.74-1.12-2.65-1.41c-3.67-1-7.79-.88-11-1.21a7.69,7.69,0,0,1-1.83-.29c-.37-.2-.16-.93-.81-1.05s-.74.81-1,.85c-.62.1-.75-.59-.87-.58-.54,0-1.1,0-1.66,0s-1.14,0-1.72,0c-1.17-.09-2.4,0-3.67,0a35.05,35.05,0,0,0-8.12.83,16.08,16.08,0,0,0-2.27,1c-.13,0-.08.07-.09.1V579a.15.15,0,0,0,0,.12,2.15,2.15,0,0,0-.33-.55c-.21-.26-.51-.44-.41-.24a6.06,6.06,0,0,0,.73.79l-.88-.73c-.52-.36,0,0-1.09-.64a8.68,8.68,0,0,0-2.4-1.16c-.36,0-.21.3-.63.33s-1.38-.24-1.85-.21c-.63,0-.83.25-.94.47a.88.88,0,0,1-.63.56c-.31.08-1.79.06-2.35.21-.81.22-.35.58-1.12.87-.3.12-2.12.31-2.62.48-1.55.53.53.5-3.16.93l-2.35.26c-.79.2.34.36-.67.58-.4.08-3,.34-3.6.45-.28,0-3.88,1-4.52,1.29-.91.34-.37.63-1.21,1.14-1.3.79-4.06,1.57-4.63,2.62-.07.13,1.48-.15,1,.09s-3,1.89-3,2.61c0,.38,1.93.22,2.26.51s0,.62-.11,1.08-.12.94.34,1.2a5.63,5.63,0,0,0,3.19.15c1.26-.19,2.55-.52,3.55-.77,2-.52,2.88-.71.77.59-.73.45.49-.14-.76.54s-1.37.68-2.14,1.15c-1.6,1-1.06.92.6.35.34-.12,1.64-.74,1.6-.65s-1.44.75-.84.54c1.16-.43,3.68-1.61,4.6-1.93,1.82-.65,1.85-.28,3.59-1,.87-.35,3.06-1.53,3.64-1.77,1.13-.47,1.41-.36,2.44-.78s2.58-1.23,3.63-1.75c.51-.26.74-.29,1.37-.6.44-.21,1.53-1,1.74-1.05.76-.33.66.11,1.29-.14-1.39,1.48-1.31,1-2.77,2.45a6.36,6.36,0,0,0,2-1.56c.72-.73,1.48-1.51,1.9-1.86.42.15,1.22-.06,1.47.37s-.12,1-.24,2.35c0,.65,0,1-.06,1.52s-.16,1.22-.29,2.27a19.85,19.85,0,0,0-.24,2.38c.14.27.51.3,1,.33a5.1,5.1,0,0,1,1.62.28,1.86,1.86,0,0,1,.43.24l.21.17a3.39,3.39,0,0,0,.45.19,8.31,8.31,0,0,0,1.71.59c5.28.77,12,.64,18.47,1.61,3.36.5,6.47,1.54,9.11,2,1.84.36,4.12.08,5.54.51,1.77.5,3.16,1.83,5,2.51a29.84,29.84,0,0,0,7.52,2.13c.9.12,1.55-.36,2.52,0,1.43.49,2.87,2.27,4,2.64,2.68.92,5.92.73,8.51,1.73.85.32,1.74.71,2.65,1.15s1.78,1,2.69,1.47c1.86,1.07,3.62,2.22,5.4,3.32.92.56,1.74,1.07,2.59,1.56s1.69,1,2.5,1.33a20.18,20.18,0,0,0,2.33.93,8.17,8.17,0,0,0,2.2.46c.75,0,2.75,1.18,4.63,1.94a12.37,12.37,0,0,0,2.72.88,6,6,0,0,0,1.14.13,2,2,0,0,0,.86-.24c1.11-.65.31-.59,2.2.11A6.79,6.79,0,0,0,216,621a18.29,18.29,0,0,0,2.44-.86c1.38-.62.77.37,2,.57a7.88,7.88,0,0,0,1.41-.29c.73-.25,1.55-.53,2-.72.64-.26,1.13-.86,1.62-1.07a5.88,5.88,0,0,1,1.77-.18,3.54,3.54,0,0,0,1.46-.3,2.07,2.07,0,0,0,.92-1,6.83,6.83,0,0,1,.65-.91c.25-.26.78.37,1.31,0,.15-.1.16-.29.17-.51a1.41,1.41,0,0,1,.25-.8c.14-.18.36-.2.79-.45a3.32,3.32,0,0,0,1-.62,13.18,13.18,0,0,0,.82-1.08c.29-.42.46-.75.84-1.24a14,14,0,0,1,.91-1.11,13.64,13.64,0,0,1,1.21-1.22c1-.92,2-1.83,3.55-3,.72-.55,1.43-1.1,2.25-1.69l2.6-1.79c.88-.62,1.84-1.22,2.83-1.83l3-1.87c1.71-1,2.18-1.82,4.2-3a59.28,59.28,0,0,1,6.5-2.85l4-1.36c1.36-.48,2.73-.95,4-1.36s2.73-1,4.4-1.5a38.18,38.18,0,0,1,5.75-1.31c1.36-.18,3.8-.64,3.89-.63,1.14,0,1.4.65,2.1.69,2.82.24,2.86-.16,5.05.95.27.13,2,.77,2,.83,1.48,1.68.23,5-.61,5.81a4.55,4.55,0,0,1-1.75.14,6.7,6.7,0,0,0-1.91.17c-.89.44-1.24,1.91-2.41,2.69-.56.35-2,.52-2.54.88s-.9.81-1.56,1.22l-3.6,2.23c-.58.36-1.15.71-1.69,1.07s-1,.76-1.49,1.15a25.66,25.66,0,0,0-2.52,2.44c-.74.82-1.38,1.64-2,2.37a8.33,8.33,0,0,0,2.27-.22,19.48,19.48,0,0,0,2.28-.57l2.34-.72a18.48,18.48,0,0,1,2.46-.5,14.12,14.12,0,0,1,2.43,0,10.67,10.67,0,0,0,2.45,0c2-.32,3.42-1.28,5.48-1.68a25.87,25.87,0,0,1,5.24-.18c1.8.14,3.61.27,5.36.35,3,0,7.24.26,10.48.51a19,19,0,0,0,2.92,0,13.2,13.2,0,0,1,2.69.08c1.75.26,2.81,1.29,4.42,1.49a37.22,37.22,0,0,0,3.77.48,19.45,19.45,0,0,1,3.11-.13c1.87.39,3.58,1.61,5.38,2.1,1.5.41,2.55,0,4.28.31,3.94.68,7.75,2.94,10.94,2.72.79-.06,1.23-.52,2.09-.43a16.74,16.74,0,0,1,3,.68,18.8,18.8,0,0,0,3.08.79c1.48.23,2.37-.24,3.79-.2,1,0,.93.68,1.7.82.6.09,2.65-.5,3.72-.37.91.08,1,.71,1.71.71,1.18,0,2.1-.62,3.08-.6s1.67.67,2.92.76c.83,0,2.16-.33,3-.28a29.88,29.88,0,0,1,3,.35,15.81,15.81,0,0,0,3,.3c1.27,0,2.35-.51,3.62-.5s2.47.41,3.65.35,2.15-.24,3.24-.41,2.19-.36,3.25-.59,2.13-.38,3.16-.5a14.81,14.81,0,0,1,2.87-.18c.54.05,2.52.06,2.31.1,1-.22,1.58-1,2.51-1.47,2.68-1.1,4.93-1.36,8-2.23a41.66,41.66,0,0,0,4.63-1.79l2.59-1.09c.87-.35,1.82-.68,2.7-1,1.61-.55,3.39-1,5.1-1.47s3.52-.82,5.29-1.19l5.29-1c1.75-.27,3.49-.55,5.24-.85,2.77-.41,5.13-1,7.38-1.41a27.51,27.51,0,0,1,6.76-.48c2.26.19,3.94,1.74,6.8,1.78.86,0,3.4-.41,6.1-.81s5.56-.82,7-.95c2-.14,4.56-.09,7.32-.19,4.42-.21,10.07-1.16,11.71-.44,1.26.55,1.14,3.94,2.07,4.36.59.29,3.55.38,6.51.39a43.73,43.73,0,0,0,6.51-.22c1.28-.41,3,.1,5.81,0,1,0,2.09-.66,3-.67,3.29-.07,6.94.72,10.18.67,2.12,0,4-.59,6-.61,1.17,0,2.45.46,3.62.56,1.93.16,3.48-.35,4.49-.21a29.28,29.28,0,0,1,5,1.46s.21.2.51.46l1.07,1a14.88,14.88,0,0,1,1.59,1.64c.53,1.67-2.06,1.81-.61,2.82a10.3,10.3,0,0,0,2.63,1,30.16,30.16,0,0,0,4.43,1.1c1.49.25,2.13-.57,4-.48.89,0,2.77,1.09,5.05,1.51,1.39.27,2.53-.1,3.91.21s2.6.84,4,1.35c.73.26,1.48.51,2.26.74s1.6.48,2.46.65c.36.07,1.55-.36,1.79-.3,1.17.3,2.4,1.07,3.53,1.49,1.38.49,2.68.32,3.85.7,1.33.42,2.5.87,3.67,1.32l3.39,1.34c2.11.84,4.26,1.71,6.24,2.27a27.37,27.37,0,0,0,2.72.66,10.19,10.19,0,0,1,2.08.54c1.31.59,1.88,1.43,2.89,1.74a6.34,6.34,0,0,0,2.24.33,4.54,4.54,0,0,1,1.56,0c1,.24,1.79,1.16,2.82,1.37s2.07.08,3.12.3c.83.13,2,.85,3.08,1.05s1.17-.29,2.21-.11c1.44.24,2.69,1.13,4.39,1.47.85.2,2-.36,3-.28,1.72.07,4.26,1.17,6.53,1.22,1.1,0,2.16-.56,3-.46,1.18.11,2.31.6,3.66.85,1.86.39,4.06.45,3.68.29,2.08,1,3.51,3.84,3.59,6,.05,1.2-1,2-1.66,3.48-.4.81-.19,1.32-.53,2-.82,1.56-.9,1.76-1,4.88-.07,2-.85,2.11,1.57,2.78,2,.53,1.08-.54,4.12-.81,1.72-.18,3.52.21,5.58-.15,1.59-.27,3.38-1.05,4.74-1.15s2.53.59,3.59.36a34.6,34.6,0,0,0,7.22-2.87,8.5,8.5,0,0,1,1.91-.93c1.83-.64,3-.13,4.82-.65a28.84,28.84,0,0,0,3.77-2,40.19,40.19,0,0,0,3.72-2c.69-.58.93-1.93,2.11-2.6,3.68-2.07,6.69-1.61,10.15-4.15.66-.5,1.37-.57,1.8-1.1.12-.16.21-1,.34-1.13.87-.6,1.39.19,2.1-.18.44-.24.2-1,1-1.35,3.11-1.39,6.51-2.42,9.06-2.34s4.19,1.33,4,4.4a14.25,14.25,0,0,1-.17,1.59s0,.33,0,.72a4.08,4.08,0,0,1-.12.87c-.26.47-2.67,1.77-2.79,2.5,0,.1,1.13,1,1.28,1.58.08.31-.81,1.6,0,2s1.09-.29,2.13-.23c.19,0,.86.69,1,.67a15.68,15.68,0,0,0,1.67-.38l1.29-.37,1.49-.47c1.08-.37,2.23-.73,3.25-1.18A24,24,0,0,0,738,640c1.67-1,3.26-2.86,5.34-4.75a43.56,43.56,0,0,0,3.89-3.91,29,29,0,0,0,3.64-5.32,35.45,35.45,0,0,0,1.88-3.75c.4-1,.45-2.42.79-3.42A39.14,39.14,0,0,0,756,608.42a20.25,20.25,0,0,0-.28-4.88,17.17,17.17,0,0,0-.55-2,14.16,14.16,0,0,0-.68-1.56,9,9,0,0,0-1.62-2.12c-.3-.29-.59-.55-.88-.79s-.6-.41-.89-.59l-.84-.51-.81-.4c-.5-.26-.95-.52-1.36-.75a14.38,14.38,0,0,0-4-2.92,12.45,12.45,0,0,0-2.5-.23c-1-.39-1.07-1.22-1.85-1.37-1.06-.19-.88.47-2.57.55-1.2,0-2.31-.76-3.53-.65a18.2,18.2,0,0,0-3.07.66c-.57.16-1.81.86-2.33.93-.77.08-1.86-.58-2.66-.56-.39,0-1.24.68-1.51.69-1.21.07-2.86-.36-4.08-.18-2.87.38-5.25,1.52-7.71,1.94-3.55.59-6.61,1.15-8.11.26-.85-.49,0-1.21-.55-2-.3-.45-1.17-.35-1.29-1-.53-2.79,2.67-5.72,3.26-7.48-3.17-.34-5.48,1.43-7.78,1.94-1.93.45-3.93.29-5.57.74a46.55,46.55,0,0,0-6.27,2.72c-.71.3-1.42.17-2.07.44-.48.2-1,.74-1.38.94s-1.51.17-2.07.46c-1.29.67-.55.72-4.11,1.41-3.15.61-3,.7-4.11-1-.94-1.41.11-7.53-2.11-8.63-1.91-.94-3.94.79-6.92,1,0,0-.77-.63-1.39-.46a2.78,2.78,0,0,1-2.77,0c-1.91-.88-.08-1.66-2.15-3.32-4.06.3-7.59-.1-11.1.29-1,.12-1.7.83-2.74,1-2,.42-4.41.32-6.91.72-4.48.71-9,2-15.12,2.55-.17,0-.65.69-1.36.54-.27-.06,0-.57-.71-.45-1.1.18-1.66.84-2.72,1.09-1.36.32-11.57,1.62-13.77,1.17-.24,0-1-.73-1.43-.89-2.54-1-3.8-4.53-1.81-8.08.91-1.61.94-2.24-2.89-2.24-.56,0-1.06.65-2,.59a16.75,16.75,0,0,0-4.84.26c-2.47.58-3.95,1.63-4.75,1.71-4.31.42-2.36-1.57-5.52.31-2.41,1.44-8.84,1.86-13.66,3.19-2.57.71-5.11,1.63-8.15,2.4-1.27.32-3,.37-4.11.72s0,1.18-.61,1.48a26.11,26.11,0,0,0-4.1.73,40.3,40.3,0,0,1-8.18,1.92c-1.55.16-2.42-.34-3.47-.28-3.51.2-6.17,1.13-9-.92-.13-.09-.61-.88-.74-.92-1.83-.45-.79-.4-2.18-1.79-.27-.27-1.32-.72-1.43-.88-1.17-1.75-.3-3.67-2.31-4.2s-10.92,2.37-14.31,3.21c-3.65.9-4.73.48-6.8,1.81-1.47.94-1.88.4-4.76,1.21-.5.14-1,.77-2,1.07s-1.52.93-2,1.06c-1,.29-2.43-.12-3.44.18-.62.19-1.24.8-2,1.06-1,.34-1.67.27-2.73.62-1.56.52-3.39,1.53-4.06,1.64-1.12.19-1.2-.46-2.08-.38-1.58.14-3.8,1.32-4.87-.73-.54-1-1.41-1.48-1.46-1.86-.28-1.83,1.13-2.54,3.9-5,.17-.15,5.54-3.14,4.62-4.07-1.89-1.92-5,1.07-8.83,2.34-3.35,1.11-9,1.22-10.86,3.36-1.15,1.32-3,.26-5.43,1.66-.21.12-1.3,1-1.34,1-1,.25-2.55-.22-3.44.13s-.31,1.22-1.32,1.49c-.77.21-2.6.56-2.73.58-2,.37-4.49-.06-5.5.2s0,1.12-.64,1.46-3.59.32-4.8.64c-.48.13-1.46,1.74-4.1,1.09-1.78-2.18-.84-3.68,1.23-4.84.48-.27.63-.94,1.34-1,.27,0,1.08.64,1.39.43s.33-1.16.64-1.46c.71-.69,3.19-1.53,3.34-3a8.22,8.22,0,0,0-4.08,1.09c-.29.12-1.16-.11-1.38.05-.57.43-.56,1.15-1.32,1.48s-2.48.15-3.42.58c-2.13,1-3.63,3.11-6.78,3.54-1.33.18-2.8-.6-3.44-.39-1.38.43-1.79,1.67-3.39,2.47-1,.54-11.75,3.86-15.1,2.66l-.34-.36c-.19-.22-.45-.52-.7-.83a5.4,5.4,0,0,1-1.06-1.67c-.1-1.11.94-.89,1.36-1.46s.23.06,0-.47c-.79-1.81,1.83-1,3.4-2,.55-.34.68-1.85,1.34-2.42.16-.14,1.15-.34,1.36-.5,2.07-1.5,6.66-2.9,9.5-4.49,1.27-.72,2.21-1.79,3.36-2.48.64-.39,2.89-.71,3.38-1.52.09-.16-.21-.87,0-1,1.56-.82,4.06-.77,5.42-1.59,1.68-1,1.29-2,2.64-3-.59-1.79-2.38,0-3.43-.87.14-.69,2-.22,2-1-.83-.83-2.41.15-2,1,.85,1.89-3.75.81-4.74,1.09-.72.2-.47.82-1.33,1-1.07.21-2.35-.14-3.41.08-1.9.4-4.23,1.48-6.76,2.06-1.71.4-9.29.47-10.87,1.61-.37.27-.14,1.3-.66,1.44-.73.2-2.4-.2-4.08,0s-3.29,1.68-4.76,2c-.87.16-2.64-.66-3.4-.47a15.78,15.78,0,0,0-2,1c-.42.16-1.41.23-2.05.48-.28.12-.44.89-.68,1s-1-.14-1.36,0a21.83,21.83,0,0,1-4.78,1.42c-2.51.62-16,5.34-18.43,2.14-1.59-2.1-1.08-2.67,2.13-4.27.73-.36.81,0,1.37-.45s2.12-.25,2.74-1.4c-3.18-.81-6.16.92-8.86,1.74-1.27.38-2.75,1-4.11,1.33-3,.73-5.8,1.14-8.91,2.09a36.05,36.05,0,0,1-3.46,1.3c-1,.19-2.36-.32-3.4-.15-.52.08-1.22.88-1.41.89-1.9.15-4-.38-6.12-.32-.1-1.64-.92-2.82-.4-4.84a11.71,11.71,0,0,0-3.43.76c-.84.31-1.15,1-2.12,1.31s-2.45,0-3.41.25-1.42,1.07-2.14,1.29c-1.84.58-3.64.87-5.56,1.5s-3.85,1.77-5,2c-.74.14-2.9-.49-4.08-.38a2.19,2.19,0,0,1-2.81.69c-1.77-1-1.53-2.27-1-3.49.83-1.91,6.05-1.39,6.44-3.22-.15-.54-.7-.25-1.34-.13-.35.07-1.37.14-2.06.29a25.7,25.7,0,0,0-4.23,1.49c-.68.26-.85,0-1.4.34-1.76.94-9.61,3.52-12.65,2.8-1.44-.33-1.16-.14-2.57-1.33-.64-.54-.4-1.06-1.87-1.24-3.45-.42-4.49,1.57-7.24,2.28-.52.13-2.51.2-3.53.37-2.09.35-3.21.89-4.79-.37-.3-.24-.61-1.18-1.16-1.21-2.29-.1-5.58,1.34-8.84,2.11-1.54.35-3,.73-4.48,1s-3.25.17-4.4.4c-2.34.49-4.81,1.85-7.94,2.35-.76.13-1.53-.32-2.19-.13-1.76.5-5.38.49-7.91,1.06-2.85-1.2,1.23-.32-2.46-1.85-1.39-.58-1.26-1.06-3.09-.09-.47.93,2.39,1.11,3.31,1.68-1.5,1.17-4.16.12-6.4.25-1.59.08-5.22,1.51-6.91.85s-.06-.64-2.33-.47c-.87.06-1.47.27-2.74.35a29.07,29.07,0,0,1-5.13-.42c-2-.32-4.15-.65-6-.88-1-.11-2.1.21-2.92,0s-1.53-1.12-2.23-1.32c-.28-.09-.89,0-1.75-.13a6.36,6.36,0,0,1-3.2-1.86c-.35-1.12,1.75-1,1.79-1.12.17-.27-.69-1.48.06-1.68a10.18,10.18,0,0,1,3.8.73,47.63,47.63,0,0,0,4.87,1.2c.68.1,1-.2,1.89,0,1.5.29,3.9.62,5.83.89l-.85,1.72c2,1.65,1.26-1.43,2.68-1.91-.41.14.63.12,1.78.06s2.41-.2,2.51-.18c.35,0,1.46.42,2.61.67s2.33.4,2.81.09c1.81-1.16.34.29,3.12.21.72,0,1.46-.38,2.57-.55s3.06,0,4.76-.33c.17,0,1.43.07,1.51,0,1.62-1.25.19,0,3,0,.37,0,.67-.69,1-.7a33.21,33.21,0,0,0,3.66.13c1.43-.25,2.67-1.39,4.17-1.78.87-.23,2.36.2,3.6,0,.8-.14,1.56-.74,2.37-.87s1.52.32,1.34.34c.67-.08.4-.66.9-.76,1.23-.27,2.71-.41,4.23-.59a30.61,30.61,0,0,0,4.5-.82c1.63-.49,3-1.55,4.57-2a27.06,27.06,0,0,1,2.73,0c1.71-.28,3.74-1.32,5.8-1.85,1.46-.36,3.31-.25,4.86-.62.28-.07.57-.8.81-.84a13,13,0,0,0,4.17-.81c.75-.36,3.48-1.1,4.94-1.7s3.5-.85,5.57-1.67,2.39-1.46,3.52-1.5,3.11,1.3,4.48,1.49c3.44.43,7.62-1.68,10.93-2.77.46-.15,1.5-.08,2-.3s1.62-.8,2.76-1.21,3-1,4.76-1.55c.76-.25,1.34-.09,2-.33.87-.32,3.05-1.71,4.75-1.6s2.93,1.22,4.53,1.72c-.61,1.85-3.72,1.65-3.58,4.11.56-.65,2.29-1,3.44-1.71.87-.53,5.65-1.19,7.44-2,.38-.17,1.11-.82,1.37-.9.78-.23,3.14.12,4.67-.27,1-.26.66-1.71,3.39-1.31.08,0-.11.88,0,1a12.09,12.09,0,0,0,3.31.6c-1.31,2.77-5,3.72-7.56,5.47,1.18,1.73,4.43-.13,6.73-.7,1.18-.29,2-1,3.4-1.33,1.21-.24,2.79,0,4-.36.79-.24.8-.63,1.37-.93,1.09-.55,3.84-1.2,5.4-1.8,2.36-.9,4.79-2.49,6.74-2.28.07,0,1.07.51,2.06,1l1.35.67a5,5,0,0,0,.59.28c.25.74-1,.86-2,1.9-2.15,2.16-.44,1.14-4.06,1.86-.45.1-1,.83-1.37.94-1.18.4-2.39.56-3.38.9-2.32.82-4.22,2.11-6.13,2.74s-4.4.61-6.11,1.27c-.65.24-1.26,1-2.07,1.37s-2.7.41-2.08,1.36c2,1,3.67-.22,5.44-.77.71-.23,1.76-.54,2.73-.88.2-.07,1-.3,1.36-.44s.57-.91.7-.95c.75-.22,1.95.3,2.7.07.4-.12.56-.92.7-.94,1.22-.26,2.17-.12,3.39-.41s2.1-.61,3.39-.9c2.31-.53,3.89-.41,6.09-1.36.82-.36,1.35-1.19,2-1.42,2.09-.7,4.2-.37,6.08-.93,2.2-.65,3.9-1.51,6.75-2.39.53-.16,1.69-.9,2-1,1.23-.25,1.62.28,2.7,0,2.43-.65,6-2.58,8.75-2.47a15.86,15.86,0,0,1,2.77.69l1.37.46.61.23c.52.91-2.37,2.93-5.36,4.39-4.65,2.28-10.13,3.54-15.56,5.36-1.27.42-2.3,1.08-3.4,1.44-1.55.5-3.08.55-4.07.94C372.44,578.62,370.46,580.75,367,580.43Z"/><path class="cls-3" d="M314.52,346a1.57,1.57,0,0,0,.43,1c.12-.12.37-1.67.56-1.86s.28.5.76.1.9-2,1.41-2.7c.23-.34.47,0,.8-.38a2.82,2.82,0,0,0,.38-.44c0-.09.18-.91.21-.94.19-.23.35.28.54,0s.47-1.12.69-1.39a2,2,0,0,0,.27-.46c.08,0,0,.59.16.5.31-.25.85-1.25,1.37-1.82s.94-.76,1.52-1.31a5.11,5.11,0,0,0,.41-.93c.19-.09.31.63.49.52.45-.29,1.34-2,1.77-.81.11.29,0,2.09.11,2.41,0,.05.22,0,.22,0a52,52,0,0,1-1.51,6.14c-.29.83-.7,1.39-1.08,2.31a2.32,2.32,0,0,1-.27.46l-.26.46c-.16.44-.26,1.57-.4,1.9-.26.59-.51.32-.75.9s-.42,1.34-.63,1.87c-.12.3-.26.14-.38.45,0,.12,0,.81-.1,1s-.16-.16-.22,0a31,31,0,0,0-1.24,3.26c.34,1.23.89-.19,1.34-.85.73-1,1.34-1.91,2.23-3.18.25-.37.49-.83.91-1.37s.8-1.27,1.27-1.82c.07-.08.19-.56.26-.46s.09.14.49-.44.59.74.31,2.92c-.31,2.51-1.69,3.09-1.74,4.67-.08,2.71,1.45-1,1.7-1.3.46-.56.77-.18.93-.41a8.83,8.83,0,0,0,.3-.94,28.21,28.21,0,0,1,2.14-3.19,9.49,9.49,0,0,1,3.19-3.1c.09.79-.13,2.23-.09,3.37.1,2.61-.72,3.45-1.17,6.16,0,.52.26.6.43.52s.27-.8.39-.93c.3-.33.61-.38,1-.9.13-.18.25-.75.4-.95s.31-.23.47-.47.53-1.14.75-1.41.62-.09.92-.45.67-1,1-1.41.77-1.56.95-1.41c.41.33-.06,1.11.16,1.44.4,0,0-1.33.53-1.9.24-.27,1.08.88,1.27,1.49a10.58,10.58,0,0,1,.28,1.45c.16,1.43-.18,3.74,0,5.28a4.08,4.08,0,0,0,.52,1.46c.2.44.54,1.7,1,1,.24-.37.07-.72.36-.47.14.13.9-1.09,1.18-1.39s.45-.16.69-.46c.07-.08.21-.9.25-.95s.24.13.34,0c.47-.55,1.27-1.09,2-1.85.06-.07.2-.9.24-1,.21-.26.48.06.68-.45s.39-.05.79-.46c.11-.11.28-.86.35-.95.54-.62,1.13-.42,1.9-1,.15-.11.29-.8.45-1,.9-1,1.9-.59,2,2.85a25.54,25.54,0,0,1-.22,3.36c-.13,1-.68,2.16-.23,3.37s1.6,1,2.41.44c.2-.13.28-.71.56-1,0,0,.07.74.12.47.25-1.37,1.42-1.37,2-1.94,0,0,0-.48.11-.48a.82.82,0,0,1,.12.48c.29-.39.4-1.27.65-1.45s.63.06.91,0c.88-.24,1.65-1.57,2.48-.51.4.52.49,1.8,1.17,1.43.16-.09.27-.71.44-.49,0,0,.2.52.42,1.06a12.8,12.8,0,0,1,.46,1.33c.48,2.77,0,8.65,1,6.21.13-.31.16-1.14.29-1.46s.44-.23.56-.52a10.64,10.64,0,0,0,.29-1.45c.27-.57.73-.53,1-1,.06-.1,0-.89.08-1,.15-.33.41-.09.66-.52.14-.23.26-.71.41-1s.38-.08.35,0c.38-.67.37-2,.72-1.49a9.68,9.68,0,0,1,.21,1.91c.64,1.19-.34-.93.23,0,.16.25.23.77.39.94a7.44,7.44,0,0,1-.13,1.93c0,.61.06,1.84,0,2.4-.12,1.28-.53,1.77-.46,2.43.37,3.9,1.43,0,1.72-.58a31.64,31.64,0,0,1,1.81-3c.34-.57.65-1.72,1.12-2.46a4.38,4.38,0,0,0,.31-.5,10,10,0,0,1,1.17-1.51,3.68,3.68,0,0,1,.54-.51s0-.81.08-.49c.3,1.17.22,0,.42-.5s.42,0,.76-.53c.05-.07.13-.93.16-1,.22-.27.48-.29.76-.52a8,8,0,0,0,.75-.53c.73-.71,1.26-1.82,2.22-2.12,0,0,.31.57.49.44.51-.41,1.56.13,2,.76a5.36,5.36,0,0,1,.85,1.85,22.89,22.89,0,0,1,.57,6.21c0,.26-.25.72-.26,1,0,.62.19,1.72.21,2.39a10.24,10.24,0,0,0-.1,1.46c.4,2,1.22.93,1.67.32s1.08-.43,1.33-2.06c.07-.47.89-1,1.25-1.57.12-.19.23-.7.37-1s.27.16.34,0,0-.92,0-1c.15-.24.49.14.69-.07s.21-.89.36-1,.37.42.63.42.73-1,1.16-1.08.89.32,1.31.36c.74.05,1.63-.86,2.24.25a17.11,17.11,0,0,1,.34,1.89,8.64,8.64,0,0,1,.63,2.34c.07.77,0,2.47.16,3.37a3.09,3.09,0,0,1,.23.93c0,.38-.06,2.55-.07,3.4s0,1.19,0,1.93a8.11,8.11,0,0,0,.57,3.81,18.65,18.65,0,0,0,.7,1.84c.26.39.8.06,1.13.33s.56.82.72.87a6.29,6.29,0,0,0,2.34.17c.27,0,.43-.57.66-.58,2.09,0,4.62-.16,6-3.24.21-.46.57-.13,1-.62s.82-1.62,1.26-2.11.79-.17,1.12-.63c.07-.11.05-.55.16-.51s.24.38.19.46c.3-.47.27-1.3.5-1.52.59-.58,2.28-1.27,2.5-.91,0,0,.27.93.27.93s.25.78.19.45a10.8,10.8,0,0,1,0,1.47c.88,2.73,2.62.77,3.19-.55.44-1,1.75-1.17,2.7-1.92s1.46-2.32,2.1-1.82c.43.34,1.2,2.89,1.53,3.15.75.62,1.2-1,1.95-1.3.18-.08.48.37.67.37.43,0,1.43-.69,2.12-.37s1.45,1.81,2.09,2c1,.35,2.18-.42,3.4-.68a15.81,15.81,0,0,0,3.52-.71c.52-.25.9-1,1.45-1.27,1.2-.6,2.73.14,3.63-.73.19-.19.26-1,.51-1.08.54-.15,1.28,1,2.07.55,1.08-.63,2.49-2,3.76-2.83.29-.18.56,0,.81-.18s.58-1,.95-1.2c.16-.08.51.46.68.33.52-.38.82-1.48,1.3-1.77.32-.19.72-.06,1-.23.73-.41,1.33-1.33,2-1.44.08,0,.24-.2.34-.08s.34.91.34.91.15-.86.35-1.07c.49-.48,1.42-.38,1.85-.42s.88-.66,1.5-.35c1,.53,2,1.8,2.73,5.26-.07-.31.22,1.46.22,1.43,0,.3-.25.23-.23.55,0,.93.25,2,.21,2.42,0,.26-.38.15-.46.61,0,.12.13.88.1,1s-.21-.09-.23.06c0,.44.12,1.28.1,1.95,0,.42-.23.59-.25,1-.06,1.69-.23,4.26.65,4.28.11,0,.12-.64.36-.57s.81.84,1.05.74.27-.82.48-1.11.68-.09.94-.73.11-.64.59-.64.43-.84.82-1.2,1-.39,1.4-.85.82-1.29,1.29-1.8,1.23-.74,1.75-1.43c.15-.2.18-.88.35-1.08s.56,0,.81-.2a4.74,4.74,0,0,0,.92-1.72,3.88,3.88,0,0,1,.92-1.22c.65-.73,1.91-1,2.54-2.12.16-.28.18-.9.33-1.08s.57-.05.81-.21c.44-.29.74-1.22,1.13-1.3s1.74,1.32,2.07-.06c.17-.74,1.19-.53,1.93-1,.21-.14.19-.52.34-.59s.72.41.92.25.05-1,.21-1.05.61.39.81.28c.65-.36,1.11-1.22,1.7-1.46.38-.15,1,.15,1.49.1.78-.09,1.53-1,2.29-.62a5.73,5.73,0,0,1,1.67,2c.37.82.94,3.24,1.15,3.67a8,8,0,0,0,1.2,1.66c.85,1,1.2,1.46,2.11.9,0,0,.06-.52.21-.56s.5.33.47.36c.16-.17.06-.92.2-1.05s.52,0,.69-.2.17-.81.31-1.09.34,0,.45-.13.19-.84.31-1.08c.31-.62.83-.36,1-1.29,0-.16-.05-.94,0-1,.11-.26.43,0,.57-.17a6,6,0,0,0,.19-1c.05-.19.3.11.34-.1s-.16-.92-.15-.95c.19-.42.58-.4.78-.73.49-.81.73-3.3,1.76-2,.65,1.59-.3.39.06,1.48.4.45.32-.15.7.3s.72,1.65,1,1.71.34-1,.53-1.15.87,0,1.25-.35.37-1,.65-1.19a4.58,4.58,0,0,1,3.51-1c.22.06.45.61.72.79.43.28.65-.15,1,.19.61.53,1.29,2,1.84,2.46,1,.9,1.74.25,2.67.7.23.11.64.72.84.75.52.1.84-.43,1.36-.4s1.51.73,2.23.84,1.18-.44,1.84-.05,1.47,2.05,2.08,2.38,1.67-.15,2.64-.28c0,0-.14-.54,0-.5,1.17.48,2.41-.64,3.27-1,.2-.08.4.45.59.32a1.65,1.65,0,0,1,.9-.28c.24,0,.25-.61.43-.63a2.48,2.48,0,0,0,1.46-.45c.18-.12.49.4.71.29s.5-.59.87-.77c0,0-.17-.77,0-.49.75,1.39.41-2,.79-2.25s.88.71,1.44,1.06c1.37.86,2.92.33,4.48.14.26,0,.57-1.06,1.19.64-1.21-.12-2.07,1.05-3.13,1.46-.16.06-.55-.38-.71-.29s-.21.91-.39,1.13-.48-.4-.71-.29-.1.54-.31.6-.61-.35-.82-.25c-.82.39-1.41,1.81-2.17,2.17-.11.05-.29.27-.45.13s-.33-.84-.51-.84.1.89.06,1-.35-.41-.37-.39c-.87.9-2.36.61-3.58,1.6-.34.28-.49,1.13-.85,1.27-1.06.42-2.49-.7-3.12-.07-.14.15-.32,1.22-.52,1.16s-.33-.83-.39-.89c-.41-.4-.42.13-1-.71-.36-.56-.84-1.59-1.23-1.63s-.62.35-1,.3-.75-.59-1.07-.68c-.87-.26-1.37.67-2.16.64-.27,0-.73-.61-1.07-.68s-.82.44-1.36.41c-.21,0-.72-.65-1-.72-.74-.23-.59.74-1.29-.62,0-.07-.36-.86-.39-.88-.22-.21-.32.47-.56.17-.1-.12-.41-1.18-.52-1.35a12.67,12.67,0,0,0-1.09-1.18c-.25-.18-.44.28-.79.24-.55-.07-1-.87-1.63-.52-.08,0,0,.61-.09.53s-1-.36-1.39-.1c-.2.14-.24.91-.42,1.12s-.78.06-1.14.33c-1,.76-1,3.59-2.36,1.67-.24-.34-.11.13-.36-.4a6.21,6.21,0,0,0-.38-.89c-.47-.76-.69-.7-.93-.23-.05.09,0,.6-.1.53s-.17-.61-.24-.43c-.15.34-.11,1.3-.29,1.58-.36.55-1,.24-1.24.85-.12.31-.06,1.33-.18,1.55-.22.43-.65.36-.89.76a13.09,13.09,0,0,0-.64,1.68c-.11.25-.29.3-.44.62s-.1.95-.2,1.06c-.36.38-.92.05-1.26.36-.49-1.4.06-1-.42-2.38-.45.38.56,2.63.56,3.34-.76,0-1.48.39-2.19.13-.48-.19-.78-.82-1.57-2.07a15.29,15.29,0,0,1-1.72-3.51c-.23-.55-.8-2.14-.87-2.25-.32-.46-.62.06-1.16-.18-.27-.12-.67-.75-.83-.77-.89-.1-1.62,1.13-2.51,1.67-.46.28-1,.11-1.37.37s-.34,1.09-.56,1.15-.74-.69-1.05-.71a.93.93,0,0,0-1,.77c-.07.25,0,.93-.09,1s-.79-.88-.94-.74c-.36.35-.41,1.86-.77,2.2-.95.9-3.27-1.17-3.81,1-.14.59-1.95-.12-2,1.48,0,.95.12.63-.47.62s-.79.74-1,1.74c-.21.82-.31-.26-.7-.32a5.09,5.09,0,0,0-.7,1.17c-.11.26-.1.9-.23,1s-.8-.08-1,.26-.33,1.35-.58,1.63-.5-.47-.82-.29,0,.74-.24,1.05-.58,0-.7.18a5.13,5.13,0,0,0-.36,1.07c-.33,1.25-1.31,1.55-2.24,2.55-.19.2-.15.78-.36,1.08-.33.46-1.15.46-1.77.94-.32.23-.62.8-1.2.76a2.14,2.14,0,0,0-.48.11c-.16-.09-.34-.77-.46-.88-.45-.45-.39-.11-.92-1.26l-.46-.88a35.06,35.06,0,0,1-1.21-5.64c0-.28.45.12.47-.1s-.21-1.76-.2-2.42c0-.31.22-.27.24-.55s0-.67,0-1c.1-1.16.31-2,.38-3s0-2.41,0-3.46c-.66-.94-.94,0-1.5-.14-.24-.07-.69-.8-.91-.77s-.33.89-.59,1.12c-.42.35-1.13-.27-1.62-.13a4.82,4.82,0,0,0-1.4.81c-.25.21-.36,1-.6,1.12s-.59-.51-.8-.3a1.61,1.61,0,0,0-.47.6c-.1.22-.1.92-.25,1s-.74-.38-1-.26-.24.81-.49,1.1c-.56.65-1.55-.23-1.87.92-.08.28,0,.84-.14,1-.3.4-.79,0-1.17.27s-.27.82-.49,1.09-.31-.42-.46-.39-.29,1-.49,1.1-.34-.5-.45-.39-.21,1-.39,1.07-.44-.39-.68-.33-.32.54-.49.59c-.4.09-.89-.32-1.28-.24s-.35.62-.61.62-.58-.4-.81-.33c-.8.23-1.5,1.48-2.38,1a3.9,3.9,0,0,1-.57-.38c-.21.07-.21.83-.4,1.06-.52.66-1.13.34-1.77.36s-1.12.68-1.68.82c-1,.26-2.2,0-3.28.17-.88.15-1.34,1.17-2.25.45-.44-.34-1-1.95-1.5-2.16-.31-.11-1.52,1.12-2,1.32s-.76.05-1.19.2c-.7.24-1.44,1.41-1.82.8s-.88-3.83-1.1-4.2-1.94.34-2.05.84-.47.21-.87.63c-.14.15-.18.91-.31,1-.47.44-1.13.23-1.58.75-.3.35-.46,1.25-.72,1.59s-.42,0-.6.1-.4,1-.56,1.07a1.38,1.38,0,0,1-.91-.34s-.23-.51-.47-1-.47-1.1-.5-1.22c-.38-1.49-.08-2.21-.45-2.85a.82.82,0,0,0-1.25-.27c-.22.16-.14,1.11-.37,1.51-.11.2-.51-.18-.84.12s-.25.86-.45,1c-.37.32-.92-.06-1.36.67,0,.07-.07.94-.1,1-.16.2-.42,0-.6.08s-.29.87-.46,1c-.77.75-1.51.93-2.2,1.76-.32.37-.6,1-.84,1.08s-.56-.49-.79-.38c-.43.23-.45,1-.71,1.07s-.55-.41-.79-.38-.42.48-.66.58-.54-.43-.79-.38-.18.57-.42.54-.7-.74-1.08-.82c-.2,0-.36.53-.55.56-.35,0-1-.75-1.44-.78-.22,0-.36.64-.54.56s-.54-.6-.84-.85-.88-.6-.78-.4a25.12,25.12,0,0,1-1.32-6.14,31.08,31.08,0,0,1,0-3.37c0-.79-.1-1.3-.11-1.92a37.27,37.27,0,0,0-.32-4.79c-.2-2-.08-2-.57-2.84s-.12.53-.64.55c-.29,0-.64-.49-1-.39s-.52.64-.76.56-.51-1-.68-.9a3.66,3.66,0,0,0-1.12,1.56c-.09.23-.13.39-.3.51s-.56-.49-.86-.39-.4.66-.6,1a6,6,0,0,0-.6,1,12.34,12.34,0,0,1-.28,2c-.61,1-1.21-.28-1.78,1.14-.11.27-.25.13-.31.51,0,.11,0,.92,0,1-.14.32-.27-.59-.4-.44s0,.88-.14,1c-1.12.73-2.49-.32-2.55-6,0-.38,0-.92,0-1.45,0,0,0-.32,0-.67v-.78c0-.37.45-.84.45-1.49,0-.08-.24-1.3-.28-1.9a9.38,9.38,0,0,0-.06-1.92c-.15-.64-.19-.06-.38-.44,0-.08-.18-.93-.2-1a2.71,2.71,0,0,0-1.51-.33c-.25,0-.51.55-.87.56a1.77,1.77,0,0,0-1.55.63,3.58,3.58,0,0,0-.53.51c-.14.19-.26.84-.39,1-.89.94-1.82,1-2.18,1.57s-.53,2.11-.76,2.45c0,0-.35-.22-.69,0a9.37,9.37,0,0,0-.29,1c-.16.11-.27-.62-.38-.46s0,.8-.25,1.46c-.15.48-.4.05-.55.51s-.26,1-.38,1.47c-.07.29-.19,1.28-.27,1.46s-.34-.15-.47,0-.13.91-.18,1c-.19.28-.49.16-.67.52-.44.83-.76,2.25-1.15,2.95-.56,1-1.06,1.79-1.37,1a15.36,15.36,0,0,1-.21-1.92c-.08-.42-.22-.27-.28-.94-.25-2.74.12-5.89.1-7.7-.53-.08-.81,1.82-1.16,2.47s-.64.5-.89,1a29.66,29.66,0,0,0-.93,2.94c-.11.32-.24.22-.34.5s-.13.77-.2,1-.25.2-.33.5a2.49,2.49,0,0,1-.66,1.45c-.52.63-.5.7-.74-.95-.21-1.41-.23-7.52-.63-8.63-.35-.95-.63.77-1.13,1,0,0-.15-.65-.24-.48s-.19.75-.47,0c-.34-.91-.05-1.66-.43-3.35-.66.22-1.26-.27-1.83,0-.17.08-.27.77-.44,1-.32.36-.73.19-1.14.5-.74.55-1.49,1.64-2.51,1.95,0,0-.11.67-.23.48s0-.56-.12-.48-.28.77-.46,1-2,1.09-2.32.51c0-.06-.16-.78-.23-.95-.42-1.15-.58-4.72-.21-8.16.16-1.57.17-2.2-.45-2.39-.09,0-.18.59-.34.48a.53.53,0,0,0-.78,0c-.41.45-.67,1.42-.8,1.45-.71.18-.36-1.69-.91,0-.42,1.28-1.47,1.3-2.29,2.32-.44.54-.88,1.3-1.41,1.87-.22.24-.5.17-.7.46s0,1.17-.15,1.43c0-.06-.44.14-.7.46s-.81,1.25-1.42,1.39c-.26.06-.39-.49-.56-.5-.59,0-1.07.74-1.45-1.49,0-.1-.06-.92-.08-1-.27-.57-.11-.45-.27-1.93,0-.28-.18-.79-.18-1-.11-1.81.13-3.67-.17-4.32s-1.87,1.68-2.47,2.31-.78.2-1.2,1.4c-.29.85-.33.29-.84.94a7.64,7.64,0,0,1-.4.94,10.25,10.25,0,0,0-.39.95c-.19.23-.39-.26-.57,0s-.26.73-.4.94-.29.16-.49.44-.66,1.31-.78,1.38-.16-.54-.31-.51-.72,1.09-.74-1c0-1.08-.12-1.56-.1-1.94a18,18,0,0,1,1-4.73,14.83,14.83,0,0,0,1-3.77c-.17-2-.86.76-1.57,1.8s-1.52.69-2,2.72c-.29,1.25-.5.09-1,1.36,0,.11-.29.92-.3.94-.17.2-.39-.36-.56-.05s-.16,1.19-.34,1.41a4.39,4.39,0,0,1-.49.44c-.36.26-.73-.28-.92-.07s-.09,1.12-.23,1.42-.62.15-.84.41-.4,1.67-.77.9a10.91,10.91,0,0,1,.65-4.76c.1-.25.18-.9.31-.94s.11.69.18.5.16-1.14.24-1.43a11.79,11.79,0,0,0,.8-2.82c-.3-.12-.48.4-.75.9-.06.11-.17-.17-.22,0-.14.41-.2,1.13-.35,1.42s-.42,0-.61.43c-.43.88-.88,2.95-1.43,3.25-.24.13-.4-.7-.53-.53-.26.38-.46,1.6-.8,2.35-.22.48-2.33,3.45-2.77,2.17,0,0,0-.57,0-1.21s0-1.36,0-1.68c.1-1.1.25-.87.38-1.42s0,.06.05-.47c.07-1.82.41-.95.77-1.86.12-.32.31-1.83.47-2.37,0-.14.22-.32.27-.46.5-1.43,1.38-2.68,2-4.17.27-.67.53-1.7.78-2.35a4.45,4.45,0,0,0,.68-1.38c0-.16.05-.87.09-1,.32-.75.71-.6,1-1.36.35-.93.38-1.94.68-2.83.08-1.8-.37-.06-.44-1,.08-.69.33-.14.4-.93s-.38,0-.4.93c0,1.91-.66.65-.84.89s-.15.8-.3.94-.35-.23-.54-.05c-.34.34-.81,1.33-1.26,1.82s-1.51.2-1.88,1.29c-.09.27-.16,1.3-.26,1.43s-.36-.26-.66-.06-.71,1.61-1,1.84-.35-.72-.49-.55a7.15,7.15,0,0,0-.43.91c-.09.15-.25.19-.39.43s-.17.86-.22.94-.14-.17-.22,0a4.8,4.8,0,0,1-.93,1.32c-.47.54-3.27,5.11-3.28,2a7.85,7.85,0,0,1,.88-4.24c.16-.36.13,0,.28-.45s.38-.23.62-1.37c-.42-.82-1.12.89-1.67,1.71-.25.39-.57,1-.84,1.34a22.09,22.09,0,0,0-1.76,2.18c-.23.36-.54,1.13-.75,1.35s-.36-.27-.56-.08-.32.91-.36.92c-.34.2-.63-.27-1-.13.2-1.62.22-2.76.58-4.77-.17.13-.3.17-.69.88-.18.33-.33,1-.54,1.37s-.43.1-.63.4-.39,1.12-.55,1.38c-.4.66-.76,1.05-1.19,1.78s-.93,2-1.16,2.26-.45-.29-.68-.1c0,0-.42,1.67-.6.89a9,9,0,0,1,.31-3.35c.43-2,1.29-1.83,1.62-3.65,0-.52-.09-.2-.23,0s-.26.24-.4.43a13.53,13.53,0,0,0-1,1.8c-.16.31-.16.11-.3.45-.46,1.07-2.26,4.24-2.73,3.87-.22-.17-.19,0-.28-1-.05-.46.07-1-.18-1-.58,0-1.07,2.05-1.7,3.09-.12.2-.52.53-.74.83-.46.63-.75,1.32-.88.32,0-.19.05-1.05-.05-1-.44.25-1.3,2.19-2.07,3.52-.37.62-.71,1.24-1.05,1.75s-.69.8-1,1.28c-.55,1-1.26,2.79-2,4-.18.29-.28.07-.45.4-.44.9-1.21,1.83-1.84,3.07-.46-.31.31-.64-.28-1-.23-.15-.14-.62-.67.84-.23,1,.38.3.5.59-.49,1.5-.93,1.34-1.44,2.16-.37.59-1.36,3.09-1.65,3.11s.07-.59-.47.39c-.2.38-.36.8-.66,1.34-.6,1.1-1.57,2.1-2.4,3.44-.21.34-.51,1.13-.68,1.34s-.23-.23-.37-.07-.62,1.55-.95.79a11.1,11.1,0,0,0,.73-3.28,13.69,13.69,0,0,1,1.84-2.57c.15-.23.27-.65.45-.89l1.25-1.72-.4,1.88c.26.68.46-1.78.85-2.77-.22.57,1-1.71,1-1.76a2.43,2.43,0,0,0,1.13-1.25c.56-1.69,0,.14.67-.84.17-.26.38-.84.65-1.34s.68-.95,1.1-1.75c0-.08.3-.33.33-.42.52-1.62,0,0,.66-.85.08-.1.24-.83.3-.92.24-.32.56-.45.78-.83.33-.58.76-2,1.14-2.71.21-.42.47-.36.76-.83.18-.3.43-1,.62-1.35s.27,0,.22.05c.16-.22.18-.72.3-.92.58-1,1.3-1.74,2-3,.4-.75.82-2,1.2-2.7.18-.33.39-.18.54-.39.38-.54.93-1.85,1.4-2.66.34-.57.68-.69,1-1.26.06-.11.23-.86.28-.93a3.73,3.73,0,0,0,.9-1.29c.2-.45.82-1.46,1.18-2.21s.77-1.2,1.26-2.2a11,11,0,0,1,.86-1.79c.22-.15.36,1,.59,1.09.55.13,1.6-2.27,2.33-3.56.1-.18.27-.17.39-.43s.4-.9.65-1.36.66-1.15,1-1.8c.16-.28.24-.15.39-.43s.75-1.84,1-1.8.32,1.08.52,1.52c-.36,1.85-.85,1.77-1.16,4.21a17.49,17.49,0,0,1,.81-1.83c.21-.56,1.1-1.37,1.5-2.22.08-.18.29-.84.34-.92.16-.25.5,0,.8-.38.2-.28.33-1.7.72-1.35,0,0,0,.22-.07.45a4.54,4.54,0,0,0-.06.5c0,.14.35.66.45.55a28.64,28.64,0,0,1-1.94,5.55c0,1.67.74-.22,1.19-.81.23-.3.46-1.06.72-1.36s.45,0,.7-.38a8.92,8.92,0,0,0,.33-.92c.25-.57.76-1.2,1.08-1.8.49-.89,1.06-2.45,1.34-2.23l.07.32.13.7c.09.51.19,1,.19,1a8.35,8.35,0,0,1-.55,1.86c-.6,2.13-.2,1.12-.86,1.82-.08.09-.27.81-.33.92-.24.39-.45.54-.65.88-.48.81-.94,2.08-1.33,2.73s-.8.62-1.16,1.29c-.14.25-.33,1-.52,1.38a2.13,2.13,0,0,0-.52,1.39c.19,1,.64-.27,1-.84.15-.23.36-.54.56-.89,0-.07.2-.3.28-.44s.2-.9.23-.94c.15-.22.28.28.43.06s.2-.91.23-.94c.23-.25.37-.12.6-.4s.41-.6.65-.88c.44-.51.67-.38,1.14-1.3.17-.34.35-1.16.49-1.38.41-.66.7-.31,1.06-.82s.79-1.44,1.32-2.24c.11-.15.37-.85.42-.91.22-.22.22.32.42.06.45-.6,1.21-2.46,1.62-2.27a6.24,6.24,0,0,1,.58,1.5,14.45,14.45,0,0,1-1.3,4.22,18.62,18.62,0,0,1-1.48,2.68c-.5.75-1,1.45-1.55,2.29-.25.39-.49,1-.71,1.36s-.55.5-.76.86S315.05,346.35,314.52,346Z"/><path d="M500.37,249.05a6,6,0,1,0-6-6,6.08,6.08,0,0,0,6,6Z"/><path d="M324.39,266.2a6,6,0,1,0-6-6,6.07,6.07,0,0,0,6,6Z"/><rect class="cls-4" width="784.58" height="784.58"/></g></g></svg>