<svg id="레이어_1" data-name="레이어 1" xmlns="http://www.w3.org/2000/svg" viewBox="0 0 500 600"><defs><style>.cls-1{fill:#d3edf9;}.cls-2{fill:#fff;}.cls-3{fill:#38260f;}</style></defs><title>animal</title><path class="cls-1" d="M394.5,482.5C394.15,541.32,329.81,583,250,583S105.5,541.32,105.5,482.5C105.5,399,170.19,370,250,370S395,398,394.5,482.5Z"/><path class="cls-1" d="M250,600c-39.39,0-73.33-5.1-100.86-15.17-25.52-9.32-46.28-23.17-61.71-41.16-18.2-21.21-29.55-48.88-33.74-82.25-3.4-27.09-2.3-58.17,3.37-95,8.48-55.23,28.71-103.3,58.56-139.26-6.1-12.19-12.37-27.35-11.78-41.64.69-16.57,10.4-29.83,28.85-39.4,8.64-4.48,17.08-6.75,25.09-6.75,16.74,0,31.76,9.78,44.71,29.1a164.1,164.1,0,0,1,22.49-4.8,10.26,10.26,0,0,1,1.37-7.44,8,8,0,0,1,6.81-3.5c3.08,0,6.58,1.47,10.1,4.15,2-4.41,5.14-6.93,8.88-6.93a8,8,0,0,1,2.32.35c5.11,1.59,7.36,7.44,8.34,12.1a165.45,165.45,0,0,1,34.71,6.07c12.95-19.32,28-29.1,44.71-29.1,8,0,16.45,2.27,25.09,6.75,18.45,9.57,28.16,22.83,28.85,39.4.59,14.29-5.68,29.45-11.78,41.64,29.85,36,50.08,84,58.56,139.26,5.67,36.85,6.77,67.93,3.37,95-4.19,33.37-15.54,61-33.74,82.25-15.43,18-36.19,31.84-61.71,41.16C323.33,594.9,289.39,600,250,600Z"/><path class="cls-2" d="M438,367.16c-8.59-55.88-29.46-104.17-59.58-139.33,14.73-28.54,23.71-58-13.41-77.29-29.94-15.53-50.66.3-65.35,23.78a159.46,159.46,0,0,0-41.19-7.17c-.57-6.23-2.71-11.23-5.49-12.09-3.26-1-6.26,4-7.09,11.39-.41-.5-.83-1-1.27-1.49-5.72-6.38-12.05-9.05-14.12-6-1.21,1.79-.71,5.14,1,8.88a158.2,158.2,0,0,0-31.2,6.44C185.65,150.84,164.93,135,135,150.54c-37.12,19.26-28.14,48.75-13.41,77.29C91.46,263,70.59,311.28,62,367.16,45.05,477.41,60,595,250,595S455,477.41,438,367.16Z"/><circle class="cls-2" cx="175.73" cy="290.27" r="16.73"/><circle class="cls-2" cx="324.27" cy="290.27" r="16.73"/><path class="cls-1" d="M369.05,217.62A171.52,171.52,0,0,0,312.64,179c13.58-18.41,27.82-22.64,44.77-13.84C380.22,177,380.15,193.18,369.05,217.62Z"/><path class="cls-1" d="M187.36,179A171.52,171.52,0,0,0,131,217.62c-11.1-24.44-11.17-40.6,11.64-52.43C159.54,156.39,173.78,160.62,187.36,179Z"/><circle class="cls-2" cx="175.73" cy="290.27" r="16.73" transform="translate(-138.94 417.23) rotate(-80.78)"/><circle class="cls-2" cx="324.27" cy="290.27" r="16.73" transform="translate(-14.19 563.86) rotate(-80.78)"/><circle class="cls-3" cx="324.27" cy="290.27" r="16.73" transform="translate(-14.19 563.86) rotate(-80.78)"/><circle class="cls-3" cx="175.73" cy="290.27" r="16.73" transform="translate(-138.94 417.23) rotate(-80.78)"/><path class="cls-1" d="M303,317.39c-.13,18.5-23.73,31.61-53,31.61s-53-13.11-53-31.61c0-26.27,23.73-35.39,53-35.39S303.18,290.81,303,317.39Z"/><path class="cls-3" d="M268.19,303.15c0,6.35-8.14,10.85-18.19,10.85s-18.19-4.5-18.19-10.85c0-9,8.14-12.15,18.19-12.15S268.26,294,268.19,303.15Z"/><path class="cls-1" d="M394.5,482.5C394.15,541.32,329.81,583,250,583S105.5,541.32,105.5,482.5C105.5,399,170.19,370,250,370S395,398,394.5,482.5Z"/></svg>