<svg id="레이어_1" data-name="레이어 1" xmlns="http://www.w3.org/2000/svg" viewBox="0 0 500 600"><defs><style>.cls-1{fill:#ffca7d;}.cls-2{fill:#fef0d8;}.cls-3{fill:#38260f;}</style></defs><title>animal</title><path class="cls-1" d="M250,600c-39.39,0-73.33-5.1-100.86-15.17-25.52-9.32-46.28-23.17-61.71-41.16-18.2-21.21-29.55-48.88-33.74-82.25-3.4-27.09-2.3-58.17,3.37-95,8.45-55,28.6-103,58.27-138.9,28.32-34.26,64.09-55.88,103.94-62.94a82.5,82.5,0,0,1-11.47-18.27,5,5,0,0,1,4.6-7,4.93,4.93,0,0,1,1.76.32c.85.32,2,.73,3.48,1.22,6,2.07,15.8,5.41,25,10.25a92.84,92.84,0,0,1-.29-23.46,5,5,0,0,1,3.65-4.13,5.27,5.27,0,0,1,1.3-.17,5,5,0,0,1,3.93,1.9c.65.83,1.58,1.94,2.71,3.3,6.35,7.57,17.83,21.28,23.95,35.52,41.6,6.62,78.9,29,108.05,65,29,35.73,48.68,83.22,57,137.35.58,3.77,1.05,7.09,1.47,10.17,6.08,45.19,4.91,82.05-3.58,112.66-10.64,38.34-33.24,67.07-67.18,85.41C342.52,591.47,300.92,600,250,600Z"/><path class="cls-2" d="M371.27,570.24C342.4,585.85,303,595,250,595,60,595,45.05,477.41,62,367.16c16.72-108.77,80-188.82,167.45-199a78.37,78.37,0,0,1-17-23.79c5.57,2.09,24.82,7.73,37.48,17.12a89.13,89.13,0,0,1-2.58-33.09c4.32,5.48,20.58,23.17,27,40.24C359.85,180.66,421.52,260,438,367.16c.51,3.35,1,6.71,1.45,10.07C449.73,453.59,442.72,531.64,371.27,570.24Z"/><path class="cls-1" d="M244.55,355.31l-33.32-20.08a7.72,7.72,0,0,1,0-10.91l33.32-20.08a7.71,7.71,0,0,1,10.9,0l33.32,20.08a7.72,7.72,0,0,1,0,10.91l-33.32,20.08A7.71,7.71,0,0,1,244.55,355.31Z"/><circle class="cls-3" cx="324.27" cy="290.27" r="16.73"/><circle class="cls-3" cx="175.73" cy="290.27" r="16.73"/><path class="cls-1" d="M64.13,349.61C46,361,37.44,418.41,43,451c7,41,22,73,49,93,17-26,14.22-63.31,12-86C98.06,397.43,73,376,64.13,349.61Z"/><path class="cls-1" d="M435.87,349.61C454,361,462.56,418.41,457,451c-7,41-22,73-49,93-17-26-14.22-63.31-12-86C401.94,397.43,427,376,435.87,349.61Z"/></svg>