<svg id="레이어_1" data-name="레이어 1" xmlns="http://www.w3.org/2000/svg" viewBox="0 0 500 600"><defs><style>.cls-1{fill:#ffb3cb;}.cls-2{fill:#fce9f2;}.cls-3{fill:#fff;}.cls-4{fill:#38260f;}</style></defs><title>animal</title><path class="cls-1" d="M249,600c-39.39,0-73.33-5.1-100.86-15.17-25.52-9.32-46.28-23.17-61.71-41.16-18.2-21.21-29.55-48.88-33.74-82.25-3.4-27.09-2.3-58.17,3.37-95,.51-3.3,1.1-6.77,1.8-10.53-11.07-14.17-12.41-37-3.18-57.67,7.45-16.7,20.43-29.32,35-34.18,20-36.35,47-64.49,78.51-81.79C148.47,150.7,131.15,90.08,145.73,62c5.35-10.31,14.59-15.76,26.71-15.76h1.06c19.57.49,35.57,16,47.56,46.08,8.8,22.08,14.12,48.42,17.77,69.9,2.93-.15,5.87-.23,8.79-.23h2.71c2.93,0,5.89.08,8.85.24,3.66-21.48,9-47.83,17.78-69.91,12-30.08,28-45.59,47.56-46.08h1.06c12.12,0,21.35,5.45,26.7,15.76,14.59,28.1-2.73,88.71-22.48,120.24,31.29,17.19,58.17,45.07,78.12,81.06,15.39,4.17,29.57,17.34,37.41,34.91C455,320,453,344,440.51,357.84c.57,3.13,1,5.9,1.44,8.56,5.67,36.85,6.77,67.93,3.37,95-4.19,33.37-15.54,61-33.74,82.25-15.43,18-36.19,31.84-61.71,41.16C322.34,594.9,288.4,600,249,600Z"/><path class="cls-2" d="M435.13,356.21c12.37-11.75,15.17-34.57,5.63-56-7.84-17.58-21.95-29.6-36.16-32.59C384.15,230,356,200.8,322,183.79l.58.28C348.51,147.24,374,50,324.65,51.24c-40,1-54.41,74.73-61.28,116.26.81.06,1.61.14,2.41.22A162.81,162.81,0,0,0,249,167q-7.27-.06-14.36.5C227.78,126,213.33,52.24,173.37,51.24c-49.36-1.24-23.86,96,2.06,132.83-33.87,17.14-62,46.41-82.31,84.13-13.42,3.75-26.45,15.4-33.86,32-9.1,20.4-7,42.09,4,54.25-.8,4.18-1.55,8.4-2.21,12.68C44.06,477.41,59,595,249,595S454,477.41,437,367.16C436.44,363.47,435.8,359.83,435.13,356.21Z"/><path class="cls-3" d="M405,495.55C402,418.53,339.41,362,249,362S96,418.53,93.06,495.55C90.85,552.79,158.61,583,249,583S407.17,552.79,405,495.55Z"/><circle class="cls-2" cx="174.74" cy="290.27" r="16.73" transform="translate(-147.91 393.65) rotate(-76.72)"/><path class="cls-2" d="M258.48,312.71a17.37,17.37,0,0,1-19,0c-4.42-2.88-8.71-6.47-8.71-9.56,0-9,8.14-8.15,18.19-8.15s18.26-1,18.19,8.15C267.18,306.23,262.89,309.83,258.48,312.71Z"/><circle class="cls-2" cx="323.28" cy="290.27" r="16.73"/><path class="cls-1" d="M223.25,168.81a155.15,155.15,0,0,0-37.39,10.45c-14.42-29.28-24-72.35-15.37-89.06,1.64-3.15,3.62-5,8.95-5H180c13.48.33,23.48,18.39,29.5,33.49C215.61,134.1,220,152.1,223.25,168.81Z"/><path class="cls-1" d="M274.77,168.81a155.15,155.15,0,0,1,37.39,10.45c14.42-29.28,24-72.35,15.37-89.06-1.64-3.15-3.62-5-8.95-5H318c-13.48.33-23.48,18.39-29.5,33.49C282.41,134.1,278,152.1,274.77,168.81Z"/><circle class="cls-2" cx="174.74" cy="290.27" r="16.73" transform="translate(-154.07 208.58) rotate(-45)"/><path class="cls-2" d="M267.2,303.15c0,3.08-4.31,6.68-8.72,9.56a17.37,17.37,0,0,1-19,0c-4.42-2.88-8.71-6.47-8.71-9.56,0-9,8.14-8.15,18.19-8.15S267.27,294,267.2,303.15Z"/><circle class="cls-2" cx="323.28" cy="290.27" r="16.73" transform="translate(-15.03 562.88) rotate(-80.78)"/><circle class="cls-4" cx="323.28" cy="290.27" r="16.73" transform="translate(-15.03 562.88) rotate(-80.78)"/><circle class="cls-4" cx="174.74" cy="290.27" r="16.73" transform="translate(-154.07 208.58) rotate(-45)"/><path class="cls-4" d="M267.2,303.15c0,3.08-4.31,6.68-8.72,9.56a17.37,17.37,0,0,1-19,0c-4.42-2.88-8.71-6.47-8.71-9.56,0-9,8.14-8.15,18.19-8.15S267.27,294,267.2,303.15Z"/><ellipse class="cls-1" cx="389.51" cy="324.5" rx="38.5" ry="32.5"/><ellipse class="cls-1" cx="108.51" cy="324.5" rx="38.5" ry="32.5"/></svg>