<svg id="레이어_1" data-name="레이어 1" xmlns="http://www.w3.org/2000/svg" viewBox="0 0 200 200"><defs><style>.cls-1{fill:#707070;}</style></defs><title>alpha</title><path class="cls-1" d="M45.83,186V26.2H19.14V19.63h89.37a173.56,173.56,0,0,1,24.76,1.48,47.12,47.12,0,0,1,19.35,7.67A35.94,35.94,0,0,1,166,44.07,42.23,42.23,0,0,1,170,61.28q0,30.82-47.33,40.37v.65q53.38,8.64,53.39,44.36,0,8.78-4.77,18.51T156.1,182a52.66,52.66,0,0,1-21.34,8.83,177.34,177.34,0,0,1-27.41,1.75H19.14V186ZM103,26.2H76.53V98.81h23.73q24.1,0,30.82-9.41t6.71-29.66q0-15.87-4.39-23.09t-11.15-8.83Q115.47,26.2,103,26.2Zm-3,79.19H76.53V186h24.24q13.55,0,21.61-2.06t13.73-11q5.67-9,5.68-28.18,0-20.5-8.58-29.92T100,105.39Z"/></svg>