<svg id="레이어_1" data-name="레이어 1" xmlns="http://www.w3.org/2000/svg" viewBox="0 0 200 200"><defs><style>.cls-1{fill:#707070;}</style></defs><title>alpha</title><path class="cls-1" d="M147.33,17.69l.78,44.88H142Q129.15,22.2,96.52,22.21q-18.06,0-28,10t-10,20.7q0,9.93,8.32,16.9T97.16,80.56q22.05,3.81,33.6,9.29t19.47,18.25q7.94,12.77,7.94,29.28,0,25.41-16.58,42.3t-41.07,16.89q-20,0-39.86-14.83L48.54,192.58H44V144.21h5.54q7.6,22.83,21.28,34.31T100.77,190q16.13,0,29.6-10.64t13.48-26.89a31.32,31.32,0,0,0-9.35-23q-9.36-9.34-30.31-12.89T72,108.29Q60.79,103.6,52.8,91.91a44.67,44.67,0,0,1-8-25.85q0-19.61,13.93-35T96.52,15.63q20,0,37.27,12.64A46,46,0,0,0,142,17.69Z"/></svg>