<?xml version="1.0" encoding="utf-8"?>
<!-- Generator: Adobe Illustrator 22.0.1, SVG Export Plug-In . SVG Version: 6.00 Build 0)  -->
<svg version="1.1" id="레이어_1" xmlns="http://www.w3.org/2000/svg" xmlns:xlink="http://www.w3.org/1999/xlink" x="0px"
	 y="0px" viewBox="0 0 56.7 56.7" style="enable-background:new 0 0 56.7 56.7;" xml:space="preserve">
<style type="text/css">
	.st0{fill:none;}
	.st1{fill:#FFFFFF;}
</style>
<rect class="st0" width="56.7" height="56.7"/>
<g id="bg">
</g>
<g id="레이어_1_1_">
	<g>
		<g>
			<path class="st1" d="M37.1,37.8c1-0.7,1.7-1.6,2.2-2.6S40,33,40,31.6V31h3.1c-0.1,1.8-0.5,3.4-1.3,4.7C41.1,37,40,38.1,38.4,39
				L37.1,37.8z"/>
			<path class="st1" d="M39.4,22.6c0-0.6,0.2-1.1,0.6-1.5s0.9-0.6,1.5-0.6s1.1,0.2,1.5,0.6s0.6,0.9,0.6,1.5s-0.2,1.1-0.6,1.5
				c-0.4,0.4-0.9,0.6-1.5,0.6s-1.1-0.2-1.5-0.6S39.4,23.2,39.4,22.6z"/>
			<g>
				<path class="st1" d="M15.7,38V18.7H13v-1h10.8c3.1,0,5.6,1,7.4,3c1.8,2,2.7,4.5,2.7,7.5c0,1.6-0.3,3-0.8,4.4
					c-0.6,1.4-1.4,2.6-2.6,3.8c-1.2,1.1-2.3,1.9-3.6,2.2c-1.2,0.3-2.7,0.5-4.5,0.5H13v-1h2.7V38z M20.9,18.7V38h1.7
					c2.6,0,4.1-0.8,4.7-2.3c0.5-1.5,0.8-4.1,0.8-7.8c0-2.9-0.2-4.9-0.5-6.2c-0.3-1.3-0.8-2.1-1.5-2.5s-1.5-0.6-2.5-0.6h-2.7
					C20.9,18.6,20.9,18.7,20.9,18.7z"/>
			</g>
		</g>
	</g>
</g>
</svg>
