<?xml version="1.0" encoding="utf-8"?>
<!-- Generator: Adobe Illustrator 23.0.3, SVG Export Plug-In . SVG Version: 6.00 Build 0)  -->
<svg version="1.1" id="레이어_1" xmlns="http://www.w3.org/2000/svg" xmlns:xlink="http://www.w3.org/1999/xlink" x="0px"
	 y="0px" viewBox="0 0 56.7 56.7" style="enable-background:new 0 0 56.7 56.7;" xml:space="preserve">
<style type="text/css">
	.st0{fill:#040000;}
	.st1{fill:none;}
</style>
<g>
	<path class="st0" d="M25.1,37.8c1-0.7,1.7-1.6,2.2-2.6S28,33,28,31.6V31h3.1c-0.1,1.8-0.5,3.4-1.3,4.7C29.1,37,28,38.1,26.4,39
		L25.1,37.8z"/>
	<path class="st0" d="M27.4,22.6c0-0.6,0.2-1.1,0.6-1.5s0.9-0.6,1.5-0.6s1.1,0.2,1.5,0.6s0.6,0.9,0.6,1.5s-0.2,1.1-0.6,1.5
		c-0.4,0.4-0.9,0.6-1.5,0.6s-1.1-0.2-1.5-0.6S27.4,23.2,27.4,22.6z"/>
</g>
<rect y="0" class="st1" width="56.7" height="56.7"/>
</svg>
